{"glyphs":{"0":{"ha":772,"x_min":56,"x_max":717,"o":"m 386 -17 q 204 28 276 -17 q 94 180 132 72 q 56 476 56 288 q 94 773 56 665 q 204 925 132 881 q 386 969 276 969 q 567 925 494 969 q 678 772 639 881 q 717 476 717 664 q 678 181 717 289 q 567 28 639 72 q 386 -17 494 -17 m 386 119 q 485 154 450 119 q 532 258 519 189 q 544 440 544 326 l 544 508 q 532 693 544 624 q 485 798 519 763 q 386 833 450 833 q 288 799 322 833 q 240 695 253 764 q 228 513 228 626 l 228 444 q 240 260 228 329 q 288 155 253 190 q 386 119 322 119 z "},"1":{"ha":772,"x_min":121,"x_max":733,"o":"m 122 136 l 354 136 l 354 742 l 121 742 l 121 844 q 277 882 185 851 q 440 953 369 913 l 521 953 l 521 136 l 733 136 l 733 0 l 122 0 l 122 136 z "},"2":{"ha":772,"x_min":58,"x_max":719,"o":"m 58 47 q 94 188 58 125 q 183 299 131 251 q 319 408 235 346 q 434 499 392 463 q 506 578 476 536 q 544 701 544 633 q 509 792 544 754 q 399 831 474 831 q 278 792 318 831 q 239 682 239 754 l 239 625 l 74 625 q 70 644 72 629 q 68 681 68 660 q 164 897 68 825 q 407 969 260 969 q 590 926 521 969 q 686 820 658 883 q 714 690 714 757 q 672 531 714 603 q 571 410 629 460 q 421 293 513 360 q 350 242 385 268 q 294 194 315 215 q 261 151 271 171 l 719 151 l 719 0 l 58 0 l 58 47 z "},"3":{"ha":772,"x_min":47,"x_max":721,"o":"m 389 -17 q 136 60 225 -17 q 47 269 47 138 l 47 290 l 217 290 l 217 265 q 260 157 217 194 q 383 119 303 119 q 506 156 461 119 q 550 268 550 193 q 372 417 550 417 l 292 417 l 292 553 l 376 553 q 486 590 443 553 q 529 697 529 628 q 490 799 529 765 q 386 833 451 833 q 276 799 317 833 q 236 696 236 764 l 236 674 l 68 674 l 68 708 q 108 845 68 786 q 220 937 149 904 q 383 969 292 969 q 615 901 528 969 q 701 708 701 833 q 661 578 701 629 q 549 494 621 528 l 549 489 q 674 406 626 465 q 721 256 721 346 q 678 110 721 172 q 561 16 636 49 q 389 -17 486 -17 z "},"4":{"ha":772,"x_min":31,"x_max":736,"o":"m 450 214 l 31 214 l 31 351 q 286 969 204 640 l 460 969 q 379 728 433 856 q 269 497 325 600 q 179 350 213 394 l 450 350 l 450 596 q 538 828 500 697 l 617 828 l 617 350 l 736 350 l 736 214 l 617 214 l 617 0 l 450 0 l 450 214 z "},"5":{"ha":772,"x_min":50,"x_max":717,"o":"m 385 -17 q 141 67 232 -17 q 50 296 50 151 l 221 296 q 265 167 221 215 q 385 119 310 119 q 501 168 458 119 q 544 311 544 217 q 502 441 544 396 q 389 486 460 486 q 302 464 340 486 q 239 404 264 442 l 82 425 l 121 953 l 668 953 l 668 801 l 265 801 l 250 563 q 433 619 326 619 q 638 541 558 619 q 717 311 717 463 q 628 69 717 156 q 385 -17 539 -17 z "},"6":{"ha":772,"x_min":57,"x_max":726,"o":"m 407 -17 q 145 90 233 -17 q 57 449 57 196 q 97 756 57 642 q 211 920 136 871 q 400 969 286 969 q 622 888 549 969 q 696 672 696 806 l 526 672 q 393 833 526 833 q 291 797 326 833 q 242 696 256 761 q 228 525 229 631 q 306 582 250 553 q 438 611 363 611 q 653 525 581 611 q 726 297 726 439 q 685 131 726 203 q 572 22 644 60 q 407 -17 499 -17 m 399 119 q 515 169 475 119 q 556 299 556 219 q 516 429 556 381 q 399 478 476 478 q 281 428 321 478 q 240 297 240 379 q 281 169 240 218 q 399 119 321 119 z "},"7":{"ha":772,"x_min":50,"x_max":731,"o":"m 190 0 q 287 424 190 217 q 528 801 383 631 l 50 801 l 50 953 l 731 953 l 731 844 q 371 71 371 413 q 372 0 371 33 l 190 0 z "},"8":{"ha":772,"x_min":49,"x_max":724,"o":"m 386 -17 q 132 60 215 -17 q 49 261 49 138 q 201 489 49 428 q 105 578 138 522 q 72 704 72 635 q 108 839 72 779 q 215 934 144 899 q 386 969 285 969 q 557 934 486 969 q 663 839 628 899 q 699 704 699 779 q 666 578 699 635 q 569 489 633 522 q 724 261 724 428 q 640 60 724 138 q 386 -17 556 -17 m 386 554 q 493 590 454 554 q 532 693 532 626 q 493 797 532 760 q 386 835 454 835 q 278 798 317 835 q 240 693 240 761 q 278 590 240 626 q 386 554 317 554 m 386 118 q 508 158 465 118 q 551 269 551 199 q 508 380 551 340 q 386 419 465 419 q 263 380 306 419 q 219 269 219 340 q 263 158 219 197 q 386 118 306 118 z "},"9":{"ha":772,"x_min":46,"x_max":715,"o":"m 372 -17 q 150 65 224 -17 q 76 281 76 147 l 246 281 q 379 119 246 119 q 481 156 446 119 q 530 257 517 192 q 544 428 543 322 q 467 372 524 401 q 338 342 411 342 q 119 428 193 342 q 46 656 46 514 q 87 822 46 750 q 201 931 128 893 q 365 969 274 969 q 627 863 539 969 q 715 504 715 757 q 676 197 715 311 q 561 33 636 82 q 372 -17 486 -17 m 374 475 q 492 524 451 475 q 532 656 532 574 q 492 784 532 735 q 374 833 451 833 q 257 783 297 833 q 217 654 217 733 q 256 524 217 572 q 374 475 296 475 z "},"\u0000":{"ha":0,"x_min":0,"x_max":0,"o":""},"\r":{"ha":386,"x_min":0,"x_max":0,"o":""}," ":{"ha":386,"x_min":0,"x_max":0,"o":""},"A":{"ha":976,"x_min":6,"x_max":971,"o":"m 6 0 l 376 953 l 600 953 l 971 0 l 779 0 l 701 207 l 265 207 l 189 0 l 6 0 m 644 357 l 547 618 q 500 760 525 674 q 492 783 496 772 q 486 800 489 793 l 479 800 l 465 757 l 418 618 l 321 357 l 644 357 z "},"Á":{"ha":976,"x_min":6,"x_max":971,"o":"m 6 0 m 6 0 l 376 953 l 600 953 l 971 0 l 779 0 l 701 207 l 265 207 l 189 0 l 6 0 m 644 357 l 547 618 q 500 760 525 674 q 492 783 496 772 q 486 800 489 793 l 479 800 l 465 757 l 418 618 l 321 357 l 644 357 m 422 1022 l 535 1206 l 703 1206 l 704 1201 l 554 1022 l 422 1022 z "},"Ă":{"ha":976,"x_min":6,"x_max":971,"o":"m 6 0 m 6 0 l 376 953 l 600 953 l 971 0 l 779 0 l 701 207 l 265 207 l 189 0 l 6 0 m 644 357 l 547 618 q 500 760 525 674 q 492 783 496 772 q 486 800 489 793 l 479 800 l 465 757 l 418 618 l 321 357 l 644 357 m 488 1025 q 325 1078 378 1025 q 272 1206 272 1132 l 382 1206 q 413 1157 388 1178 q 488 1136 438 1136 q 564 1158 538 1136 q 594 1206 590 1179 l 704 1206 q 651 1078 704 1132 q 488 1025 597 1025 z "},"Ắ":{"ha":976,"x_min":6,"x_max":971,"o":"m 6 0 m 6 0 l 376 953 l 600 953 l 971 0 l 779 0 l 701 207 l 265 207 l 189 0 l 6 0 m 644 357 l 547 618 q 500 760 525 674 q 492 783 496 772 q 486 800 489 793 l 479 800 l 465 757 l 418 618 l 321 357 l 644 357 m 488 1025 q 325 1078 378 1025 q 272 1206 272 1132 l 382 1206 q 413 1157 388 1178 q 488 1136 438 1136 q 564 1158 538 1136 q 594 1206 590 1179 l 704 1206 q 651 1078 704 1132 q 488 1025 597 1025 m 422 1206 l 535 1389 l 703 1389 l 704 1385 l 554 1206 l 422 1206 z "},"Ặ":{"ha":976,"x_min":6,"x_max":971,"o":"m 6 0 m 6 0 l 376 953 l 600 953 l 971 0 l 779 0 l 701 207 l 265 207 l 189 0 l 6 0 m 644 357 l 547 618 q 500 760 525 674 q 492 783 496 772 q 486 800 489 793 l 479 800 l 465 757 l 418 618 l 321 357 l 644 357 m 488 1025 q 325 1078 378 1025 q 272 1206 272 1132 l 382 1206 q 413 1157 388 1178 q 488 1136 438 1136 q 564 1158 538 1136 q 594 1206 590 1179 l 704 1206 q 651 1078 704 1132 q 488 1025 597 1025 m 406 -240 l 406 -76 l 569 -76 l 569 -240 l 406 -240 z "},"Ằ":{"ha":976,"x_min":6,"x_max":971,"o":"m 6 0 m 6 0 l 376 953 l 600 953 l 971 0 l 779 0 l 701 207 l 265 207 l 189 0 l 6 0 m 644 357 l 547 618 q 500 760 525 674 q 492 783 496 772 q 486 800 489 793 l 479 800 l 465 757 l 418 618 l 321 357 l 644 357 m 488 1025 q 325 1078 378 1025 q 272 1206 272 1132 l 382 1206 q 413 1157 388 1178 q 488 1136 438 1136 q 564 1158 538 1136 q 594 1206 590 1179 l 704 1206 q 651 1078 704 1132 q 488 1025 597 1025 m 419 1206 l 269 1385 l 271 1389 l 438 1389 l 551 1206 l 419 1206 z "},"Ẳ":{"ha":976,"x_min":6,"x_max":971,"o":"m 6 0 m 6 0 l 376 953 l 600 953 l 971 0 l 779 0 l 701 207 l 265 207 l 189 0 l 6 0 m 644 357 l 547 618 q 500 760 525 674 q 492 783 496 772 q 486 800 489 793 l 479 800 l 465 757 l 418 618 l 321 357 l 644 357 m 488 1025 q 325 1078 378 1025 q 272 1206 272 1132 l 382 1206 q 413 1157 388 1178 q 488 1136 438 1136 q 564 1158 538 1136 q 594 1206 590 1179 l 704 1206 q 651 1078 704 1132 q 488 1025 597 1025 m 444 1283 l 464 1283 q 497 1290 488 1283 q 507 1310 507 1296 q 495 1331 507 1325 q 460 1336 483 1336 l 379 1336 l 379 1394 q 489 1406 431 1406 q 594 1387 549 1406 q 639 1321 639 1368 q 609 1264 639 1283 q 533 1242 579 1244 l 533 1206 l 444 1206 l 444 1283 z "},"Ẵ":{"ha":976,"x_min":6,"x_max":971,"o":"m 6 0 m 6 0 l 376 953 l 600 953 l 971 0 l 779 0 l 701 207 l 265 207 l 189 0 l 6 0 m 644 357 l 547 618 q 500 760 525 674 q 492 783 496 772 q 486 800 489 793 l 479 800 l 465 757 l 418 618 l 321 357 l 644 357 m 488 1025 q 325 1078 378 1025 q 272 1206 272 1132 l 382 1206 q 413 1157 388 1178 q 488 1136 438 1136 q 564 1158 538 1136 q 594 1206 590 1179 l 704 1206 q 651 1078 704 1132 q 488 1025 597 1025 m 260 1267 q 292 1383 260 1338 q 390 1428 325 1428 q 438 1422 414 1428 q 492 1403 461 1415 q 582 1379 547 1379 q 628 1428 622 1379 l 722 1428 q 690 1312 722 1357 q 592 1267 657 1267 q 546 1273 568 1267 q 492 1292 524 1279 q 442 1309 463 1303 q 400 1315 422 1315 q 356 1267 361 1315 l 260 1267 z "},"Ǎ":{"ha":976,"x_min":6,"x_max":971,"o":"m 6 0 m 6 0 l 376 953 l 600 953 l 971 0 l 779 0 l 701 207 l 265 207 l 189 0 l 6 0 m 644 357 l 547 618 q 500 760 525 674 q 492 783 496 772 q 486 800 489 793 l 479 800 l 465 757 l 418 618 l 321 357 l 644 357 m 414 1018 l 267 1206 l 410 1206 l 489 1106 l 567 1206 l 710 1206 l 564 1018 l 414 1018 z "},"Â":{"ha":976,"x_min":6,"x_max":971,"o":"m 6 0 m 6 0 l 376 953 l 600 953 l 971 0 l 779 0 l 701 207 l 265 207 l 189 0 l 6 0 m 644 357 l 547 618 q 500 760 525 674 q 492 783 496 772 q 486 800 489 793 l 479 800 l 465 757 l 418 618 l 321 357 l 644 357 m 267 1018 l 414 1206 l 564 1206 l 710 1018 l 567 1018 l 489 1118 l 410 1018 l 267 1018 z "},"Ấ":{"ha":976,"x_min":6,"x_max":971,"o":"m 6 0 m 6 0 l 376 953 l 600 953 l 971 0 l 779 0 l 701 207 l 265 207 l 189 0 l 6 0 m 644 357 l 547 618 q 500 760 525 674 q 492 783 496 772 q 486 800 489 793 l 479 800 l 465 757 l 418 618 l 321 357 l 644 357 m 267 1018 l 414 1206 l 564 1206 l 710 1018 l 567 1018 l 489 1118 l 410 1018 l 267 1018 m 619 1154 l 732 1338 l 900 1338 l 901 1333 l 751 1154 l 619 1154 z "},"Ậ":{"ha":976,"x_min":6,"x_max":971,"o":"m 6 0 m 6 0 l 376 953 l 600 953 l 971 0 l 779 0 l 701 207 l 265 207 l 189 0 l 6 0 m 644 357 l 547 618 q 500 760 525 674 q 492 783 496 772 q 486 800 489 793 l 479 800 l 465 757 l 418 618 l 321 357 l 644 357 m 267 1018 l 414 1206 l 564 1206 l 710 1018 l 567 1018 l 489 1118 l 410 1018 l 267 1018 m 406 -240 l 406 -76 l 569 -76 l 569 -240 l 406 -240 z "},"Ầ":{"ha":976,"x_min":6,"x_max":971,"o":"m 6 0 m 6 0 l 376 953 l 600 953 l 971 0 l 779 0 l 701 207 l 265 207 l 189 0 l 6 0 m 644 357 l 547 618 q 500 760 525 674 q 492 783 496 772 q 486 800 489 793 l 479 800 l 465 757 l 418 618 l 321 357 l 644 357 m 267 1018 l 414 1206 l 564 1206 l 710 1018 l 567 1018 l 489 1118 l 410 1018 l 267 1018 m 675 1154 l 525 1333 l 526 1338 l 693 1338 l 807 1154 l 675 1154 z "},"Ẩ":{"ha":976,"x_min":6,"x_max":971,"o":"m 6 0 m 6 0 l 376 953 l 600 953 l 971 0 l 779 0 l 701 207 l 265 207 l 189 0 l 6 0 m 644 357 l 547 618 q 500 760 525 674 q 492 783 496 772 q 486 800 489 793 l 479 800 l 465 757 l 418 618 l 321 357 l 644 357 m 267 1018 l 414 1206 l 564 1206 l 710 1018 l 567 1018 l 489 1118 l 410 1018 l 267 1018 m 642 1232 l 661 1232 q 694 1238 685 1232 q 704 1258 704 1244 q 692 1279 704 1274 q 657 1285 681 1285 l 576 1285 l 576 1343 q 686 1354 628 1354 q 791 1335 746 1354 q 836 1269 836 1317 q 806 1213 836 1232 q 731 1190 776 1193 l 731 1154 l 642 1154 l 642 1232 z "},"Ẫ":{"ha":976,"x_min":6,"x_max":971,"o":"m 6 0 m 6 0 l 376 953 l 600 953 l 971 0 l 779 0 l 701 207 l 265 207 l 189 0 l 6 0 m 644 357 l 547 618 q 500 760 525 674 q 492 783 496 772 q 486 800 489 793 l 479 800 l 465 757 l 418 618 l 321 357 l 644 357 m 267 1018 l 414 1206 l 564 1206 l 710 1018 l 567 1018 l 489 1118 l 410 1018 l 267 1018 m 260 1267 q 292 1383 260 1338 q 390 1428 325 1428 q 438 1422 414 1428 q 492 1403 461 1415 q 582 1379 547 1379 q 628 1428 622 1379 l 722 1428 q 690 1312 722 1357 q 592 1267 657 1267 q 546 1273 568 1267 q 492 1292 524 1279 q 442 1309 463 1303 q 400 1315 422 1315 q 356 1267 361 1315 l 260 1267 z "},"Ȁ":{"ha":976,"x_min":6,"x_max":971,"o":"m 6 0 m 6 0 l 376 953 l 600 953 l 971 0 l 779 0 l 701 207 l 265 207 l 189 0 l 6 0 m 644 357 l 547 618 q 500 760 525 674 q 492 783 496 772 q 486 800 489 793 l 479 800 l 465 757 l 418 618 l 321 357 l 644 357 m 336 1022 l 197 1201 l 199 1206 l 365 1206 l 468 1022 l 336 1022 m 561 1022 l 422 1201 l 424 1206 l 592 1206 l 693 1022 l 561 1022 z "},"Ä":{"ha":976,"x_min":6,"x_max":971,"o":"m 6 0 m 6 0 l 376 953 l 600 953 l 971 0 l 779 0 l 701 207 l 265 207 l 189 0 l 6 0 m 644 357 l 547 618 q 500 760 525 674 q 492 783 496 772 q 486 800 489 793 l 479 800 l 465 757 l 418 618 l 321 357 l 644 357 m 275 1053 l 275 1206 l 424 1206 l 424 1053 l 275 1053 m 556 1053 l 556 1206 l 706 1206 l 706 1053 l 556 1053 z "},"Ạ":{"ha":976,"x_min":6,"x_max":971,"o":"m 6 0 m 6 0 l 376 953 l 600 953 l 971 0 l 779 0 l 701 207 l 265 207 l 189 0 l 6 0 m 644 357 l 547 618 q 500 760 525 674 q 492 783 496 772 q 486 800 489 793 l 479 800 l 465 757 l 418 618 l 321 357 l 644 357 m 406 -240 l 406 -76 l 569 -76 l 569 -240 l 406 -240 z "},"À":{"ha":976,"x_min":6,"x_max":971,"o":"m 6 0 m 6 0 l 376 953 l 600 953 l 971 0 l 779 0 l 701 207 l 265 207 l 189 0 l 6 0 m 644 357 l 547 618 q 500 760 525 674 q 492 783 496 772 q 486 800 489 793 l 479 800 l 465 757 l 418 618 l 321 357 l 644 357 m 422 1022 l 272 1201 l 274 1206 l 440 1206 l 554 1022 l 422 1022 z "},"Ả":{"ha":976,"x_min":6,"x_max":971,"o":"m 6 0 m 6 0 l 376 953 l 600 953 l 971 0 l 779 0 l 701 207 l 265 207 l 189 0 l 6 0 m 644 357 l 547 618 q 500 760 525 674 q 492 783 496 772 q 486 800 489 793 l 479 800 l 465 757 l 418 618 l 321 357 l 644 357 m 444 1100 l 464 1100 q 497 1106 488 1100 q 507 1126 507 1113 q 495 1147 507 1142 q 460 1153 483 1153 l 379 1153 l 379 1211 q 489 1222 431 1222 q 594 1203 549 1222 q 639 1138 639 1185 q 609 1081 639 1100 q 533 1058 579 1061 l 533 1022 l 444 1022 l 444 1100 z "},"Ȃ":{"ha":976,"x_min":6,"x_max":971,"o":"m 6 0 m 6 0 l 376 953 l 600 953 l 971 0 l 779 0 l 701 207 l 265 207 l 189 0 l 6 0 m 644 357 l 547 618 q 500 760 525 674 q 492 783 496 772 q 486 800 489 793 l 479 800 l 465 757 l 418 618 l 321 357 l 644 357 m 272 1025 q 325 1152 272 1099 q 488 1206 378 1206 q 651 1152 597 1206 q 704 1025 704 1099 l 594 1025 q 564 1073 590 1051 q 488 1094 538 1094 q 413 1074 438 1094 q 382 1025 388 1053 l 272 1025 z "},"Ā":{"ha":976,"x_min":6,"x_max":971,"o":"m 6 0 m 6 0 l 376 953 l 600 953 l 971 0 l 779 0 l 701 207 l 265 207 l 189 0 l 6 0 m 644 357 l 547 618 q 500 760 525 674 q 492 783 496 772 q 486 800 489 793 l 479 800 l 465 757 l 418 618 l 321 357 l 644 357 m 276 1058 l 276 1172 l 700 1172 l 700 1058 l 276 1058 z "},"Ą":{"ha":976,"x_min":6,"x_max":972,"o":"m 867 -253 q 759 -224 801 -253 q 717 -129 717 -194 q 733 -58 717 -89 q 779 0 750 -28 l 701 207 l 265 207 l 189 0 l 6 0 l 376 953 l 600 953 l 971 0 l 892 0 q 849 -90 849 -46 q 924 -158 849 -158 l 972 -158 l 972 -233 q 867 -253 917 -253 m 644 357 l 547 618 q 500 760 525 674 q 492 783 496 772 q 486 800 489 793 l 479 800 l 465 757 l 418 618 l 321 357 l 644 357 z "},"Å":{"ha":976,"x_min":6,"x_max":971,"o":"m 6 0 m 6 0 l 376 953 l 600 953 l 971 0 l 779 0 l 701 207 l 265 207 l 189 0 l 6 0 m 644 357 l 547 618 q 500 760 525 674 q 492 783 496 772 q 486 800 489 793 l 479 800 l 465 757 l 418 618 l 321 357 l 644 357 m 489 978 q 389 1017 426 978 q 351 1117 351 1057 q 389 1215 351 1176 q 489 1254 426 1254 q 589 1215 551 1254 q 626 1117 626 1176 q 589 1017 626 1057 q 489 978 551 978 m 489 1051 q 535 1070 517 1051 q 553 1117 553 1089 q 535 1163 553 1144 q 489 1181 517 1181 q 442 1163 460 1181 q 425 1117 425 1144 q 442 1070 425 1089 q 489 1051 460 1051 z "},"Ǻ":{"ha":976,"x_min":6,"x_max":971,"o":"m 417 1196 l 529 1379 l 697 1379 l 699 1375 l 549 1196 l 417 1196 m 374 946 q 350 1022 350 978 q 388 1122 350 1082 q 488 1161 425 1161 q 588 1122 550 1161 q 626 1022 626 1082 q 603 946 626 982 l 971 0 l 779 0 l 701 207 l 265 207 l 189 0 l 6 0 l 374 946 m 489 957 q 535 976 517 957 q 553 1022 553 994 q 535 1069 553 1050 q 488 1088 517 1088 q 441 1069 458 1088 q 424 1022 424 1051 q 442 976 424 994 q 489 957 460 957 m 644 357 l 547 618 q 500 760 525 674 q 492 783 496 772 q 486 800 489 793 l 479 800 l 465 757 l 418 618 l 321 357 l 644 357 z "},"Ã":{"ha":976,"x_min":6,"x_max":971,"o":"m 6 0 m 6 0 l 376 953 l 600 953 l 971 0 l 779 0 l 701 207 l 265 207 l 189 0 l 6 0 m 644 357 l 547 618 q 500 760 525 674 q 492 783 496 772 q 486 800 489 793 l 479 800 l 465 757 l 418 618 l 321 357 l 644 357 m 257 1044 q 290 1160 257 1115 q 388 1206 322 1206 q 435 1199 411 1206 q 489 1181 458 1193 q 579 1157 544 1157 q 625 1206 619 1157 l 719 1206 q 687 1090 719 1135 q 589 1044 654 1044 q 543 1051 565 1044 q 489 1069 521 1057 q 440 1087 460 1081 q 397 1093 419 1093 q 353 1044 358 1093 l 257 1044 z "},"Æ":{"ha":1389,"x_min":-6,"x_max":1313,"o":"m -6 0 l 463 953 l 1304 953 l 1304 801 l 739 801 l 804 563 l 1243 563 l 1243 411 l 846 411 l 915 151 l 1313 151 l 1313 0 l 776 0 l 721 207 l 275 207 l 176 0 l -6 0 m 346 357 l 682 357 l 564 801 l 557 801 l 346 357 z "},"Ǽ":{"ha":1389,"x_min":-6,"x_max":1313,"o":"m 0 0 m -6 0 l 463 953 l 1304 953 l 1304 801 l 739 801 l 804 563 l 1243 563 l 1243 411 l 846 411 l 915 151 l 1313 151 l 1313 0 l 776 0 l 721 207 l 275 207 l 176 0 l -6 0 m 346 357 l 682 357 l 564 801 l 557 801 l 346 357 m 628 1022 l 740 1206 l 908 1206 l 910 1201 l 760 1022 l 628 1022 z "},"B":{"ha":976,"x_min":99,"x_max":907,"o":"m 99 953 l 615 953 q 752 924 692 953 q 847 841 813 894 q 881 718 881 788 q 837 581 881 639 q 725 500 793 522 l 725 494 q 856 415 806 478 q 907 263 907 353 q 826 67 907 133 q 615 0 744 0 l 99 0 l 99 953 m 568 563 q 664 596 629 563 q 699 681 699 629 q 667 771 699 740 q 579 801 635 801 l 276 801 l 276 563 l 568 563 m 592 151 q 689 184 653 151 q 725 282 725 217 q 689 379 725 344 q 582 414 653 414 l 276 414 l 276 151 l 592 151 z "},"C":{"ha":1003,"x_min":61,"x_max":943,"o":"m 522 -17 q 179 104 297 -17 q 61 476 61 225 q 181 847 61 724 q 522 969 300 969 q 739 928 644 969 q 888 805 833 888 q 943 601 943 722 l 761 601 q 697 763 761 706 q 525 819 632 819 q 313 738 382 819 q 243 490 243 656 l 243 463 q 312 215 243 296 q 525 133 381 133 q 703 190 638 133 q 768 349 768 246 l 943 349 q 827 76 943 169 q 522 -17 711 -17 z "},"Ć":{"ha":1003,"x_min":61,"x_max":943,"o":"m 61 0 m 522 -17 q 179 104 297 -17 q 61 476 61 225 q 181 847 61 724 q 522 969 300 969 q 739 928 644 969 q 888 805 833 888 q 943 601 943 722 l 761 601 q 697 763 761 706 q 525 819 632 819 q 313 738 382 819 q 243 490 243 656 l 243 463 q 312 215 243 296 q 525 133 381 133 q 703 190 638 133 q 768 349 768 246 l 943 349 q 827 76 943 169 q 522 -17 711 -17 m 435 1022 l 547 1206 l 715 1206 l 717 1201 l 567 1022 l 435 1022 z "},"Č":{"ha":1003,"x_min":61,"x_max":943,"o":"m 61 0 m 522 -17 q 179 104 297 -17 q 61 476 61 225 q 181 847 61 724 q 522 969 300 969 q 739 928 644 969 q 888 805 833 888 q 943 601 943 722 l 761 601 q 697 763 761 706 q 525 819 632 819 q 313 738 382 819 q 243 490 243 656 l 243 463 q 312 215 243 296 q 525 133 381 133 q 703 190 638 133 q 768 349 768 246 l 943 349 q 827 76 943 169 q 522 -17 711 -17 m 426 1018 l 279 1206 l 422 1206 l 501 1106 l 579 1206 l 722 1206 l 576 1018 l 426 1018 z "},"Ç":{"ha":1003,"x_min":61,"x_max":943,"o":"m 525 133 q 703 190 638 133 q 768 349 768 246 l 943 349 q 841 88 943 181 q 568 -15 739 -4 l 563 -47 q 659 -73 622 -50 q 696 -140 696 -96 q 641 -228 696 -203 q 515 -253 586 -253 q 376 -242 440 -253 l 376 -174 l 504 -174 q 549 -167 535 -174 q 564 -140 564 -160 q 551 -115 564 -122 q 507 -107 539 -107 l 446 -107 l 460 -14 q 61 476 61 19 q 181 847 61 724 q 522 969 300 969 q 739 928 644 969 q 888 805 833 888 q 943 601 943 722 l 761 601 q 697 763 761 706 q 525 819 632 819 q 313 738 382 819 q 243 490 243 656 l 243 463 q 312 215 243 296 q 525 133 381 133 z "},"Ĉ":{"ha":1003,"x_min":61,"x_max":943,"o":"m 61 0 m 522 -17 q 179 104 297 -17 q 61 476 61 225 q 181 847 61 724 q 522 969 300 969 q 739 928 644 969 q 888 805 833 888 q 943 601 943 722 l 761 601 q 697 763 761 706 q 525 819 632 819 q 313 738 382 819 q 243 490 243 656 l 243 463 q 312 215 243 296 q 525 133 381 133 q 703 190 638 133 q 768 349 768 246 l 943 349 q 827 76 943 169 q 522 -17 711 -17 m 279 1018 l 426 1206 l 576 1206 l 722 1018 l 579 1018 l 501 1118 l 422 1018 l 279 1018 z "},"Ċ":{"ha":1003,"x_min":61,"x_max":943,"o":"m 61 0 m 522 -17 q 179 104 297 -17 q 61 476 61 225 q 181 847 61 724 q 522 969 300 969 q 739 928 644 969 q 888 805 833 888 q 943 601 943 722 l 761 601 q 697 763 761 706 q 525 819 632 819 q 313 738 382 819 q 243 490 243 656 l 243 463 q 312 215 243 296 q 525 133 381 133 q 703 190 638 133 q 768 349 768 246 l 943 349 q 827 76 943 169 q 522 -17 711 -17 m 418 1043 l 418 1207 l 582 1207 l 582 1043 l 418 1043 z "},"D":{"ha":1003,"x_min":99,"x_max":942,"o":"m 99 953 l 479 953 q 821 834 700 953 q 942 476 942 715 q 821 119 942 238 q 479 0 700 0 l 99 0 l 99 953 m 479 151 q 687 229 615 151 q 760 463 758 307 l 760 490 q 688 723 760 644 q 479 801 615 801 l 276 801 l 276 151 l 479 151 z "},"Ǳ":{"ha":1851,"x_min":99,"x_max":1818,"o":"m 99 0 m 99 953 l 479 953 q 821 834 700 953 q 942 476 942 715 q 821 119 942 238 q 479 0 700 0 l 99 0 l 99 953 m 479 151 q 687 229 615 151 q 760 463 758 307 l 760 490 q 688 723 760 644 q 479 801 615 801 l 276 801 l 276 151 l 479 151 m 1029 0 l 1029 85 l 1543 801 l 1065 801 l 1065 953 l 1806 953 l 1806 867 l 1293 151 l 1818 151 l 1818 0 l 1029 0 z "},"Ǆ":{"ha":1851,"x_min":99,"x_max":1818,"o":"m 99 0 m 99 953 l 479 953 q 821 834 700 953 q 942 476 942 715 q 821 119 942 238 q 479 0 700 0 l 99 0 l 99 953 m 479 151 q 687 229 615 151 q 760 463 758 307 l 760 490 q 688 723 760 644 q 479 801 615 801 l 276 801 l 276 151 l 479 151 m 1029 0 l 1029 85 l 1543 801 l 1065 801 l 1065 953 l 1806 953 l 1806 867 l 1293 151 l 1818 151 l 1818 0 l 1029 0 m 1353 1018 l 1206 1206 l 1349 1206 l 1428 1106 l 1506 1206 l 1649 1206 l 1503 1018 l 1353 1018 z "},"Ð":{"ha":1003,"x_min":6,"x_max":942,"o":"m 479 953 q 821 834 700 953 q 942 476 942 715 q 821 119 942 238 q 479 0 700 0 l 99 0 l 99 439 l 6 439 l 6 547 l 99 547 l 99 953 l 479 953 m 760 490 q 688 723 760 644 q 479 801 615 801 l 276 801 l 276 547 l 486 547 l 486 439 l 276 439 l 276 151 l 479 151 q 687 229 615 151 q 760 463 758 307 l 760 490 z "},"Ď":{"ha":1003,"x_min":99,"x_max":942,"o":"m 99 0 m 99 953 l 479 953 q 821 834 700 953 q 942 476 942 715 q 821 119 942 238 q 479 0 700 0 l 99 0 l 99 953 m 479 151 q 687 229 615 151 q 760 463 758 307 l 760 490 q 688 723 760 644 q 479 801 615 801 l 276 801 l 276 151 l 479 151 m 426 1018 l 279 1206 l 422 1206 l 501 1106 l 579 1206 l 722 1206 l 576 1018 l 426 1018 z "},"Đ":{"ha":1003,"x_min":6,"x_max":942,"o":"m 6 0 m 479 953 q 821 834 700 953 q 942 476 942 715 q 821 119 942 238 q 479 0 700 0 l 99 0 l 99 439 l 6 439 l 6 547 l 99 547 l 99 953 l 479 953 m 760 490 q 688 723 760 644 q 479 801 615 801 l 276 801 l 276 547 l 486 547 l 486 439 l 276 439 l 276 151 l 479 151 q 687 229 615 151 q 760 463 758 307 l 760 490 z "},"Ḍ":{"ha":1003,"x_min":99,"x_max":942,"o":"m 99 0 m 99 953 l 479 953 q 821 834 700 953 q 942 476 942 715 q 821 119 942 238 q 479 0 700 0 l 99 0 l 99 953 m 479 151 q 687 229 615 151 q 760 463 758 307 l 760 490 q 688 723 760 644 q 479 801 615 801 l 276 801 l 276 151 l 479 151 m 418 -240 l 418 -76 l 582 -76 l 582 -240 l 418 -240 z "},"ǲ":{"ha":1697,"x_min":99,"x_max":1665,"o":"m 99 0 m 99 953 l 479 953 q 821 834 700 953 q 942 476 942 715 q 821 119 942 238 q 479 0 700 0 l 99 0 l 99 953 m 479 151 q 687 229 615 151 q 760 463 758 307 l 760 490 q 688 723 760 644 q 479 801 615 801 l 276 801 l 276 151 l 479 151 m 1033 0 l 1033 78 l 1406 594 l 1057 594 l 1057 731 l 1649 731 l 1649 654 l 1275 136 l 1665 136 l 1665 0 l 1033 0 z "},"ǅ":{"ha":1697,"x_min":99,"x_max":1665,"o":"m 99 0 m 99 953 l 479 953 q 821 834 700 953 q 942 476 942 715 q 821 119 942 238 q 479 0 700 0 l 99 0 l 99 953 m 479 151 q 687 229 615 151 q 760 463 758 307 l 760 490 q 688 723 760 644 q 479 801 615 801 l 276 801 l 276 151 l 479 151 m 1033 0 l 1033 78 l 1406 594 l 1057 594 l 1057 731 l 1649 731 l 1649 654 l 1275 136 l 1665 136 l 1665 0 l 1033 0 m 1275 817 l 1128 1004 l 1271 1004 l 1350 904 l 1428 1004 l 1571 1004 l 1425 817 l 1275 817 z "},"E":{"ha":926,"x_min":99,"x_max":850,"o":"m 99 0 l 99 953 l 842 953 l 842 801 l 276 801 l 276 563 l 781 563 l 781 411 l 276 411 l 276 151 l 850 151 l 850 0 l 99 0 z "},"É":{"ha":926,"x_min":99,"x_max":850,"o":"m 99 0 m 99 0 l 99 953 l 842 953 l 842 801 l 276 801 l 276 563 l 781 563 l 781 411 l 276 411 l 276 151 l 850 151 l 850 0 l 99 0 m 397 1022 l 510 1206 l 678 1206 l 679 1201 l 529 1022 l 397 1022 z "},"Ĕ":{"ha":926,"x_min":99,"x_max":850,"o":"m 99 0 m 99 0 l 99 953 l 842 953 l 842 801 l 276 801 l 276 563 l 781 563 l 781 411 l 276 411 l 276 151 l 850 151 l 850 0 l 99 0 m 463 1025 q 300 1078 353 1025 q 247 1206 247 1132 l 357 1206 q 388 1157 363 1178 q 463 1136 413 1136 q 539 1158 513 1136 q 569 1206 565 1179 l 679 1206 q 626 1078 679 1132 q 463 1025 572 1025 z "},"Ě":{"ha":926,"x_min":99,"x_max":850,"o":"m 99 0 m 99 0 l 99 953 l 842 953 l 842 801 l 276 801 l 276 563 l 781 563 l 781 411 l 276 411 l 276 151 l 850 151 l 850 0 l 99 0 m 389 1018 l 242 1206 l 385 1206 l 464 1106 l 542 1206 l 685 1206 l 539 1018 l 389 1018 z "},"Ê":{"ha":926,"x_min":99,"x_max":850,"o":"m 99 0 m 99 0 l 99 953 l 842 953 l 842 801 l 276 801 l 276 563 l 781 563 l 781 411 l 276 411 l 276 151 l 850 151 l 850 0 l 99 0 m 242 1018 l 389 1206 l 539 1206 l 685 1018 l 542 1018 l 464 1118 l 385 1018 l 242 1018 z "},"Ế":{"ha":926,"x_min":99,"x_max":876,"o":"m 99 0 m 99 0 l 99 953 l 842 953 l 842 801 l 276 801 l 276 563 l 781 563 l 781 411 l 276 411 l 276 151 l 850 151 l 850 0 l 99 0 m 242 1018 l 389 1206 l 539 1206 l 685 1018 l 542 1018 l 464 1118 l 385 1018 l 242 1018 m 594 1154 l 707 1338 l 875 1338 l 876 1333 l 726 1154 l 594 1154 z "},"Ệ":{"ha":926,"x_min":99,"x_max":850,"o":"m 99 0 m 99 0 l 99 953 l 842 953 l 842 801 l 276 801 l 276 563 l 781 563 l 781 411 l 276 411 l 276 151 l 850 151 l 850 0 l 99 0 m 242 1018 l 389 1206 l 539 1206 l 685 1018 l 542 1018 l 464 1118 l 385 1018 l 242 1018 m 381 -240 l 381 -76 l 544 -76 l 544 -240 l 381 -240 z "},"Ề":{"ha":926,"x_min":99,"x_max":850,"o":"m 99 0 m 99 0 l 99 953 l 842 953 l 842 801 l 276 801 l 276 563 l 781 563 l 781 411 l 276 411 l 276 151 l 850 151 l 850 0 l 99 0 m 242 1018 l 389 1206 l 539 1206 l 685 1018 l 542 1018 l 464 1118 l 385 1018 l 242 1018 m 650 1154 l 500 1333 l 501 1338 l 668 1338 l 782 1154 l 650 1154 z "},"Ể":{"ha":926,"x_min":99,"x_max":850,"o":"m 99 0 m 99 0 l 99 953 l 842 953 l 842 801 l 276 801 l 276 563 l 781 563 l 781 411 l 276 411 l 276 151 l 850 151 l 850 0 l 99 0 m 242 1018 l 389 1206 l 539 1206 l 685 1018 l 542 1018 l 464 1118 l 385 1018 l 242 1018 m 617 1232 l 636 1232 q 669 1238 660 1232 q 679 1258 679 1244 q 667 1279 679 1274 q 632 1285 656 1285 l 551 1285 l 551 1343 q 661 1354 603 1354 q 766 1335 721 1354 q 811 1269 811 1317 q 781 1213 811 1232 q 706 1190 751 1193 l 706 1154 l 617 1154 l 617 1232 z "},"Ễ":{"ha":926,"x_min":99,"x_max":850,"o":"m 99 0 m 99 0 l 99 953 l 842 953 l 842 801 l 276 801 l 276 563 l 781 563 l 781 411 l 276 411 l 276 151 l 850 151 l 850 0 l 99 0 m 242 1018 l 389 1206 l 539 1206 l 685 1018 l 542 1018 l 464 1118 l 385 1018 l 242 1018 m 235 1267 q 267 1383 235 1338 q 365 1428 300 1428 q 413 1422 389 1428 q 467 1403 436 1415 q 557 1379 522 1379 q 603 1428 597 1379 l 697 1428 q 665 1312 697 1357 q 567 1267 632 1267 q 521 1273 543 1267 q 467 1292 499 1279 q 417 1309 438 1303 q 375 1315 397 1315 q 331 1267 336 1315 l 235 1267 z "},"Ȅ":{"ha":926,"x_min":99,"x_max":850,"o":"m 99 0 m 99 0 l 99 953 l 842 953 l 842 801 l 276 801 l 276 563 l 781 563 l 781 411 l 276 411 l 276 151 l 850 151 l 850 0 l 99 0 m 311 1022 l 172 1201 l 174 1206 l 340 1206 l 443 1022 l 311 1022 m 536 1022 l 397 1201 l 399 1206 l 567 1206 l 668 1022 l 536 1022 z "},"Ë":{"ha":926,"x_min":99,"x_max":850,"o":"m 99 0 m 99 0 l 99 953 l 842 953 l 842 801 l 276 801 l 276 563 l 781 563 l 781 411 l 276 411 l 276 151 l 850 151 l 850 0 l 99 0 m 250 1053 l 250 1206 l 399 1206 l 399 1053 l 250 1053 m 531 1053 l 531 1206 l 681 1206 l 681 1053 l 531 1053 z "},"Ė":{"ha":926,"x_min":99,"x_max":850,"o":"m 99 0 m 99 0 l 99 953 l 842 953 l 842 801 l 276 801 l 276 563 l 781 563 l 781 411 l 276 411 l 276 151 l 850 151 l 850 0 l 99 0 m 381 1043 l 381 1207 l 544 1207 l 544 1043 l 381 1043 z "},"Ẹ":{"ha":926,"x_min":99,"x_max":850,"o":"m 99 0 m 99 0 l 99 953 l 842 953 l 842 801 l 276 801 l 276 563 l 781 563 l 781 411 l 276 411 l 276 151 l 850 151 l 850 0 l 99 0 m 381 -240 l 381 -76 l 544 -76 l 544 -240 l 381 -240 z "},"È":{"ha":926,"x_min":99,"x_max":850,"o":"m 99 0 m 99 0 l 99 953 l 842 953 l 842 801 l 276 801 l 276 563 l 781 563 l 781 411 l 276 411 l 276 151 l 850 151 l 850 0 l 99 0 m 397 1022 l 247 1201 l 249 1206 l 415 1206 l 529 1022 l 397 1022 z "},"Ẻ":{"ha":926,"x_min":99,"x_max":850,"o":"m 99 0 m 99 0 l 99 953 l 842 953 l 842 801 l 276 801 l 276 563 l 781 563 l 781 411 l 276 411 l 276 151 l 850 151 l 850 0 l 99 0 m 419 1100 l 439 1100 q 472 1106 463 1100 q 482 1126 482 1113 q 470 1147 482 1142 q 435 1153 458 1153 l 354 1153 l 354 1211 q 464 1222 406 1222 q 569 1203 524 1222 q 614 1138 614 1185 q 584 1081 614 1100 q 508 1058 554 1061 l 508 1022 l 419 1022 l 419 1100 z "},"Ȇ":{"ha":926,"x_min":99,"x_max":850,"o":"m 99 0 m 99 0 l 99 953 l 842 953 l 842 801 l 276 801 l 276 563 l 781 563 l 781 411 l 276 411 l 276 151 l 850 151 l 850 0 l 99 0 m 247 1025 q 300 1152 247 1099 q 463 1206 353 1206 q 626 1152 572 1206 q 679 1025 679 1099 l 569 1025 q 539 1073 565 1051 q 463 1094 513 1094 q 388 1074 413 1094 q 357 1025 363 1053 l 247 1025 z "},"Ē":{"ha":926,"x_min":99,"x_max":850,"o":"m 99 0 m 99 0 l 99 953 l 842 953 l 842 801 l 276 801 l 276 563 l 781 563 l 781 411 l 276 411 l 276 151 l 850 151 l 850 0 l 99 0 m 251 1058 l 251 1172 l 675 1172 l 675 1058 l 251 1058 z "},"Ę":{"ha":926,"x_min":99,"x_max":850,"o":"m 754 -253 q 654 -225 697 -253 q 611 -136 611 -197 q 637 -59 611 -92 q 708 0 663 -26 l 99 0 l 99 953 l 842 953 l 842 801 l 276 801 l 276 563 l 781 563 l 781 411 l 276 411 l 276 151 l 850 151 l 850 0 q 777 -41 810 -11 q 744 -101 744 -71 q 762 -142 744 -125 q 814 -158 779 -158 l 850 -158 l 850 -233 q 754 -253 799 -253 z "},"Ẽ":{"ha":926,"x_min":99,"x_max":850,"o":"m 99 0 m 99 0 l 99 953 l 842 953 l 842 801 l 276 801 l 276 563 l 781 563 l 781 411 l 276 411 l 276 151 l 850 151 l 850 0 l 99 0 m 232 1044 q 265 1160 232 1115 q 363 1206 297 1206 q 410 1199 386 1206 q 464 1181 433 1193 q 554 1157 519 1157 q 600 1206 594 1157 l 694 1206 q 662 1090 694 1135 q 564 1044 629 1044 q 518 1051 540 1044 q 464 1069 496 1057 q 415 1087 435 1081 q 372 1093 394 1093 q 328 1044 333 1093 l 232 1044 z "},"F":{"ha":849,"x_min":99,"x_max":783,"o":"m 99 0 l 99 953 l 783 953 l 783 801 l 276 801 l 276 543 l 733 543 l 733 392 l 276 392 l 276 0 l 99 0 z "},"G":{"ha":1081,"x_min":61,"x_max":992,"o":"m 508 510 l 992 510 l 992 0 l 865 0 l 850 106 q 710 13 788 43 q 526 -17 632 -17 q 181 105 300 -17 q 61 476 61 226 q 187 847 61 724 q 547 969 313 969 q 773 931 672 969 q 933 817 874 893 q 992 628 992 740 l 808 628 q 735 769 808 718 q 551 819 661 819 q 319 738 396 819 q 243 490 243 656 l 243 463 q 316 213 244 292 q 535 133 388 133 q 740 193 665 133 q 814 361 814 253 l 814 363 l 508 363 l 508 510 z "},"Ǵ":{"ha":1081,"x_min":61,"x_max":992,"o":"m 61 0 m 508 510 l 992 510 l 992 0 l 865 0 l 850 106 q 710 13 788 43 q 526 -17 632 -17 q 181 105 300 -17 q 61 476 61 226 q 187 847 61 724 q 547 969 313 969 q 773 931 672 969 q 933 817 874 893 q 992 628 992 740 l 808 628 q 735 769 808 718 q 551 819 661 819 q 319 738 396 819 q 243 490 243 656 l 243 463 q 316 213 244 292 q 535 133 388 133 q 740 193 665 133 q 814 361 814 253 l 814 363 l 508 363 l 508 510 m 474 1022 l 586 1206 l 754 1206 l 756 1201 l 606 1022 l 474 1022 z "},"Ğ":{"ha":1081,"x_min":61,"x_max":992,"o":"m 61 0 m 508 510 l 992 510 l 992 0 l 865 0 l 850 106 q 710 13 788 43 q 526 -17 632 -17 q 181 105 300 -17 q 61 476 61 226 q 187 847 61 724 q 547 969 313 969 q 773 931 672 969 q 933 817 874 893 q 992 628 992 740 l 808 628 q 735 769 808 718 q 551 819 661 819 q 319 738 396 819 q 243 490 243 656 l 243 463 q 316 213 244 292 q 535 133 388 133 q 740 193 665 133 q 814 361 814 253 l 814 363 l 508 363 l 508 510 m 539 1025 q 376 1078 429 1025 q 324 1206 324 1132 l 433 1206 q 464 1157 439 1178 q 539 1136 489 1136 q 615 1158 589 1136 q 646 1206 642 1179 l 756 1206 q 702 1078 756 1132 q 539 1025 649 1025 z "},"Ǧ":{"ha":1081,"x_min":61,"x_max":992,"o":"m 61 0 m 508 510 l 992 510 l 992 0 l 865 0 l 850 106 q 710 13 788 43 q 526 -17 632 -17 q 181 105 300 -17 q 61 476 61 226 q 187 847 61 724 q 547 969 313 969 q 773 931 672 969 q 933 817 874 893 q 992 628 992 740 l 808 628 q 735 769 808 718 q 551 819 661 819 q 319 738 396 819 q 243 490 243 656 l 243 463 q 316 213 244 292 q 535 133 388 133 q 740 193 665 133 q 814 361 814 253 l 814 363 l 508 363 l 508 510 m 465 1018 l 318 1206 l 461 1206 l 540 1106 l 618 1206 l 761 1206 l 615 1018 l 465 1018 z "},"Ĝ":{"ha":1081,"x_min":61,"x_max":992,"o":"m 61 0 m 508 510 l 992 510 l 992 0 l 865 0 l 850 106 q 710 13 788 43 q 526 -17 632 -17 q 181 105 300 -17 q 61 476 61 226 q 187 847 61 724 q 547 969 313 969 q 773 931 672 969 q 933 817 874 893 q 992 628 992 740 l 808 628 q 735 769 808 718 q 551 819 661 819 q 319 738 396 819 q 243 490 243 656 l 243 463 q 316 213 244 292 q 535 133 388 133 q 740 193 665 133 q 814 361 814 253 l 814 363 l 508 363 l 508 510 m 318 1018 l 465 1206 l 615 1206 l 761 1018 l 618 1018 l 540 1118 l 461 1018 l 318 1018 z "},"Ģ":{"ha":1081,"x_min":61,"x_max":992,"o":"m 61 0 m 508 510 l 992 510 l 992 0 l 865 0 l 850 106 q 710 13 788 43 q 526 -17 632 -17 q 181 105 300 -17 q 61 476 61 226 q 187 847 61 724 q 547 969 313 969 q 773 931 672 969 q 933 817 874 893 q 992 628 992 740 l 808 628 q 735 769 808 718 q 551 819 661 819 q 319 738 396 819 q 243 490 243 656 l 243 463 q 316 213 244 292 q 535 133 388 133 q 740 193 665 133 q 814 361 814 253 l 814 363 l 508 363 l 508 510 m 460 -319 l 524 -197 l 457 -197 l 457 -64 l 624 -64 l 624 -183 l 546 -319 l 460 -319 z "},"Ġ":{"ha":1081,"x_min":61,"x_max":992,"o":"m 61 0 m 508 510 l 992 510 l 992 0 l 865 0 l 850 106 q 710 13 788 43 q 526 -17 632 -17 q 181 105 300 -17 q 61 476 61 226 q 187 847 61 724 q 547 969 313 969 q 773 931 672 969 q 933 817 874 893 q 992 628 992 740 l 808 628 q 735 769 808 718 q 551 819 661 819 q 319 738 396 819 q 243 490 243 656 l 243 463 q 316 213 244 292 q 535 133 388 133 q 740 193 665 133 q 814 361 814 253 l 814 363 l 508 363 l 508 510 m 457 1043 l 457 1207 l 621 1207 l 621 1043 l 457 1043 z "},"H":{"ha":1003,"x_min":99,"x_max":904,"o":"m 99 0 l 99 953 l 276 953 l 276 564 l 726 564 l 726 953 l 904 953 l 904 0 l 726 0 l 726 411 l 276 411 l 276 0 l 99 0 z "},"Ħ":{"ha":1003,"x_min":11,"x_max":992,"o":"m 99 0 l 99 714 l 11 714 l 11 831 l 99 831 l 99 953 l 276 953 l 276 831 l 726 831 l 726 953 l 904 953 l 904 831 l 992 831 l 992 714 l 904 714 l 904 0 l 726 0 l 726 411 l 276 411 l 276 0 l 99 0 m 276 564 l 726 564 l 726 714 l 276 714 l 276 564 z "},"Ĥ":{"ha":1003,"x_min":99,"x_max":904,"o":"m 99 0 m 99 0 l 99 953 l 276 953 l 276 564 l 726 564 l 726 953 l 904 953 l 904 0 l 726 0 l 726 411 l 276 411 l 276 0 l 99 0 m 279 1018 l 426 1206 l 576 1206 l 722 1018 l 579 1018 l 501 1118 l 422 1018 l 279 1018 z "},"Ḥ":{"ha":1003,"x_min":99,"x_max":904,"o":"m 99 0 m 99 0 l 99 953 l 276 953 l 276 564 l 726 564 l 726 953 l 904 953 l 904 0 l 726 0 l 726 411 l 276 411 l 276 0 l 99 0 m 418 -240 l 418 -76 l 582 -76 l 582 -240 l 418 -240 z "},"I":{"ha":386,"x_min":106,"x_max":282,"o":"m 106 0 l 106 953 l 282 953 l 282 0 l 106 0 z "},"Ĳ":{"ha":1132,"x_min":106,"x_max":1039,"o":"m 106 0 m 106 0 l 106 953 l 282 953 l 282 0 l 106 0 m 732 -17 q 503 55 583 -17 q 422 264 422 126 l 422 314 l 599 314 l 599 263 q 633 167 599 200 q 732 133 667 133 q 827 169 794 133 q 860 271 860 204 l 860 953 l 1039 953 l 1039 271 q 960 56 1039 129 q 732 -17 881 -17 z "},"Í":{"ha":386,"x_min":106,"x_max":408,"o":"m 106 0 m 106 0 l 106 953 l 282 953 l 282 0 l 106 0 m 126 1022 l 239 1206 l 407 1206 l 408 1201 l 258 1022 l 126 1022 z "},"Ĭ":{"ha":386,"x_min":-24,"x_max":408,"o":"m 0 0 m 106 0 l 106 953 l 282 953 l 282 0 l 106 0 m 192 1025 q 29 1078 82 1025 q -24 1206 -24 1132 l 86 1206 q 117 1157 92 1178 q 192 1136 142 1136 q 268 1158 242 1136 q 299 1206 294 1179 l 408 1206 q 355 1078 408 1132 q 192 1025 301 1025 z "},"Ǐ":{"ha":386,"x_min":-29,"x_max":414,"o":"m 0 0 m 106 0 l 106 953 l 282 953 l 282 0 l 106 0 m 118 1018 l -29 1206 l 114 1206 l 193 1106 l 271 1206 l 414 1206 l 268 1018 l 118 1018 z "},"Î":{"ha":386,"x_min":-29,"x_max":414,"o":"m 0 0 m 106 0 l 106 953 l 282 953 l 282 0 l 106 0 m -29 1018 l 118 1206 l 268 1206 l 414 1018 l 271 1018 l 193 1118 l 114 1018 l -29 1018 z "},"Ȉ":{"ha":386,"x_min":-99,"x_max":397,"o":"m 0 0 m 106 0 l 106 953 l 282 953 l 282 0 l 106 0 m 40 1022 l -99 1201 l -97 1206 l 69 1206 l 172 1022 l 40 1022 m 265 1022 l 126 1201 l 128 1206 l 296 1206 l 397 1022 l 265 1022 z "},"Ï":{"ha":386,"x_min":-21,"x_max":410,"o":"m 0 0 m 106 0 l 106 953 l 282 953 l 282 0 l 106 0 m -21 1053 l -21 1206 l 128 1206 l 128 1053 l -21 1053 m 260 1053 l 260 1206 l 410 1206 l 410 1053 l 260 1053 z "},"İ":{"ha":386,"x_min":106,"x_max":282,"o":"m 106 0 m 106 0 l 106 953 l 282 953 l 282 0 l 106 0 m 110 1043 l 110 1207 l 274 1207 l 274 1043 l 110 1043 z "},"Ị":{"ha":386,"x_min":106,"x_max":282,"o":"m 106 0 m 106 0 l 106 953 l 282 953 l 282 0 l 106 0 m 110 -240 l 110 -76 l 274 -76 l 274 -240 l 110 -240 z "},"Ì":{"ha":386,"x_min":-24,"x_max":282,"o":"m 0 0 m 106 0 l 106 953 l 282 953 l 282 0 l 106 0 m 126 1022 l -24 1201 l -22 1206 l 144 1206 l 258 1022 l 126 1022 z "},"Ỉ":{"ha":386,"x_min":83,"x_max":343,"o":"m 83 0 m 106 0 l 106 953 l 282 953 l 282 0 l 106 0 m 149 1100 l 168 1100 q 201 1106 192 1100 q 211 1126 211 1113 q 199 1147 211 1142 q 164 1153 188 1153 l 83 1153 l 83 1211 q 193 1222 135 1222 q 298 1203 253 1222 q 343 1138 343 1185 q 313 1081 343 1100 q 238 1058 283 1061 l 238 1022 l 149 1022 l 149 1100 z "},"Ȋ":{"ha":386,"x_min":-24,"x_max":408,"o":"m 0 0 m 106 0 l 106 953 l 282 953 l 282 0 l 106 0 m -24 1025 q 29 1152 -24 1099 q 192 1206 82 1206 q 355 1152 301 1206 q 408 1025 408 1099 l 299 1025 q 268 1073 294 1051 q 192 1094 242 1094 q 117 1074 142 1094 q 86 1025 92 1053 l -24 1025 z "},"Ī":{"ha":386,"x_min":-19,"x_max":404,"o":"m 0 0 m 106 0 l 106 953 l 282 953 l 282 0 l 106 0 m -19 1058 l -19 1172 l 404 1172 l 404 1058 l -19 1058 z "},"Į":{"ha":386,"x_min":53,"x_max":292,"o":"m 292 -169 l 292 -244 q 197 -264 240 -264 q 95 -235 138 -264 q 53 -140 53 -206 q 71 -63 53 -96 q 121 0 89 -31 l 106 0 l 106 953 l 282 953 l 282 0 l 232 0 q 199 -45 214 -19 q 185 -97 185 -71 q 202 -149 185 -128 q 254 -169 219 -169 l 292 -169 z "},"Ĩ":{"ha":386,"x_min":-39,"x_max":424,"o":"m 0 0 m 106 0 l 106 953 l 282 953 l 282 0 l 106 0 m -39 1044 q -6 1160 -39 1115 q 92 1206 26 1206 q 139 1199 115 1206 q 193 1181 163 1193 q 283 1157 249 1157 q 329 1206 324 1157 l 424 1206 q 391 1090 424 1135 q 293 1044 358 1044 q 247 1051 269 1044 q 193 1069 225 1057 q 144 1087 164 1081 q 101 1093 124 1093 q 57 1044 63 1093 l -39 1044 z "},"J":{"ha":746,"x_min":36,"x_max":653,"o":"m 346 -17 q 117 55 197 -17 q 36 264 36 126 l 36 314 l 213 314 l 213 263 q 247 167 213 200 q 346 133 281 133 q 441 169 408 133 q 474 271 474 204 l 474 953 l 653 953 l 653 271 q 574 56 653 129 q 346 -17 494 -17 z "},"Ĵ":{"ha":746,"x_min":36,"x_max":785,"o":"m 36 0 m 346 -17 q 117 55 197 -17 q 36 264 36 126 l 36 314 l 213 314 l 213 263 q 247 167 213 200 q 346 133 281 133 q 441 169 408 133 q 474 271 474 204 l 474 953 l 653 953 l 653 271 q 574 56 653 129 q 346 -17 494 -17 m 342 1018 l 489 1206 l 639 1206 l 785 1018 l 642 1018 l 564 1118 l 485 1018 l 342 1018 z "},"K":{"ha":976,"x_min":99,"x_max":963,"o":"m 99 0 l 99 953 l 276 953 l 276 471 l 739 953 l 956 953 l 586 568 l 963 0 l 753 0 l 467 443 l 276 276 l 276 0 l 99 0 z "},"Ķ":{"ha":976,"x_min":99,"x_max":963,"o":"m 99 0 m 99 0 l 99 953 l 276 953 l 276 471 l 739 953 l 956 953 l 586 568 l 963 0 l 753 0 l 467 443 l 276 276 l 276 0 l 99 0 m 408 -319 l 472 -197 l 406 -197 l 406 -64 l 572 -64 l 572 -183 l 494 -319 l 408 -319 z "},"L":{"ha":822,"x_min":99,"x_max":782,"o":"m 99 0 l 99 953 l 276 953 l 276 154 l 782 154 l 782 0 l 99 0 z "},"Ǉ":{"ha":1568,"x_min":99,"x_max":1475,"o":"m 99 0 m 99 0 l 99 953 l 276 953 l 276 154 l 782 154 l 782 0 l 99 0 m 1168 -17 q 939 55 1019 -17 q 858 264 858 126 l 858 314 l 1035 314 l 1035 263 q 1069 167 1035 200 q 1168 133 1103 133 q 1263 169 1231 133 q 1296 271 1296 204 l 1296 953 l 1475 953 l 1475 271 q 1396 56 1475 129 q 1168 -17 1317 -17 z "},"Ĺ":{"ha":822,"x_min":99,"x_max":782,"o":"m 99 0 m 99 0 l 99 953 l 276 953 l 276 154 l 782 154 l 782 0 l 99 0 m 121 1022 l 233 1206 l 401 1206 l 403 1201 l 253 1022 l 121 1022 z "},"Ľ":{"ha":822,"x_min":99,"x_max":782,"o":"m 99 0 l 99 953 l 276 953 l 276 154 l 782 154 l 782 0 l 99 0 m 475 638 l 542 793 l 475 793 l 475 953 l 642 953 l 642 808 l 561 638 l 475 638 z "},"Ļ":{"ha":822,"x_min":99,"x_max":782,"o":"m 99 0 m 99 0 l 99 953 l 276 953 l 276 154 l 782 154 l 782 0 l 99 0 m 360 -319 l 424 -197 l 357 -197 l 357 -64 l 524 -64 l 524 -183 l 446 -319 l 360 -319 z "},"Ŀ":{"ha":822,"x_min":99,"x_max":782,"o":"m 99 0 m 99 0 l 99 953 l 276 953 l 276 154 l 782 154 l 782 0 l 99 0 m 481 554 l 481 731 l 654 731 l 654 554 l 481 554 z "},"ǈ":{"ha":1182,"x_min":99,"x_max":1086,"o":"m 99 0 m 99 0 l 99 953 l 276 953 l 276 154 l 782 154 l 782 0 l 99 0 m 919 844 l 919 1004 l 1086 1004 l 1086 844 l 919 844 m 907 -253 q 844 -247 878 -253 q 789 -232 810 -240 l 789 -118 l 857 -118 q 903 -102 888 -118 q 919 -56 919 -86 l 919 731 l 1086 731 l 1086 -67 q 1044 -199 1086 -146 q 907 -253 1003 -253 z "},"Ł":{"ha":822,"x_min":3,"x_max":782,"o":"m 99 0 l 99 351 l 3 288 l 3 419 l 99 482 l 99 953 l 276 953 l 276 600 l 485 738 l 485 606 l 276 468 l 276 154 l 782 154 l 782 0 l 99 0 z "},"M":{"ha":1157,"x_min":99,"x_max":1058,"o":"m 99 953 l 372 953 l 538 385 q 563 281 549 347 q 582 194 578 215 l 589 194 q 606 284 593 217 q 628 385 618 351 l 794 953 l 1058 953 l 1058 0 l 881 0 l 881 615 q 883 706 881 656 q 888 776 886 757 l 879 776 q 851 671 868 729 l 656 0 l 492 0 l 297 671 q 278 743 288 703 l 269 776 l 263 776 q 266 707 264 757 q 268 615 268 657 l 268 0 l 99 0 l 99 953 z "},"N":{"ha":1003,"x_min":99,"x_max":904,"o":"m 99 953 l 268 953 l 682 385 q 711 338 699 360 q 729 308 724 317 l 736 311 l 733 386 l 733 953 l 904 953 l 904 0 l 738 0 l 321 574 q 292 620 306 594 q 274 651 278 646 l 267 647 q 268 619 267 640 q 269 571 269 599 l 269 0 l 99 0 l 99 953 z "},"Ǌ":{"ha":1749,"x_min":99,"x_max":1656,"o":"m 99 0 m 99 953 l 268 953 l 682 385 q 711 338 699 360 q 729 308 724 317 l 736 311 l 733 386 l 733 953 l 904 953 l 904 0 l 738 0 l 321 574 q 292 620 306 594 q 274 651 278 646 l 267 647 q 268 619 267 640 q 269 571 269 599 l 269 0 l 99 0 l 99 953 m 1349 -17 q 1119 55 1200 -17 q 1039 264 1039 126 l 1039 314 l 1215 314 l 1215 263 q 1249 167 1215 200 q 1349 133 1283 133 q 1444 169 1411 133 q 1476 271 1476 204 l 1476 953 l 1656 953 l 1656 271 q 1576 56 1656 129 q 1349 -17 1497 -17 z "},"Ń":{"ha":1003,"x_min":99,"x_max":904,"o":"m 99 0 m 99 953 l 268 953 l 682 385 q 711 338 699 360 q 729 308 724 317 l 736 311 l 733 386 l 733 953 l 904 953 l 904 0 l 738 0 l 321 574 q 292 620 306 594 q 274 651 278 646 l 267 647 q 268 619 267 640 q 269 571 269 599 l 269 0 l 99 0 l 99 953 m 435 1022 l 547 1206 l 715 1206 l 717 1201 l 567 1022 l 435 1022 z "},"Ň":{"ha":1003,"x_min":99,"x_max":904,"o":"m 99 0 m 99 953 l 268 953 l 682 385 q 711 338 699 360 q 729 308 724 317 l 736 311 l 733 386 l 733 953 l 904 953 l 904 0 l 738 0 l 321 574 q 292 620 306 594 q 274 651 278 646 l 267 647 q 268 619 267 640 q 269 571 269 599 l 269 0 l 99 0 l 99 953 m 426 1018 l 279 1206 l 422 1206 l 501 1106 l 579 1206 l 722 1206 l 576 1018 l 426 1018 z "},"Ņ":{"ha":1003,"x_min":99,"x_max":904,"o":"m 99 0 m 99 953 l 268 953 l 682 385 q 711 338 699 360 q 729 308 724 317 l 736 311 l 733 386 l 733 953 l 904 953 l 904 0 l 738 0 l 321 574 q 292 620 306 594 q 274 651 278 646 l 267 647 q 268 619 267 640 q 269 571 269 599 l 269 0 l 99 0 l 99 953 m 421 -319 l 485 -197 l 418 -197 l 418 -64 l 585 -64 l 585 -183 l 507 -319 l 421 -319 z "},"Ṅ":{"ha":1003,"x_min":99,"x_max":904,"o":"m 99 0 m 99 953 l 268 953 l 682 385 q 711 338 699 360 q 729 308 724 317 l 736 311 l 733 386 l 733 953 l 904 953 l 904 0 l 738 0 l 321 574 q 292 620 306 594 q 274 651 278 646 l 267 647 q 268 619 267 640 q 269 571 269 599 l 269 0 l 99 0 l 99 953 m 418 1043 l 418 1207 l 582 1207 l 582 1043 l 418 1043 z "},"Ŋ":{"ha":1003,"x_min":99,"x_max":904,"o":"m 726 -253 q 661 -247 696 -253 q 604 -232 626 -240 l 604 -118 l 671 -118 q 733 -56 733 -118 l 733 0 l 322 572 q 292 617 307 592 q 274 647 278 642 l 267 644 q 269 611 268 633 q 271 568 271 589 l 269 0 l 99 0 l 99 953 l 268 953 l 682 388 q 711 340 689 378 q 729 311 725 315 l 736 314 l 733 389 l 733 953 l 904 953 l 904 -67 q 863 -199 904 -146 q 726 -253 821 -253 z "},"Ɲ":{"ha":1003,"x_min":-31,"x_max":904,"o":"m 92 -253 q 27 -247 63 -253 q -31 -232 -8 -240 l -31 -118 l 38 -118 q 99 -56 99 -118 l 99 953 l 268 953 l 682 385 q 711 338 699 360 q 729 308 724 317 l 736 311 l 733 386 l 733 953 l 904 953 l 904 0 l 738 0 l 328 565 q 274 651 297 611 l 267 647 q 268 613 267 638 q 269 558 269 589 l 269 -67 q 228 -199 269 -146 q 92 -253 186 -253 z "},"ǋ":{"ha":1363,"x_min":99,"x_max":1267,"o":"m 99 0 m 99 953 l 268 953 l 682 385 q 711 338 699 360 q 729 308 724 317 l 736 311 l 733 386 l 733 953 l 904 953 l 904 0 l 738 0 l 321 574 q 292 620 306 594 q 274 651 278 646 l 267 647 q 268 619 267 640 q 269 571 269 599 l 269 0 l 99 0 l 99 953 m 1100 844 l 1100 1004 l 1267 1004 l 1267 844 l 1100 844 m 1088 -253 q 1024 -247 1058 -253 q 969 -232 990 -240 l 969 -118 l 1038 -118 q 1084 -102 1068 -118 q 1100 -56 1100 -86 l 1100 731 l 1267 731 l 1267 -67 q 1225 -199 1267 -146 q 1088 -253 1183 -253 z "},"Ñ":{"ha":1003,"x_min":99,"x_max":904,"o":"m 99 0 m 99 953 l 268 953 l 682 385 q 711 338 699 360 q 729 308 724 317 l 736 311 l 733 386 l 733 953 l 904 953 l 904 0 l 738 0 l 321 574 q 292 620 306 594 q 274 651 278 646 l 267 647 q 268 619 267 640 q 269 571 269 599 l 269 0 l 99 0 l 99 953 m 269 1044 q 302 1160 269 1115 q 400 1206 335 1206 q 447 1199 424 1206 q 501 1181 471 1193 q 592 1157 557 1157 q 638 1206 632 1157 l 732 1206 q 699 1090 732 1135 q 601 1044 667 1044 q 556 1051 578 1044 q 501 1069 533 1057 q 452 1087 472 1081 q 410 1093 432 1093 q 365 1044 371 1093 l 269 1044 z "},"O":{"ha":1081,"x_min":61,"x_max":1021,"o":"m 540 -17 q 186 107 311 -17 q 61 476 61 231 q 186 846 61 722 q 540 969 311 969 q 895 846 769 969 q 1021 476 1021 722 q 895 107 1021 231 q 540 -17 769 -17 m 540 133 q 763 216 688 133 q 839 461 839 299 l 839 490 q 763 736 839 653 q 540 819 686 819 q 319 736 396 819 q 243 490 243 653 l 243 461 q 319 216 243 299 q 540 133 394 133 z "},"Ó":{"ha":1081,"x_min":61,"x_max":1021,"o":"m 61 0 m 540 -17 q 186 107 311 -17 q 61 476 61 231 q 186 846 61 722 q 540 969 311 969 q 895 846 769 969 q 1021 476 1021 722 q 895 107 1021 231 q 540 -17 769 -17 m 540 133 q 763 216 688 133 q 839 461 839 299 l 839 490 q 763 736 839 653 q 540 819 686 819 q 319 736 396 819 q 243 490 243 653 l 243 461 q 319 216 243 299 q 540 133 394 133 m 474 1022 l 586 1206 l 754 1206 l 756 1201 l 606 1022 l 474 1022 z "},"Ŏ":{"ha":1081,"x_min":61,"x_max":1021,"o":"m 61 0 m 540 -17 q 186 107 311 -17 q 61 476 61 231 q 186 846 61 722 q 540 969 311 969 q 895 846 769 969 q 1021 476 1021 722 q 895 107 1021 231 q 540 -17 769 -17 m 540 133 q 763 216 688 133 q 839 461 839 299 l 839 490 q 763 736 839 653 q 540 819 686 819 q 319 736 396 819 q 243 490 243 653 l 243 461 q 319 216 243 299 q 540 133 394 133 m 539 1025 q 376 1078 429 1025 q 324 1206 324 1132 l 433 1206 q 464 1157 439 1178 q 539 1136 489 1136 q 615 1158 589 1136 q 646 1206 642 1179 l 756 1206 q 702 1078 756 1132 q 539 1025 649 1025 z "},"Ǒ":{"ha":1081,"x_min":61,"x_max":1021,"o":"m 61 0 m 540 -17 q 186 107 311 -17 q 61 476 61 231 q 186 846 61 722 q 540 969 311 969 q 895 846 769 969 q 1021 476 1021 722 q 895 107 1021 231 q 540 -17 769 -17 m 540 133 q 763 216 688 133 q 839 461 839 299 l 839 490 q 763 736 839 653 q 540 819 686 819 q 319 736 396 819 q 243 490 243 653 l 243 461 q 319 216 243 299 q 540 133 394 133 m 465 1018 l 318 1206 l 461 1206 l 540 1106 l 618 1206 l 761 1206 l 615 1018 l 465 1018 z "},"Ô":{"ha":1081,"x_min":61,"x_max":1021,"o":"m 61 0 m 540 -17 q 186 107 311 -17 q 61 476 61 231 q 186 846 61 722 q 540 969 311 969 q 895 846 769 969 q 1021 476 1021 722 q 895 107 1021 231 q 540 -17 769 -17 m 540 133 q 763 216 688 133 q 839 461 839 299 l 839 490 q 763 736 839 653 q 540 819 686 819 q 319 736 396 819 q 243 490 243 653 l 243 461 q 319 216 243 299 q 540 133 394 133 m 318 1018 l 465 1206 l 615 1206 l 761 1018 l 618 1018 l 540 1118 l 461 1018 l 318 1018 z "},"Ố":{"ha":1081,"x_min":61,"x_max":1021,"o":"m 61 0 m 540 -17 q 186 107 311 -17 q 61 476 61 231 q 186 846 61 722 q 540 969 311 969 q 895 846 769 969 q 1021 476 1021 722 q 895 107 1021 231 q 540 -17 769 -17 m 540 133 q 763 216 688 133 q 839 461 839 299 l 839 490 q 763 736 839 653 q 540 819 686 819 q 319 736 396 819 q 243 490 243 653 l 243 461 q 319 216 243 299 q 540 133 394 133 m 318 1018 l 465 1206 l 615 1206 l 761 1018 l 618 1018 l 540 1118 l 461 1018 l 318 1018 m 671 1154 l 783 1338 l 951 1338 l 953 1333 l 803 1154 l 671 1154 z "},"Ộ":{"ha":1081,"x_min":61,"x_max":1021,"o":"m 61 0 m 540 -17 q 186 107 311 -17 q 61 476 61 231 q 186 846 61 722 q 540 969 311 969 q 895 846 769 969 q 1021 476 1021 722 q 895 107 1021 231 q 540 -17 769 -17 m 540 133 q 763 216 688 133 q 839 461 839 299 l 839 490 q 763 736 839 653 q 540 819 686 819 q 319 736 396 819 q 243 490 243 653 l 243 461 q 319 216 243 299 q 540 133 394 133 m 318 1018 l 465 1206 l 615 1206 l 761 1018 l 618 1018 l 540 1118 l 461 1018 l 318 1018 m 457 -240 l 457 -76 l 621 -76 l 621 -240 l 457 -240 z "},"Ồ":{"ha":1081,"x_min":61,"x_max":1021,"o":"m 61 0 m 540 -17 q 186 107 311 -17 q 61 476 61 231 q 186 846 61 722 q 540 969 311 969 q 895 846 769 969 q 1021 476 1021 722 q 895 107 1021 231 q 540 -17 769 -17 m 540 133 q 763 216 688 133 q 839 461 839 299 l 839 490 q 763 736 839 653 q 540 819 686 819 q 319 736 396 819 q 243 490 243 653 l 243 461 q 319 216 243 299 q 540 133 394 133 m 318 1018 l 465 1206 l 615 1206 l 761 1018 l 618 1018 l 540 1118 l 461 1018 l 318 1018 m 726 1154 l 576 1333 l 578 1338 l 744 1338 l 858 1154 l 726 1154 z "},"Ổ":{"ha":1081,"x_min":61,"x_max":1021,"o":"m 61 0 m 540 -17 q 186 107 311 -17 q 61 476 61 231 q 186 846 61 722 q 540 969 311 969 q 895 846 769 969 q 1021 476 1021 722 q 895 107 1021 231 q 540 -17 769 -17 m 540 133 q 763 216 688 133 q 839 461 839 299 l 839 490 q 763 736 839 653 q 540 819 686 819 q 319 736 396 819 q 243 490 243 653 l 243 461 q 319 216 243 299 q 540 133 394 133 m 318 1018 l 465 1206 l 615 1206 l 761 1018 l 618 1018 l 540 1118 l 461 1018 l 318 1018 m 693 1232 l 713 1232 q 746 1238 736 1232 q 756 1258 756 1244 q 744 1279 756 1274 q 708 1285 732 1285 l 628 1285 l 628 1343 q 738 1354 679 1354 q 842 1335 797 1354 q 888 1269 888 1317 q 858 1213 888 1232 q 782 1190 828 1193 l 782 1154 l 693 1154 l 693 1232 z "},"Ỗ":{"ha":1081,"x_min":61,"x_max":1021,"o":"m 61 0 m 540 -17 q 186 107 311 -17 q 61 476 61 231 q 186 846 61 722 q 540 969 311 969 q 895 846 769 969 q 1021 476 1021 722 q 895 107 1021 231 q 540 -17 769 -17 m 540 133 q 763 216 688 133 q 839 461 839 299 l 839 490 q 763 736 839 653 q 540 819 686 819 q 319 736 396 819 q 243 490 243 653 l 243 461 q 319 216 243 299 q 540 133 394 133 m 318 1018 l 465 1206 l 615 1206 l 761 1018 l 618 1018 l 540 1118 l 461 1018 l 318 1018 m 311 1267 q 344 1383 311 1338 q 442 1428 376 1428 q 489 1422 465 1428 q 543 1403 513 1415 q 633 1379 599 1379 q 679 1428 674 1379 l 774 1428 q 741 1312 774 1357 q 643 1267 708 1267 q 597 1273 619 1267 q 543 1292 575 1279 q 494 1309 514 1303 q 451 1315 474 1315 q 407 1267 413 1315 l 311 1267 z "},"Ȍ":{"ha":1081,"x_min":61,"x_max":1021,"o":"m 61 0 m 540 -17 q 186 107 311 -17 q 61 476 61 231 q 186 846 61 722 q 540 969 311 969 q 895 846 769 969 q 1021 476 1021 722 q 895 107 1021 231 q 540 -17 769 -17 m 540 133 q 763 216 688 133 q 839 461 839 299 l 839 490 q 763 736 839 653 q 540 819 686 819 q 319 736 396 819 q 243 490 243 653 l 243 461 q 319 216 243 299 q 540 133 394 133 m 388 1022 l 249 1201 l 250 1206 l 417 1206 l 519 1022 l 388 1022 m 613 1022 l 474 1201 l 475 1206 l 643 1206 l 744 1022 l 613 1022 z "},"Ö":{"ha":1081,"x_min":61,"x_max":1021,"o":"m 61 0 m 540 -17 q 186 107 311 -17 q 61 476 61 231 q 186 846 61 722 q 540 969 311 969 q 895 846 769 969 q 1021 476 1021 722 q 895 107 1021 231 q 540 -17 769 -17 m 540 133 q 763 216 688 133 q 839 461 839 299 l 839 490 q 763 736 839 653 q 540 819 686 819 q 319 736 396 819 q 243 490 243 653 l 243 461 q 319 216 243 299 q 540 133 394 133 m 326 1053 l 326 1206 l 475 1206 l 475 1053 l 326 1053 m 607 1053 l 607 1206 l 757 1206 l 757 1053 l 607 1053 z "},"Ọ":{"ha":1081,"x_min":61,"x_max":1021,"o":"m 61 0 m 540 -17 q 186 107 311 -17 q 61 476 61 231 q 186 846 61 722 q 540 969 311 969 q 895 846 769 969 q 1021 476 1021 722 q 895 107 1021 231 q 540 -17 769 -17 m 540 133 q 763 216 688 133 q 839 461 839 299 l 839 490 q 763 736 839 653 q 540 819 686 819 q 319 736 396 819 q 243 490 243 653 l 243 461 q 319 216 243 299 q 540 133 394 133 m 457 -240 l 457 -76 l 621 -76 l 621 -240 l 457 -240 z "},"Ò":{"ha":1081,"x_min":61,"x_max":1021,"o":"m 61 0 m 540 -17 q 186 107 311 -17 q 61 476 61 231 q 186 846 61 722 q 540 969 311 969 q 895 846 769 969 q 1021 476 1021 722 q 895 107 1021 231 q 540 -17 769 -17 m 540 133 q 763 216 688 133 q 839 461 839 299 l 839 490 q 763 736 839 653 q 540 819 686 819 q 319 736 396 819 q 243 490 243 653 l 243 461 q 319 216 243 299 q 540 133 394 133 m 474 1022 l 324 1201 l 325 1206 l 492 1206 l 606 1022 l 474 1022 z "},"Ỏ":{"ha":1081,"x_min":61,"x_max":1021,"o":"m 61 0 m 540 -17 q 186 107 311 -17 q 61 476 61 231 q 186 846 61 722 q 540 969 311 969 q 895 846 769 969 q 1021 476 1021 722 q 895 107 1021 231 q 540 -17 769 -17 m 540 133 q 763 216 688 133 q 839 461 839 299 l 839 490 q 763 736 839 653 q 540 819 686 819 q 319 736 396 819 q 243 490 243 653 l 243 461 q 319 216 243 299 q 540 133 394 133 m 496 1100 l 515 1100 q 549 1106 539 1100 q 558 1126 558 1113 q 547 1147 558 1142 q 511 1153 535 1153 l 431 1153 l 431 1211 q 540 1222 482 1222 q 645 1203 600 1222 q 690 1138 690 1185 q 660 1081 690 1100 q 585 1058 631 1061 l 585 1022 l 496 1022 l 496 1100 z "},"Ơ":{"ha":1081,"x_min":61,"x_max":1097,"o":"m 1097 1150 l 1097 1075 q 1056 905 1097 971 q 931 806 1015 839 q 1021 476 1021 681 q 895 107 1021 231 q 540 -17 769 -17 q 186 107 311 -17 q 61 476 61 231 q 186 846 61 722 q 540 969 311 969 q 863 875 743 969 q 985 974 958 900 l 896 974 l 896 1150 l 1097 1150 m 839 490 q 763 736 839 653 q 540 819 686 819 q 319 736 396 819 q 243 490 243 653 l 243 461 q 319 216 243 299 q 540 133 394 133 q 763 216 688 133 q 839 461 839 299 l 839 490 z "},"Ớ":{"ha":1081,"x_min":61,"x_max":1097,"o":"m 61 0 m 1097 1150 l 1097 1075 q 1056 905 1097 971 q 931 806 1015 839 q 1021 476 1021 681 q 895 107 1021 231 q 540 -17 769 -17 q 186 107 311 -17 q 61 476 61 231 q 186 846 61 722 q 540 969 311 969 q 863 875 743 969 q 985 974 958 900 l 896 974 l 896 1150 l 1097 1150 m 839 490 q 763 736 839 653 q 540 819 686 819 q 319 736 396 819 q 243 490 243 653 l 243 461 q 319 216 243 299 q 540 133 394 133 q 763 216 688 133 q 839 461 839 299 l 839 490 m 474 1022 l 586 1206 l 754 1206 l 756 1201 l 606 1022 l 474 1022 z "},"Ợ":{"ha":1081,"x_min":61,"x_max":1097,"o":"m 61 0 m 1097 1150 l 1097 1075 q 1056 905 1097 971 q 931 806 1015 839 q 1021 476 1021 681 q 895 107 1021 231 q 540 -17 769 -17 q 186 107 311 -17 q 61 476 61 231 q 186 846 61 722 q 540 969 311 969 q 863 875 743 969 q 985 974 958 900 l 896 974 l 896 1150 l 1097 1150 m 839 490 q 763 736 839 653 q 540 819 686 819 q 319 736 396 819 q 243 490 243 653 l 243 461 q 319 216 243 299 q 540 133 394 133 q 763 216 688 133 q 839 461 839 299 l 839 490 m 457 -240 l 457 -76 l 621 -76 l 621 -240 l 457 -240 z "},"Ờ":{"ha":1081,"x_min":61,"x_max":1097,"o":"m 61 0 m 1097 1150 l 1097 1075 q 1056 905 1097 971 q 931 806 1015 839 q 1021 476 1021 681 q 895 107 1021 231 q 540 -17 769 -17 q 186 107 311 -17 q 61 476 61 231 q 186 846 61 722 q 540 969 311 969 q 863 875 743 969 q 985 974 958 900 l 896 974 l 896 1150 l 1097 1150 m 839 490 q 763 736 839 653 q 540 819 686 819 q 319 736 396 819 q 243 490 243 653 l 243 461 q 319 216 243 299 q 540 133 394 133 q 763 216 688 133 q 839 461 839 299 l 839 490 m 474 1022 l 324 1201 l 325 1206 l 492 1206 l 606 1022 l 474 1022 z "},"Ở":{"ha":1081,"x_min":61,"x_max":1097,"o":"m 61 0 m 1097 1150 l 1097 1075 q 1056 905 1097 971 q 931 806 1015 839 q 1021 476 1021 681 q 895 107 1021 231 q 540 -17 769 -17 q 186 107 311 -17 q 61 476 61 231 q 186 846 61 722 q 540 969 311 969 q 863 875 743 969 q 985 974 958 900 l 896 974 l 896 1150 l 1097 1150 m 839 490 q 763 736 839 653 q 540 819 686 819 q 319 736 396 819 q 243 490 243 653 l 243 461 q 319 216 243 299 q 540 133 394 133 q 763 216 688 133 q 839 461 839 299 l 839 490 m 496 1100 l 515 1100 q 549 1106 539 1100 q 558 1126 558 1113 q 547 1147 558 1142 q 511 1153 535 1153 l 431 1153 l 431 1211 q 540 1222 482 1222 q 645 1203 600 1222 q 690 1138 690 1185 q 660 1081 690 1100 q 585 1058 631 1061 l 585 1022 l 496 1022 l 496 1100 z "},"Ỡ":{"ha":1081,"x_min":61,"x_max":1097,"o":"m 61 0 m 1097 1150 l 1097 1075 q 1056 905 1097 971 q 931 806 1015 839 q 1021 476 1021 681 q 895 107 1021 231 q 540 -17 769 -17 q 186 107 311 -17 q 61 476 61 231 q 186 846 61 722 q 540 969 311 969 q 863 875 743 969 q 985 974 958 900 l 896 974 l 896 1150 l 1097 1150 m 839 490 q 763 736 839 653 q 540 819 686 819 q 319 736 396 819 q 243 490 243 653 l 243 461 q 319 216 243 299 q 540 133 394 133 q 763 216 688 133 q 839 461 839 299 l 839 490 m 308 1044 q 341 1160 308 1115 q 439 1206 374 1206 q 486 1199 463 1206 q 540 1181 510 1193 q 631 1157 596 1157 q 676 1206 671 1157 l 771 1206 q 738 1090 771 1135 q 640 1044 706 1044 q 594 1051 617 1044 q 540 1069 572 1057 q 491 1087 511 1081 q 449 1093 471 1093 q 404 1044 410 1093 l 308 1044 z "},"Ő":{"ha":1081,"x_min":61,"x_max":1021,"o":"m 61 0 m 540 -17 q 186 107 311 -17 q 61 476 61 231 q 186 846 61 722 q 540 969 311 969 q 895 846 769 969 q 1021 476 1021 722 q 895 107 1021 231 q 540 -17 769 -17 m 540 133 q 763 216 688 133 q 839 461 839 299 l 839 490 q 763 736 839 653 q 540 819 686 819 q 319 736 396 819 q 243 490 243 653 l 243 461 q 319 216 243 299 q 540 133 394 133 m 361 1022 l 463 1206 l 631 1206 l 632 1201 l 493 1022 l 361 1022 m 586 1022 l 689 1206 l 856 1206 l 857 1201 l 718 1022 l 586 1022 z "},"Ȏ":{"ha":1081,"x_min":61,"x_max":1021,"o":"m 61 0 m 540 -17 q 186 107 311 -17 q 61 476 61 231 q 186 846 61 722 q 540 969 311 969 q 895 846 769 969 q 1021 476 1021 722 q 895 107 1021 231 q 540 -17 769 -17 m 540 133 q 763 216 688 133 q 839 461 839 299 l 839 490 q 763 736 839 653 q 540 819 686 819 q 319 736 396 819 q 243 490 243 653 l 243 461 q 319 216 243 299 q 540 133 394 133 m 324 1025 q 376 1152 324 1099 q 539 1206 429 1206 q 702 1152 649 1206 q 756 1025 756 1099 l 646 1025 q 615 1073 642 1051 q 539 1094 589 1094 q 464 1074 489 1094 q 433 1025 439 1053 l 324 1025 z "},"Ō":{"ha":1081,"x_min":61,"x_max":1021,"o":"m 61 0 m 540 -17 q 186 107 311 -17 q 61 476 61 231 q 186 846 61 722 q 540 969 311 969 q 895 846 769 969 q 1021 476 1021 722 q 895 107 1021 231 q 540 -17 769 -17 m 540 133 q 763 216 688 133 q 839 461 839 299 l 839 490 q 763 736 839 653 q 540 819 686 819 q 319 736 396 819 q 243 490 243 653 l 243 461 q 319 216 243 299 q 540 133 394 133 m 328 1058 l 328 1172 l 751 1172 l 751 1058 l 328 1058 z "},"Ǫ":{"ha":1081,"x_min":61,"x_max":1021,"o":"m 1021 476 q 947 172 1021 289 q 735 11 872 56 q 702 -34 717 -8 q 688 -86 688 -60 q 705 -137 688 -117 q 757 -158 722 -158 l 794 -158 l 794 -233 q 700 -253 743 -253 q 598 -224 640 -253 q 556 -129 556 -194 q 599 -14 556 -67 q 540 -17 563 -17 q 186 107 311 -17 q 61 476 61 231 q 186 846 61 722 q 540 969 311 969 q 895 846 769 969 q 1021 476 1021 722 m 243 461 q 319 216 243 299 q 540 133 394 133 q 763 216 688 133 q 839 461 839 299 l 839 490 q 763 736 839 653 q 540 819 686 819 q 319 736 396 819 q 243 490 243 653 l 243 461 z "},"Ø":{"ha":1081,"x_min":61,"x_max":1021,"o":"m 193 100 q 61 476 61 225 q 186 846 61 722 q 540 969 311 969 q 808 910 699 969 l 890 1021 l 1017 1021 l 889 851 q 1021 476 1021 728 q 895 107 1021 231 q 540 -17 769 -17 q 275 40 381 -17 l 193 -68 l 65 -68 l 193 100 m 708 779 q 540 819 639 819 q 319 737 394 819 q 243 492 243 654 l 243 463 q 299 242 243 322 l 708 779 m 540 133 q 763 216 688 133 q 839 461 839 299 l 839 490 q 782 711 839 629 l 375 172 q 540 133 440 133 z "},"Ǿ":{"ha":1081,"x_min":61,"x_max":1021,"o":"m 61 0 m 193 100 q 61 476 61 225 q 186 846 61 722 q 540 969 311 969 q 808 910 699 969 l 890 1021 l 1017 1021 l 889 851 q 1021 476 1021 728 q 895 107 1021 231 q 540 -17 769 -17 q 275 40 381 -17 l 193 -68 l 65 -68 l 193 100 m 708 779 q 540 819 639 819 q 319 737 394 819 q 243 492 243 654 l 243 463 q 299 242 243 322 l 708 779 m 540 133 q 763 216 688 133 q 839 461 839 299 l 839 490 q 782 711 839 629 l 375 172 q 540 133 440 133 m 474 1022 l 586 1206 l 754 1206 l 756 1201 l 606 1022 l 474 1022 z "},"Õ":{"ha":1081,"x_min":61,"x_max":1021,"o":"m 61 0 m 540 -17 q 186 107 311 -17 q 61 476 61 231 q 186 846 61 722 q 540 969 311 969 q 895 846 769 969 q 1021 476 1021 722 q 895 107 1021 231 q 540 -17 769 -17 m 540 133 q 763 216 688 133 q 839 461 839 299 l 839 490 q 763 736 839 653 q 540 819 686 819 q 319 736 396 819 q 243 490 243 653 l 243 461 q 319 216 243 299 q 540 133 394 133 m 308 1044 q 341 1160 308 1115 q 439 1206 374 1206 q 486 1199 463 1206 q 540 1181 510 1193 q 631 1157 596 1157 q 676 1206 671 1157 l 771 1206 q 738 1090 771 1135 q 640 1044 706 1044 q 594 1051 617 1044 q 540 1069 572 1057 q 491 1087 511 1081 q 449 1093 471 1093 q 404 1044 410 1093 l 308 1044 z "},"Œ":{"ha":1389,"x_min":61,"x_max":1313,"o":"m 439 -17 q 160 110 260 -17 q 61 476 61 236 q 160 843 61 717 q 439 969 260 969 q 689 867 594 969 l 689 953 l 1304 953 l 1304 803 l 867 803 l 867 563 l 1238 563 l 1238 413 l 867 413 l 867 150 l 1313 150 l 1313 0 l 689 0 l 689 85 q 439 -17 589 -17 m 472 133 q 633 214 578 133 q 689 476 689 294 q 633 739 689 658 q 472 819 578 819 q 299 737 354 819 q 243 476 243 654 q 299 216 243 299 q 472 133 354 133 z "},"P":{"ha":926,"x_min":99,"x_max":868,"o":"m 99 953 l 557 953 q 789 872 710 953 q 868 649 868 792 q 785 423 868 506 q 547 340 703 340 l 276 340 l 276 0 l 99 0 l 99 953 m 542 492 q 650 533 611 492 q 689 649 689 575 q 651 761 689 721 q 542 801 614 801 l 276 801 l 276 492 l 542 492 z "},"Þ":{"ha":926,"x_min":99,"x_max":868,"o":"m 99 953 l 276 953 l 276 799 l 557 799 q 789 717 710 799 q 868 494 868 636 q 785 269 868 351 q 547 186 703 186 l 276 186 l 276 0 l 99 0 l 99 953 m 542 338 q 650 379 611 338 q 689 494 689 421 q 651 607 689 567 q 542 647 614 647 l 276 647 l 276 338 l 542 338 z "},"Q":{"ha":1081,"x_min":61,"x_max":1021,"o":"m 588 -15 q 540 -17 572 -17 q 186 107 311 -17 q 61 476 61 231 q 186 846 61 722 q 540 969 311 969 q 895 846 769 969 q 1021 476 1021 722 q 957 190 1021 303 q 772 25 893 76 l 985 -181 l 747 -181 l 588 -15 m 540 133 q 763 216 688 133 q 839 461 839 299 l 839 490 q 763 736 839 653 q 540 819 686 819 q 319 736 396 819 q 243 490 243 653 l 243 461 q 319 216 243 299 q 540 133 394 133 z "},"R":{"ha":1003,"x_min":99,"x_max":947,"o":"m 99 953 l 601 953 q 834 876 756 953 q 913 664 913 800 q 869 498 913 567 q 743 396 826 429 l 947 0 l 753 0 l 572 368 l 276 368 l 276 0 l 99 0 l 99 953 m 588 518 q 694 557 656 518 q 733 664 733 596 q 696 765 733 729 q 588 801 658 801 l 276 801 l 276 518 l 588 518 z "},"Ŕ":{"ha":1003,"x_min":99,"x_max":947,"o":"m 99 0 m 99 953 l 601 953 q 834 876 756 953 q 913 664 913 800 q 869 498 913 567 q 743 396 826 429 l 947 0 l 753 0 l 572 368 l 276 368 l 276 0 l 99 0 l 99 953 m 588 518 q 694 557 656 518 q 733 664 733 596 q 696 765 733 729 q 588 801 658 801 l 276 801 l 276 518 l 588 518 m 435 1022 l 547 1206 l 715 1206 l 717 1201 l 567 1022 l 435 1022 z "},"Ř":{"ha":1003,"x_min":99,"x_max":947,"o":"m 99 0 m 99 953 l 601 953 q 834 876 756 953 q 913 664 913 800 q 869 498 913 567 q 743 396 826 429 l 947 0 l 753 0 l 572 368 l 276 368 l 276 0 l 99 0 l 99 953 m 588 518 q 694 557 656 518 q 733 664 733 596 q 696 765 733 729 q 588 801 658 801 l 276 801 l 276 518 l 588 518 m 426 1018 l 279 1206 l 422 1206 l 501 1106 l 579 1206 l 722 1206 l 576 1018 l 426 1018 z "},"Ŗ":{"ha":1003,"x_min":99,"x_max":947,"o":"m 99 0 m 99 953 l 601 953 q 834 876 756 953 q 913 664 913 800 q 869 498 913 567 q 743 396 826 429 l 947 0 l 753 0 l 572 368 l 276 368 l 276 0 l 99 0 l 99 953 m 588 518 q 694 557 656 518 q 733 664 733 596 q 696 765 733 729 q 588 801 658 801 l 276 801 l 276 518 l 588 518 m 421 -319 l 485 -197 l 418 -197 l 418 -64 l 585 -64 l 585 -183 l 507 -319 l 421 -319 z "},"Ȑ":{"ha":1003,"x_min":99,"x_max":947,"o":"m 99 0 m 99 953 l 601 953 q 834 876 756 953 q 913 664 913 800 q 869 498 913 567 q 743 396 826 429 l 947 0 l 753 0 l 572 368 l 276 368 l 276 0 l 99 0 l 99 953 m 588 518 q 694 557 656 518 q 733 664 733 596 q 696 765 733 729 q 588 801 658 801 l 276 801 l 276 518 l 588 518 m 349 1022 l 210 1201 l 211 1206 l 378 1206 l 481 1022 l 349 1022 m 574 1022 l 435 1201 l 436 1206 l 604 1206 l 706 1022 l 574 1022 z "},"Ṛ":{"ha":1003,"x_min":99,"x_max":947,"o":"m 99 0 m 99 953 l 601 953 q 834 876 756 953 q 913 664 913 800 q 869 498 913 567 q 743 396 826 429 l 947 0 l 753 0 l 572 368 l 276 368 l 276 0 l 99 0 l 99 953 m 588 518 q 694 557 656 518 q 733 664 733 596 q 696 765 733 729 q 588 801 658 801 l 276 801 l 276 518 l 588 518 m 418 -240 l 418 -76 l 582 -76 l 582 -240 l 418 -240 z "},"Ȓ":{"ha":1003,"x_min":99,"x_max":947,"o":"m 99 0 m 99 953 l 601 953 q 834 876 756 953 q 913 664 913 800 q 869 498 913 567 q 743 396 826 429 l 947 0 l 753 0 l 572 368 l 276 368 l 276 0 l 99 0 l 99 953 m 588 518 q 694 557 656 518 q 733 664 733 596 q 696 765 733 729 q 588 801 658 801 l 276 801 l 276 518 l 588 518 m 285 1025 q 338 1152 285 1099 q 500 1206 390 1206 q 663 1152 610 1206 q 717 1025 717 1099 l 607 1025 q 576 1073 603 1051 q 500 1094 550 1094 q 425 1074 450 1094 q 394 1025 400 1053 l 285 1025 z "},"S":{"ha":926,"x_min":61,"x_max":863,"o":"m 460 -17 q 260 15 350 -17 q 115 113 169 47 q 61 276 61 179 l 63 306 l 242 306 l 240 281 q 300 172 240 211 q 464 133 360 133 q 629 165 575 133 q 683 254 683 197 q 651 328 683 299 q 572 374 619 357 q 439 415 525 392 q 255 474 325 446 q 135 559 185 503 q 85 707 85 615 q 190 902 85 835 q 467 969 296 969 q 734 901 631 969 q 838 693 838 832 l 838 676 l 663 676 l 663 692 q 609 785 663 751 q 465 819 556 819 q 317 792 371 819 q 264 714 264 764 q 294 651 264 676 q 372 609 325 625 q 497 572 418 593 q 685 513 613 542 q 810 426 758 483 q 863 279 863 369 q 754 55 863 126 q 460 -17 646 -17 z "},"Ś":{"ha":926,"x_min":61,"x_max":863,"o":"m 61 0 m 460 -17 q 260 15 350 -17 q 115 113 169 47 q 61 276 61 179 l 63 306 l 242 306 l 240 281 q 300 172 240 211 q 464 133 360 133 q 629 165 575 133 q 683 254 683 197 q 651 328 683 299 q 572 374 619 357 q 439 415 525 392 q 255 474 325 446 q 135 559 185 503 q 85 707 85 615 q 190 902 85 835 q 467 969 296 969 q 734 901 631 969 q 838 693 838 832 l 838 676 l 663 676 l 663 692 q 609 785 663 751 q 465 819 556 819 q 317 792 371 819 q 264 714 264 764 q 294 651 264 676 q 372 609 325 625 q 497 572 418 593 q 685 513 613 542 q 810 426 758 483 q 863 279 863 369 q 754 55 863 126 q 460 -17 646 -17 m 397 1022 l 510 1206 l 678 1206 l 679 1201 l 529 1022 l 397 1022 z "},"Ꞌ":{"ha":285,"x_min":67,"x_max":236,"o":"m 67 288 l 67 953 l 236 953 l 236 796 l 172 288 l 67 288 z "},"Š":{"ha":926,"x_min":61,"x_max":863,"o":"m 61 0 m 460 -17 q 260 15 350 -17 q 115 113 169 47 q 61 276 61 179 l 63 306 l 242 306 l 240 281 q 300 172 240 211 q 464 133 360 133 q 629 165 575 133 q 683 254 683 197 q 651 328 683 299 q 572 374 619 357 q 439 415 525 392 q 255 474 325 446 q 135 559 185 503 q 85 707 85 615 q 190 902 85 835 q 467 969 296 969 q 734 901 631 969 q 838 693 838 832 l 838 676 l 663 676 l 663 692 q 609 785 663 751 q 465 819 556 819 q 317 792 371 819 q 264 714 264 764 q 294 651 264 676 q 372 609 325 625 q 497 572 418 593 q 685 513 613 542 q 810 426 758 483 q 863 279 863 369 q 754 55 863 126 q 460 -17 646 -17 m 389 1018 l 242 1206 l 385 1206 l 464 1106 l 542 1206 l 685 1206 l 539 1018 l 389 1018 z "},"Ş":{"ha":926,"x_min":61,"x_max":863,"o":"m 467 -253 q 326 -242 390 -253 l 326 -174 l 456 -174 q 501 -167 486 -174 q 515 -140 515 -160 q 503 -115 515 -122 q 458 -107 490 -107 l 397 -107 l 413 -14 q 160 69 258 -6 q 61 276 61 143 l 63 306 l 242 306 l 240 281 q 300 172 240 211 q 464 133 360 133 q 629 165 575 133 q 683 254 683 197 q 651 328 683 299 q 572 374 619 357 q 439 415 525 392 q 255 474 325 446 q 135 559 185 503 q 85 707 85 615 q 190 902 85 835 q 467 969 296 969 q 734 901 631 969 q 838 693 838 832 l 838 676 l 663 676 l 663 692 q 609 785 663 751 q 465 819 556 819 q 317 792 371 819 q 264 714 264 764 q 294 651 264 676 q 372 609 325 625 q 497 572 418 593 q 685 513 613 542 q 810 426 758 483 q 863 279 863 369 q 771 67 863 139 q 519 -14 679 -4 l 514 -47 q 610 -73 574 -50 q 647 -140 647 -96 q 592 -228 647 -203 q 467 -253 538 -253 z "},"Ŝ":{"ha":926,"x_min":61,"x_max":863,"o":"m 61 0 m 460 -17 q 260 15 350 -17 q 115 113 169 47 q 61 276 61 179 l 63 306 l 242 306 l 240 281 q 300 172 240 211 q 464 133 360 133 q 629 165 575 133 q 683 254 683 197 q 651 328 683 299 q 572 374 619 357 q 439 415 525 392 q 255 474 325 446 q 135 559 185 503 q 85 707 85 615 q 190 902 85 835 q 467 969 296 969 q 734 901 631 969 q 838 693 838 832 l 838 676 l 663 676 l 663 692 q 609 785 663 751 q 465 819 556 819 q 317 792 371 819 q 264 714 264 764 q 294 651 264 676 q 372 609 325 625 q 497 572 418 593 q 685 513 613 542 q 810 426 758 483 q 863 279 863 369 q 754 55 863 126 q 460 -17 646 -17 m 242 1018 l 389 1206 l 539 1206 l 685 1018 l 542 1018 l 464 1118 l 385 1018 l 242 1018 z "},"Ș":{"ha":926,"x_min":61,"x_max":863,"o":"m 61 0 m 460 -17 q 260 15 350 -17 q 115 113 169 47 q 61 276 61 179 l 63 306 l 242 306 l 240 281 q 300 172 240 211 q 464 133 360 133 q 629 165 575 133 q 683 254 683 197 q 651 328 683 299 q 572 374 619 357 q 439 415 525 392 q 255 474 325 446 q 135 559 185 503 q 85 707 85 615 q 190 902 85 835 q 467 969 296 969 q 734 901 631 969 q 838 693 838 832 l 838 676 l 663 676 l 663 692 q 609 785 663 751 q 465 819 556 819 q 317 792 371 819 q 264 714 264 764 q 294 651 264 676 q 372 609 325 625 q 497 572 418 593 q 685 513 613 542 q 810 426 758 483 q 863 279 863 369 q 754 55 863 126 q 460 -17 646 -17 m 383 -319 l 447 -197 l 381 -197 l 381 -64 l 547 -64 l 547 -183 l 469 -319 l 383 -319 z "},"Ṣ":{"ha":926,"x_min":61,"x_max":863,"o":"m 61 0 m 460 -17 q 260 15 350 -17 q 115 113 169 47 q 61 276 61 179 l 63 306 l 242 306 l 240 281 q 300 172 240 211 q 464 133 360 133 q 629 165 575 133 q 683 254 683 197 q 651 328 683 299 q 572 374 619 357 q 439 415 525 392 q 255 474 325 446 q 135 559 185 503 q 85 707 85 615 q 190 902 85 835 q 467 969 296 969 q 734 901 631 969 q 838 693 838 832 l 838 676 l 663 676 l 663 692 q 609 785 663 751 q 465 819 556 819 q 317 792 371 819 q 264 714 264 764 q 294 651 264 676 q 372 609 325 625 q 497 572 418 593 q 685 513 613 542 q 810 426 758 483 q 863 279 863 369 q 754 55 863 126 q 460 -17 646 -17 m 381 -240 l 381 -76 l 544 -76 l 544 -240 l 381 -240 z "},"ẞ":{"ha":1094,"x_min":99,"x_max":1019,"o":"m 99 557 q 222 864 99 758 q 564 969 344 969 q 776 935 683 969 q 921 839 869 901 q 972 694 972 776 q 936 566 972 624 q 846 488 900 508 l 846 482 q 973 403 926 461 q 1019 261 1019 346 q 983 127 1019 186 q 879 34 947 68 q 719 0 811 0 l 406 0 l 406 153 l 701 153 q 801 190 765 153 q 838 276 838 226 q 794 362 838 329 q 674 394 750 394 l 406 394 l 406 549 l 669 549 q 757 588 724 549 q 790 679 790 626 q 736 782 790 744 q 578 819 682 819 q 276 547 276 819 l 276 0 l 99 0 l 99 557 z "},"Ə":{"ha":1053,"x_min":61,"x_max":985,"o":"m 521 -17 q 177 96 293 -17 q 61 449 61 208 l 61 522 l 801 522 q 722 751 794 676 q 504 825 650 825 q 309 776 383 825 q 235 624 235 726 l 61 624 q 183 882 61 794 q 513 969 306 969 q 867 848 750 969 q 985 471 985 726 q 871 102 985 221 q 521 -17 757 -17 m 526 129 q 720 189 656 129 q 799 383 785 249 l 246 383 q 320 190 246 251 q 526 129 394 129 z "},"T":{"ha":849,"x_min":29,"x_max":819,"o":"m 336 0 l 336 800 l 29 800 l 29 953 l 819 953 l 819 800 l 513 800 l 513 0 l 336 0 z "},"Ŧ":{"ha":849,"x_min":29,"x_max":819,"o":"m 336 0 l 336 503 l 204 503 l 204 619 l 336 619 l 336 800 l 29 800 l 29 953 l 819 953 l 819 800 l 513 800 l 513 619 l 644 619 l 644 503 l 513 503 l 513 0 l 336 0 z "},"Ť":{"ha":849,"x_min":29,"x_max":819,"o":"m 29 0 m 336 0 l 336 800 l 29 800 l 29 953 l 819 953 l 819 800 l 513 800 l 513 0 l 336 0 m 350 1018 l 203 1206 l 346 1206 l 425 1106 l 503 1206 l 646 1206 l 500 1018 l 350 1018 z "},"Ţ":{"ha":849,"x_min":29,"x_max":819,"o":"m 475 0 l 468 -47 q 565 -73 528 -50 q 601 -140 601 -96 q 547 -228 601 -203 q 421 -253 492 -253 q 281 -242 344 -253 l 281 -174 l 410 -174 q 455 -167 440 -174 q 469 -140 469 -160 q 457 -115 469 -122 q 413 -107 444 -107 l 351 -107 l 368 0 l 336 0 l 336 800 l 29 800 l 29 953 l 819 953 l 819 800 l 513 800 l 513 0 l 475 0 z "},"Ț":{"ha":849,"x_min":29,"x_max":819,"o":"m 29 0 m 336 0 l 336 800 l 29 800 l 29 953 l 819 953 l 819 800 l 513 800 l 513 0 l 336 0 m 344 -319 l 408 -197 l 342 -197 l 342 -64 l 508 -64 l 508 -183 l 431 -319 l 344 -319 z "},"Ṭ":{"ha":849,"x_min":29,"x_max":819,"o":"m 29 0 m 336 0 l 336 800 l 29 800 l 29 953 l 819 953 l 819 800 l 513 800 l 513 0 l 336 0 m 342 -240 l 342 -76 l 506 -76 l 506 -240 l 342 -240 z "},"U":{"ha":1003,"x_min":99,"x_max":904,"o":"m 500 -17 q 203 76 308 -17 q 99 353 99 169 l 99 953 l 276 953 l 276 357 q 335 190 276 247 q 500 133 393 133 q 667 190 607 133 q 726 357 726 247 l 726 953 l 904 953 l 904 353 q 799 76 904 169 q 500 -17 693 -17 z "},"Ú":{"ha":1003,"x_min":99,"x_max":904,"o":"m 99 0 m 500 -17 q 203 76 308 -17 q 99 353 99 169 l 99 953 l 276 953 l 276 357 q 335 190 276 247 q 500 133 393 133 q 667 190 607 133 q 726 357 726 247 l 726 953 l 904 953 l 904 353 q 799 76 904 169 q 500 -17 693 -17 m 435 1022 l 547 1206 l 715 1206 l 717 1201 l 567 1022 l 435 1022 z "},"Ŭ":{"ha":1003,"x_min":99,"x_max":904,"o":"m 99 0 m 500 -17 q 203 76 308 -17 q 99 353 99 169 l 99 953 l 276 953 l 276 357 q 335 190 276 247 q 500 133 393 133 q 667 190 607 133 q 726 357 726 247 l 726 953 l 904 953 l 904 353 q 799 76 904 169 q 500 -17 693 -17 m 500 1025 q 338 1078 390 1025 q 285 1206 285 1132 l 394 1206 q 425 1157 400 1178 q 500 1136 450 1136 q 576 1158 550 1136 q 607 1206 603 1179 l 717 1206 q 663 1078 717 1132 q 500 1025 610 1025 z "},"Ǔ":{"ha":1003,"x_min":99,"x_max":904,"o":"m 99 0 m 500 -17 q 203 76 308 -17 q 99 353 99 169 l 99 953 l 276 953 l 276 357 q 335 190 276 247 q 500 133 393 133 q 667 190 607 133 q 726 357 726 247 l 726 953 l 904 953 l 904 353 q 799 76 904 169 q 500 -17 693 -17 m 426 1018 l 279 1206 l 422 1206 l 501 1106 l 579 1206 l 722 1206 l 576 1018 l 426 1018 z "},"Û":{"ha":1003,"x_min":99,"x_max":904,"o":"m 99 0 m 500 -17 q 203 76 308 -17 q 99 353 99 169 l 99 953 l 276 953 l 276 357 q 335 190 276 247 q 500 133 393 133 q 667 190 607 133 q 726 357 726 247 l 726 953 l 904 953 l 904 353 q 799 76 904 169 q 500 -17 693 -17 m 279 1018 l 426 1206 l 576 1206 l 722 1018 l 579 1018 l 501 1118 l 422 1018 l 279 1018 z "},"Ȕ":{"ha":1003,"x_min":99,"x_max":904,"o":"m 99 0 m 500 -17 q 203 76 308 -17 q 99 353 99 169 l 99 953 l 276 953 l 276 357 q 335 190 276 247 q 500 133 393 133 q 667 190 607 133 q 726 357 726 247 l 726 953 l 904 953 l 904 353 q 799 76 904 169 q 500 -17 693 -17 m 349 1022 l 210 1201 l 211 1206 l 378 1206 l 481 1022 l 349 1022 m 574 1022 l 435 1201 l 436 1206 l 604 1206 l 706 1022 l 574 1022 z "},"Ü":{"ha":1003,"x_min":99,"x_max":904,"o":"m 99 0 m 500 -17 q 203 76 308 -17 q 99 353 99 169 l 99 953 l 276 953 l 276 357 q 335 190 276 247 q 500 133 393 133 q 667 190 607 133 q 726 357 726 247 l 726 953 l 904 953 l 904 353 q 799 76 904 169 q 500 -17 693 -17 m 288 1053 l 288 1206 l 436 1206 l 436 1053 l 288 1053 m 568 1053 l 568 1206 l 718 1206 l 718 1053 l 568 1053 z "},"Ǘ":{"ha":1003,"x_min":99,"x_max":904,"o":"m 99 0 m 500 -17 q 203 76 308 -17 q 99 353 99 169 l 99 953 l 276 953 l 276 357 q 335 190 276 247 q 500 133 393 133 q 667 190 607 133 q 726 357 726 247 l 726 953 l 904 953 l 904 353 q 799 76 904 169 q 500 -17 693 -17 m 288 1053 l 288 1206 l 436 1206 l 436 1053 l 288 1053 m 568 1053 l 568 1206 l 718 1206 l 718 1053 l 568 1053 m 435 1254 l 547 1438 l 715 1438 l 717 1433 l 567 1254 l 435 1254 z "},"Ǚ":{"ha":1003,"x_min":99,"x_max":904,"o":"m 99 0 m 500 -17 q 203 76 308 -17 q 99 353 99 169 l 99 953 l 276 953 l 276 357 q 335 190 276 247 q 500 133 393 133 q 667 190 607 133 q 726 357 726 247 l 726 953 l 904 953 l 904 353 q 799 76 904 169 q 500 -17 693 -17 m 288 1053 l 288 1206 l 436 1206 l 436 1053 l 288 1053 m 568 1053 l 568 1206 l 718 1206 l 718 1053 l 568 1053 m 426 1250 l 279 1438 l 422 1438 l 501 1338 l 579 1438 l 722 1438 l 576 1250 l 426 1250 z "},"Ǜ":{"ha":1003,"x_min":99,"x_max":904,"o":"m 99 0 m 500 -17 q 203 76 308 -17 q 99 353 99 169 l 99 953 l 276 953 l 276 357 q 335 190 276 247 q 500 133 393 133 q 667 190 607 133 q 726 357 726 247 l 726 953 l 904 953 l 904 353 q 799 76 904 169 q 500 -17 693 -17 m 288 1053 l 288 1206 l 436 1206 l 436 1053 l 288 1053 m 568 1053 l 568 1206 l 718 1206 l 718 1053 l 568 1053 m 435 1254 l 285 1433 l 286 1438 l 453 1438 l 567 1254 l 435 1254 z "},"Ǖ":{"ha":1003,"x_min":99,"x_max":904,"o":"m 99 0 m 500 -17 q 203 76 308 -17 q 99 353 99 169 l 99 953 l 276 953 l 276 357 q 335 190 276 247 q 500 133 393 133 q 667 190 607 133 q 726 357 726 247 l 726 953 l 904 953 l 904 353 q 799 76 904 169 q 500 -17 693 -17 m 288 1053 l 288 1206 l 436 1206 l 436 1053 l 288 1053 m 568 1053 l 568 1206 l 718 1206 l 718 1053 l 568 1053 m 289 1290 l 289 1404 l 713 1404 l 713 1290 l 289 1290 z "},"Ụ":{"ha":1003,"x_min":99,"x_max":904,"o":"m 99 0 m 500 -17 q 203 76 308 -17 q 99 353 99 169 l 99 953 l 276 953 l 276 357 q 335 190 276 247 q 500 133 393 133 q 667 190 607 133 q 726 357 726 247 l 726 953 l 904 953 l 904 353 q 799 76 904 169 q 500 -17 693 -17 m 418 -240 l 418 -76 l 582 -76 l 582 -240 l 418 -240 z "},"Ù":{"ha":1003,"x_min":99,"x_max":904,"o":"m 99 0 m 500 -17 q 203 76 308 -17 q 99 353 99 169 l 99 953 l 276 953 l 276 357 q 335 190 276 247 q 500 133 393 133 q 667 190 607 133 q 726 357 726 247 l 726 953 l 904 953 l 904 353 q 799 76 904 169 q 500 -17 693 -17 m 435 1022 l 285 1201 l 286 1206 l 453 1206 l 567 1022 l 435 1022 z "},"Ủ":{"ha":1003,"x_min":99,"x_max":904,"o":"m 99 0 m 500 -17 q 203 76 308 -17 q 99 353 99 169 l 99 953 l 276 953 l 276 357 q 335 190 276 247 q 500 133 393 133 q 667 190 607 133 q 726 357 726 247 l 726 953 l 904 953 l 904 353 q 799 76 904 169 q 500 -17 693 -17 m 457 1100 l 476 1100 q 510 1106 500 1100 q 519 1126 519 1113 q 508 1147 519 1142 q 472 1153 496 1153 l 392 1153 l 392 1211 q 501 1222 443 1222 q 606 1203 561 1222 q 651 1138 651 1185 q 622 1081 651 1100 q 546 1058 592 1061 l 546 1022 l 457 1022 l 457 1100 z "},"Ư":{"ha":1003,"x_min":99,"x_max":1053,"o":"m 1053 1206 l 1053 1131 q 1016 968 1053 1032 q 904 868 979 904 l 904 353 q 799 76 904 169 q 500 -17 693 -17 q 203 76 308 -17 q 99 353 99 169 l 99 953 l 276 953 l 276 357 q 335 190 276 247 q 500 133 393 133 q 667 190 607 133 q 726 357 726 247 l 726 953 l 875 953 q 940 1029 921 979 l 851 1029 l 851 1206 l 1053 1206 z "},"Ứ":{"ha":1003,"x_min":99,"x_max":1053,"o":"m 99 0 m 1053 1206 l 1053 1131 q 1016 968 1053 1032 q 904 868 979 904 l 904 353 q 799 76 904 169 q 500 -17 693 -17 q 203 76 308 -17 q 99 353 99 169 l 99 953 l 276 953 l 276 357 q 335 190 276 247 q 500 133 393 133 q 667 190 607 133 q 726 357 726 247 l 726 953 l 875 953 q 940 1029 921 979 l 851 1029 l 851 1206 l 1053 1206 m 435 1022 l 547 1206 l 715 1206 l 717 1201 l 567 1022 l 435 1022 z "},"Ự":{"ha":1003,"x_min":99,"x_max":1053,"o":"m 99 0 m 1053 1206 l 1053 1131 q 1016 968 1053 1032 q 904 868 979 904 l 904 353 q 799 76 904 169 q 500 -17 693 -17 q 203 76 308 -17 q 99 353 99 169 l 99 953 l 276 953 l 276 357 q 335 190 276 247 q 500 133 393 133 q 667 190 607 133 q 726 357 726 247 l 726 953 l 875 953 q 940 1029 921 979 l 851 1029 l 851 1206 l 1053 1206 m 418 -240 l 418 -76 l 582 -76 l 582 -240 l 418 -240 z "},"Ừ":{"ha":1003,"x_min":99,"x_max":1053,"o":"m 99 0 m 1053 1206 l 1053 1131 q 1016 968 1053 1032 q 904 868 979 904 l 904 353 q 799 76 904 169 q 500 -17 693 -17 q 203 76 308 -17 q 99 353 99 169 l 99 953 l 276 953 l 276 357 q 335 190 276 247 q 500 133 393 133 q 667 190 607 133 q 726 357 726 247 l 726 953 l 875 953 q 940 1029 921 979 l 851 1029 l 851 1206 l 1053 1206 m 435 1022 l 285 1201 l 286 1206 l 453 1206 l 567 1022 l 435 1022 z "},"Ử":{"ha":1003,"x_min":99,"x_max":1053,"o":"m 99 0 m 1053 1206 l 1053 1131 q 1016 968 1053 1032 q 904 868 979 904 l 904 353 q 799 76 904 169 q 500 -17 693 -17 q 203 76 308 -17 q 99 353 99 169 l 99 953 l 276 953 l 276 357 q 335 190 276 247 q 500 133 393 133 q 667 190 607 133 q 726 357 726 247 l 726 953 l 875 953 q 940 1029 921 979 l 851 1029 l 851 1206 l 1053 1206 m 457 1100 l 476 1100 q 510 1106 500 1100 q 519 1126 519 1113 q 508 1147 519 1142 q 472 1153 496 1153 l 392 1153 l 392 1211 q 501 1222 443 1222 q 606 1203 561 1222 q 651 1138 651 1185 q 622 1081 651 1100 q 546 1058 592 1061 l 546 1022 l 457 1022 l 457 1100 z "},"Ữ":{"ha":1003,"x_min":99,"x_max":1053,"o":"m 99 0 m 1053 1206 l 1053 1131 q 1016 968 1053 1032 q 904 868 979 904 l 904 353 q 799 76 904 169 q 500 -17 693 -17 q 203 76 308 -17 q 99 353 99 169 l 99 953 l 276 953 l 276 357 q 335 190 276 247 q 500 133 393 133 q 667 190 607 133 q 726 357 726 247 l 726 953 l 875 953 q 940 1029 921 979 l 851 1029 l 851 1206 l 1053 1206 m 269 1044 q 302 1160 269 1115 q 400 1206 335 1206 q 447 1199 424 1206 q 501 1181 471 1193 q 592 1157 557 1157 q 638 1206 632 1157 l 732 1206 q 699 1090 732 1135 q 601 1044 667 1044 q 556 1051 578 1044 q 501 1069 533 1057 q 452 1087 472 1081 q 410 1093 432 1093 q 365 1044 371 1093 l 269 1044 z "},"Ű":{"ha":1003,"x_min":99,"x_max":904,"o":"m 99 0 m 500 -17 q 203 76 308 -17 q 99 353 99 169 l 99 953 l 276 953 l 276 357 q 335 190 276 247 q 500 133 393 133 q 667 190 607 133 q 726 357 726 247 l 726 953 l 904 953 l 904 353 q 799 76 904 169 q 500 -17 693 -17 m 322 1022 l 424 1206 l 592 1206 l 593 1201 l 454 1022 l 322 1022 m 547 1022 l 650 1206 l 817 1206 l 818 1201 l 679 1022 l 547 1022 z "},"Ȗ":{"ha":1003,"x_min":99,"x_max":904,"o":"m 99 0 m 500 -17 q 203 76 308 -17 q 99 353 99 169 l 99 953 l 276 953 l 276 357 q 335 190 276 247 q 500 133 393 133 q 667 190 607 133 q 726 357 726 247 l 726 953 l 904 953 l 904 353 q 799 76 904 169 q 500 -17 693 -17 m 285 1025 q 338 1152 285 1099 q 500 1206 390 1206 q 663 1152 610 1206 q 717 1025 717 1099 l 607 1025 q 576 1073 603 1051 q 500 1094 550 1094 q 425 1074 450 1094 q 394 1025 400 1053 l 285 1025 z "},"Ū":{"ha":1003,"x_min":99,"x_max":904,"o":"m 99 0 m 500 -17 q 203 76 308 -17 q 99 353 99 169 l 99 953 l 276 953 l 276 357 q 335 190 276 247 q 500 133 393 133 q 667 190 607 133 q 726 357 726 247 l 726 953 l 904 953 l 904 353 q 799 76 904 169 q 500 -17 693 -17 m 289 1058 l 289 1172 l 713 1172 l 713 1058 l 289 1058 z "},"Ų":{"ha":1003,"x_min":99,"x_max":904,"o":"m 604 -253 q 501 -224 543 -253 q 458 -129 458 -194 q 499 -17 458 -69 q 203 76 307 -17 q 99 353 99 169 l 99 953 l 276 953 l 276 357 q 335 190 276 247 q 500 133 393 133 q 667 190 607 133 q 726 357 726 247 l 726 953 l 904 953 l 904 353 q 832 112 904 201 q 625 -4 760 22 q 592 -86 592 -46 q 608 -138 592 -118 q 661 -158 625 -158 l 697 -158 l 697 -233 q 604 -253 647 -253 z "},"Ů":{"ha":1003,"x_min":99,"x_max":904,"o":"m 99 0 m 500 -17 q 203 76 308 -17 q 99 353 99 169 l 99 953 l 276 953 l 276 357 q 335 190 276 247 q 500 133 393 133 q 667 190 607 133 q 726 357 726 247 l 726 953 l 904 953 l 904 353 q 799 76 904 169 q 500 -17 693 -17 m 501 978 q 401 1017 439 978 q 364 1117 364 1057 q 401 1215 364 1176 q 501 1254 439 1254 q 601 1215 564 1254 q 639 1117 639 1176 q 601 1017 639 1057 q 501 978 564 978 m 501 1051 q 547 1070 529 1051 q 565 1117 565 1089 q 547 1163 565 1144 q 501 1181 529 1181 q 455 1163 472 1181 q 438 1117 438 1144 q 455 1070 438 1089 q 501 1051 472 1051 z "},"Ũ":{"ha":1003,"x_min":99,"x_max":904,"o":"m 99 0 m 500 -17 q 203 76 308 -17 q 99 353 99 169 l 99 953 l 276 953 l 276 357 q 335 190 276 247 q 500 133 393 133 q 667 190 607 133 q 726 357 726 247 l 726 953 l 904 953 l 904 353 q 799 76 904 169 q 500 -17 693 -17 m 269 1044 q 302 1160 269 1115 q 400 1206 335 1206 q 447 1199 424 1206 q 501 1181 471 1193 q 592 1157 557 1157 q 638 1206 632 1157 l 732 1206 q 699 1090 732 1135 q 601 1044 667 1044 q 556 1051 578 1044 q 501 1069 533 1057 q 452 1087 472 1081 q 410 1093 432 1093 q 365 1044 371 1093 l 269 1044 z "},"V":{"ha":926,"x_min":11,"x_max":914,"o":"m 11 953 l 203 953 l 407 371 q 444 261 419 338 q 465 199 463 204 l 472 199 q 528 372 508 318 l 731 953 l 914 953 l 567 0 l 360 0 l 11 953 z "},"W":{"ha":1311,"x_min":7,"x_max":1304,"o":"m 7 953 l 196 953 l 353 336 q 367 264 358 313 q 379 199 376 215 l 386 199 q 396 258 389 215 q 410 336 403 301 l 553 953 l 778 953 l 921 336 q 936 256 929 297 q 946 199 943 214 l 953 199 q 965 262 956 214 q 981 336 974 310 l 1136 953 l 1304 953 l 1043 0 l 838 0 l 683 628 q 667 708 675 661 q 657 769 660 754 l 651 769 q 642 711 649 754 q 626 628 635 668 l 474 0 l 268 0 l 7 953 z "},"Ẃ":{"ha":1311,"x_min":7,"x_max":1304,"o":"m 7 0 m 7 953 l 196 953 l 353 336 q 367 264 358 313 q 379 199 376 215 l 386 199 q 396 258 389 215 q 410 336 403 301 l 553 953 l 778 953 l 921 336 q 936 256 929 297 q 946 199 943 214 l 953 199 q 965 262 956 214 q 981 336 974 310 l 1136 953 l 1304 953 l 1043 0 l 838 0 l 683 628 q 667 708 675 661 q 657 769 660 754 l 651 769 q 642 711 649 754 q 626 628 635 668 l 474 0 l 268 0 l 7 953 m 589 1022 l 701 1206 l 869 1206 l 871 1201 l 721 1022 l 589 1022 z "},"Ŵ":{"ha":1311,"x_min":7,"x_max":1304,"o":"m 7 0 m 7 953 l 196 953 l 353 336 q 367 264 358 313 q 379 199 376 215 l 386 199 q 396 258 389 215 q 410 336 403 301 l 553 953 l 778 953 l 921 336 q 936 256 929 297 q 946 199 943 214 l 953 199 q 965 262 956 214 q 981 336 974 310 l 1136 953 l 1304 953 l 1043 0 l 838 0 l 683 628 q 667 708 675 661 q 657 769 660 754 l 651 769 q 642 711 649 754 q 626 628 635 668 l 474 0 l 268 0 l 7 953 m 433 1018 l 581 1206 l 731 1206 l 876 1018 l 733 1018 l 656 1118 l 576 1018 l 433 1018 z "},"Ẅ":{"ha":1311,"x_min":7,"x_max":1304,"o":"m 7 0 m 7 953 l 196 953 l 353 336 q 367 264 358 313 q 379 199 376 215 l 386 199 q 396 258 389 215 q 410 336 403 301 l 553 953 l 778 953 l 921 336 q 936 256 929 297 q 946 199 943 214 l 953 199 q 965 262 956 214 q 981 336 974 310 l 1136 953 l 1304 953 l 1043 0 l 838 0 l 683 628 q 667 708 675 661 q 657 769 660 754 l 651 769 q 642 711 649 754 q 626 628 635 668 l 474 0 l 268 0 l 7 953 m 442 1053 l 442 1206 l 590 1206 l 590 1053 l 442 1053 m 722 1053 l 722 1206 l 872 1206 l 872 1053 l 722 1053 z "},"Ẁ":{"ha":1311,"x_min":7,"x_max":1304,"o":"m 7 0 m 7 953 l 196 953 l 353 336 q 367 264 358 313 q 379 199 376 215 l 386 199 q 396 258 389 215 q 410 336 403 301 l 553 953 l 778 953 l 921 336 q 936 256 929 297 q 946 199 943 214 l 953 199 q 965 262 956 214 q 981 336 974 310 l 1136 953 l 1304 953 l 1043 0 l 838 0 l 683 628 q 667 708 675 661 q 657 769 660 754 l 651 769 q 642 711 649 754 q 626 628 635 668 l 474 0 l 268 0 l 7 953 m 589 1022 l 439 1201 l 440 1206 l 607 1206 l 721 1022 l 589 1022 z "},"X":{"ha":926,"x_min":3,"x_max":924,"o":"m 3 0 l 347 500 l 33 953 l 250 953 l 464 633 l 472 633 l 686 953 l 890 953 l 576 501 l 924 0 l 708 0 l 460 369 l 451 369 l 207 0 l 3 0 z "},"Y":{"ha":926,"x_min":8,"x_max":919,"o":"m 376 0 l 376 388 l 8 953 l 213 953 l 467 547 l 474 547 l 724 953 l 919 953 l 553 388 l 553 0 l 376 0 z "},"Ý":{"ha":926,"x_min":8,"x_max":919,"o":"m 8 0 m 376 0 l 376 388 l 8 953 l 213 953 l 467 547 l 474 547 l 724 953 l 919 953 l 553 388 l 553 0 l 376 0 m 397 1022 l 510 1206 l 678 1206 l 679 1201 l 529 1022 l 397 1022 z "},"Ŷ":{"ha":926,"x_min":8,"x_max":919,"o":"m 8 0 m 376 0 l 376 388 l 8 953 l 213 953 l 467 547 l 474 547 l 724 953 l 919 953 l 553 388 l 553 0 l 376 0 m 242 1018 l 389 1206 l 539 1206 l 685 1018 l 542 1018 l 464 1118 l 385 1018 l 242 1018 z "},"Ÿ":{"ha":926,"x_min":8,"x_max":919,"o":"m 8 0 m 376 0 l 376 388 l 8 953 l 213 953 l 467 547 l 474 547 l 724 953 l 919 953 l 553 388 l 553 0 l 376 0 m 250 1053 l 250 1206 l 399 1206 l 399 1053 l 250 1053 m 531 1053 l 531 1206 l 681 1206 l 681 1053 l 531 1053 z "},"Ỵ":{"ha":926,"x_min":8,"x_max":919,"o":"m 8 0 m 376 0 l 376 388 l 8 953 l 213 953 l 467 547 l 474 547 l 724 953 l 919 953 l 553 388 l 553 0 l 376 0 m 381 -240 l 381 -76 l 544 -76 l 544 -240 l 381 -240 z "},"Ỳ":{"ha":926,"x_min":8,"x_max":919,"o":"m 8 0 m 376 0 l 376 388 l 8 953 l 213 953 l 467 547 l 474 547 l 724 953 l 919 953 l 553 388 l 553 0 l 376 0 m 397 1022 l 247 1201 l 249 1206 l 415 1206 l 529 1022 l 397 1022 z "},"Ỷ":{"ha":926,"x_min":8,"x_max":919,"o":"m 8 0 m 376 0 l 376 388 l 8 953 l 213 953 l 467 547 l 474 547 l 724 953 l 919 953 l 553 388 l 553 0 l 376 0 m 419 1100 l 439 1100 q 472 1106 463 1100 q 482 1126 482 1113 q 470 1147 482 1142 q 435 1153 458 1153 l 354 1153 l 354 1211 q 464 1222 406 1222 q 569 1203 524 1222 q 614 1138 614 1185 q 584 1081 614 1100 q 508 1058 554 1061 l 508 1022 l 419 1022 l 419 1100 z "},"Ȳ":{"ha":926,"x_min":8,"x_max":919,"o":"m 8 0 m 376 0 l 376 388 l 8 953 l 213 953 l 467 547 l 474 547 l 724 953 l 919 953 l 553 388 l 553 0 l 376 0 m 251 1058 l 251 1172 l 675 1172 l 675 1058 l 251 1058 z "},"Ỹ":{"ha":926,"x_min":8,"x_max":919,"o":"m 8 0 m 376 0 l 376 388 l 8 953 l 213 953 l 467 547 l 474 547 l 724 953 l 919 953 l 553 388 l 553 0 l 376 0 m 232 1044 q 265 1160 232 1115 q 363 1206 297 1206 q 410 1199 386 1206 q 464 1181 433 1193 q 554 1157 519 1157 q 600 1206 594 1157 l 694 1206 q 662 1090 694 1135 q 564 1044 629 1044 q 518 1051 540 1044 q 464 1069 496 1057 q 415 1087 435 1081 q 372 1093 394 1093 q 328 1044 333 1093 l 232 1044 z "},"Z":{"ha":849,"x_min":26,"x_max":815,"o":"m 26 0 l 26 85 l 540 801 l 63 801 l 63 953 l 803 953 l 803 867 l 290 151 l 815 151 l 815 0 l 26 0 z "},"Ź":{"ha":849,"x_min":26,"x_max":815,"o":"m 26 0 m 26 0 l 26 85 l 540 801 l 63 801 l 63 953 l 803 953 l 803 867 l 290 151 l 815 151 l 815 0 l 26 0 m 358 1022 l 471 1206 l 639 1206 l 640 1201 l 490 1022 l 358 1022 z "},"Ž":{"ha":849,"x_min":26,"x_max":815,"o":"m 26 0 m 26 0 l 26 85 l 540 801 l 63 801 l 63 953 l 803 953 l 803 867 l 290 151 l 815 151 l 815 0 l 26 0 m 350 1018 l 203 1206 l 346 1206 l 425 1106 l 503 1206 l 646 1206 l 500 1018 l 350 1018 z "},"Ż":{"ha":849,"x_min":26,"x_max":815,"o":"m 26 0 m 26 0 l 26 85 l 540 801 l 63 801 l 63 953 l 803 953 l 803 867 l 290 151 l 815 151 l 815 0 l 26 0 m 342 1043 l 342 1207 l 506 1207 l 506 1043 l 342 1043 z "},"Ẓ":{"ha":849,"x_min":26,"x_max":815,"o":"m 26 0 m 26 0 l 26 85 l 540 801 l 63 801 l 63 953 l 803 953 l 803 867 l 290 151 l 815 151 l 815 0 l 26 0 m 342 -240 l 342 -76 l 506 -76 l 506 -240 l 342 -240 z "},"a":{"ha":772,"x_min":43,"x_max":761,"o":"m 275 -17 q 115 27 186 -17 q 43 189 43 71 q 163 386 43 329 q 501 443 282 443 l 501 504 q 474 586 501 557 q 376 615 447 615 q 272 592 303 615 q 242 533 242 568 l 242 514 l 81 514 q 79 544 79 522 q 160 693 79 639 q 376 747 242 747 q 595 688 522 747 q 668 517 668 628 l 668 168 q 682 131 668 143 q 717 119 696 119 l 761 119 l 761 6 q 657 -15 717 -15 q 567 11 603 -15 q 518 83 531 38 l 508 83 q 275 -17 426 -17 m 325 117 q 454 164 407 117 q 501 292 501 211 l 501 325 q 290 299 367 325 q 214 206 214 274 q 325 117 214 117 z "},"á":{"ha":772,"x_min":43,"x_max":761,"o":"m 43 0 m 275 -17 q 115 27 186 -17 q 43 189 43 71 q 163 386 43 329 q 501 443 282 443 l 501 504 q 474 586 501 557 q 376 615 447 615 q 272 592 303 615 q 242 533 242 568 l 242 514 l 81 514 q 79 544 79 522 q 160 693 79 639 q 376 747 242 747 q 595 688 522 747 q 668 517 668 628 l 668 168 q 682 131 668 143 q 717 119 696 119 l 761 119 l 761 6 q 657 -15 717 -15 q 567 11 603 -15 q 518 83 531 38 l 508 83 q 275 -17 426 -17 m 325 117 q 454 164 407 117 q 501 292 501 211 l 501 325 q 290 299 367 325 q 214 206 214 274 q 325 117 214 117 m 319 821 l 432 1004 l 600 1004 l 601 1000 l 451 821 l 319 821 z "},"ă":{"ha":772,"x_min":43,"x_max":761,"o":"m 43 0 m 275 -17 q 115 27 186 -17 q 43 189 43 71 q 163 386 43 329 q 501 443 282 443 l 501 504 q 474 586 501 557 q 376 615 447 615 q 272 592 303 615 q 242 533 242 568 l 242 514 l 81 514 q 79 544 79 522 q 160 693 79 639 q 376 747 242 747 q 595 688 522 747 q 668 517 668 628 l 668 168 q 682 131 668 143 q 717 119 696 119 l 761 119 l 761 6 q 657 -15 717 -15 q 567 11 603 -15 q 518 83 531 38 l 508 83 q 275 -17 426 -17 m 325 117 q 454 164 407 117 q 501 292 501 211 l 501 325 q 290 299 367 325 q 214 206 214 274 q 325 117 214 117 m 385 824 q 222 877 275 824 q 169 1004 169 931 l 279 1004 q 310 956 285 976 q 385 935 335 935 q 461 956 435 935 q 492 1004 488 978 l 601 1004 q 548 877 601 931 q 385 824 494 824 z "},"ắ":{"ha":772,"x_min":43,"x_max":761,"o":"m 43 0 m 275 -17 q 115 27 186 -17 q 43 189 43 71 q 163 386 43 329 q 501 443 282 443 l 501 504 q 474 586 501 557 q 376 615 447 615 q 272 592 303 615 q 242 533 242 568 l 242 514 l 81 514 q 79 544 79 522 q 160 693 79 639 q 376 747 242 747 q 595 688 522 747 q 668 517 668 628 l 668 168 q 682 131 668 143 q 717 119 696 119 l 761 119 l 761 6 q 657 -15 717 -15 q 567 11 603 -15 q 518 83 531 38 l 508 83 q 275 -17 426 -17 m 325 117 q 454 164 407 117 q 501 292 501 211 l 501 325 q 290 299 367 325 q 214 206 214 274 q 325 117 214 117 m 385 824 q 222 877 275 824 q 169 1004 169 931 l 279 1004 q 310 956 285 976 q 385 935 335 935 q 461 956 435 935 q 492 1004 488 978 l 601 1004 q 548 877 601 931 q 385 824 494 824 m 319 1004 l 432 1188 l 600 1188 l 601 1183 l 451 1004 l 319 1004 z "},"ặ":{"ha":772,"x_min":43,"x_max":761,"o":"m 43 0 m 275 -17 q 115 27 186 -17 q 43 189 43 71 q 163 386 43 329 q 501 443 282 443 l 501 504 q 474 586 501 557 q 376 615 447 615 q 272 592 303 615 q 242 533 242 568 l 242 514 l 81 514 q 79 544 79 522 q 160 693 79 639 q 376 747 242 747 q 595 688 522 747 q 668 517 668 628 l 668 168 q 682 131 668 143 q 717 119 696 119 l 761 119 l 761 6 q 657 -15 717 -15 q 567 11 603 -15 q 518 83 531 38 l 508 83 q 275 -17 426 -17 m 325 117 q 454 164 407 117 q 501 292 501 211 l 501 325 q 290 299 367 325 q 214 206 214 274 q 325 117 214 117 m 385 824 q 222 877 275 824 q 169 1004 169 931 l 279 1004 q 310 956 285 976 q 385 935 335 935 q 461 956 435 935 q 492 1004 488 978 l 601 1004 q 548 877 601 931 q 385 824 494 824 m 303 -240 l 303 -76 l 467 -76 l 467 -240 l 303 -240 z "},"ằ":{"ha":772,"x_min":43,"x_max":761,"o":"m 43 0 m 275 -17 q 115 27 186 -17 q 43 189 43 71 q 163 386 43 329 q 501 443 282 443 l 501 504 q 474 586 501 557 q 376 615 447 615 q 272 592 303 615 q 242 533 242 568 l 242 514 l 81 514 q 79 544 79 522 q 160 693 79 639 q 376 747 242 747 q 595 688 522 747 q 668 517 668 628 l 668 168 q 682 131 668 143 q 717 119 696 119 l 761 119 l 761 6 q 657 -15 717 -15 q 567 11 603 -15 q 518 83 531 38 l 508 83 q 275 -17 426 -17 m 325 117 q 454 164 407 117 q 501 292 501 211 l 501 325 q 290 299 367 325 q 214 206 214 274 q 325 117 214 117 m 385 824 q 222 877 275 824 q 169 1004 169 931 l 279 1004 q 310 956 285 976 q 385 935 335 935 q 461 956 435 935 q 492 1004 488 978 l 601 1004 q 548 877 601 931 q 385 824 494 824 m 322 1004 l 172 1183 l 174 1188 l 340 1188 l 454 1004 l 322 1004 z "},"ẳ":{"ha":772,"x_min":43,"x_max":761,"o":"m 43 0 m 275 -17 q 115 27 186 -17 q 43 189 43 71 q 163 386 43 329 q 501 443 282 443 l 501 504 q 474 586 501 557 q 376 615 447 615 q 272 592 303 615 q 242 533 242 568 l 242 514 l 81 514 q 79 544 79 522 q 160 693 79 639 q 376 747 242 747 q 595 688 522 747 q 668 517 668 628 l 668 168 q 682 131 668 143 q 717 119 696 119 l 761 119 l 761 6 q 657 -15 717 -15 q 567 11 603 -15 q 518 83 531 38 l 508 83 q 275 -17 426 -17 m 325 117 q 454 164 407 117 q 501 292 501 211 l 501 325 q 290 299 367 325 q 214 206 214 274 q 325 117 214 117 m 385 824 q 222 877 275 824 q 169 1004 169 931 l 279 1004 q 310 956 285 976 q 385 935 335 935 q 461 956 435 935 q 492 1004 488 978 l 601 1004 q 548 877 601 931 q 385 824 494 824 m 342 1082 l 361 1082 q 394 1088 385 1082 q 404 1108 404 1094 q 392 1129 404 1124 q 357 1135 381 1135 l 276 1135 l 276 1193 q 386 1204 328 1204 q 491 1185 446 1204 q 536 1119 536 1167 q 506 1063 536 1082 q 431 1040 476 1043 l 431 1004 l 342 1004 l 342 1082 z "},"ẵ":{"ha":772,"x_min":43,"x_max":761,"o":"m 43 0 m 275 -17 q 115 27 186 -17 q 43 189 43 71 q 163 386 43 329 q 501 443 282 443 l 501 504 q 474 586 501 557 q 376 615 447 615 q 272 592 303 615 q 242 533 242 568 l 242 514 l 81 514 q 79 544 79 522 q 160 693 79 639 q 376 747 242 747 q 595 688 522 747 q 668 517 668 628 l 668 168 q 682 131 668 143 q 717 119 696 119 l 761 119 l 761 6 q 657 -15 717 -15 q 567 11 603 -15 q 518 83 531 38 l 508 83 q 275 -17 426 -17 m 325 117 q 454 164 407 117 q 501 292 501 211 l 501 325 q 290 299 367 325 q 214 206 214 274 q 325 117 214 117 m 385 824 q 222 877 275 824 q 169 1004 169 931 l 279 1004 q 310 956 285 976 q 385 935 335 935 q 461 956 435 935 q 492 1004 488 978 l 601 1004 q 548 877 601 931 q 385 824 494 824 m 157 1065 q 190 1181 157 1136 q 288 1226 222 1226 q 335 1220 311 1226 q 389 1201 358 1214 q 479 1178 444 1178 q 525 1226 519 1178 l 619 1226 q 587 1110 619 1156 q 489 1065 554 1065 q 443 1072 465 1065 q 389 1090 421 1078 q 340 1108 360 1101 q 297 1114 319 1114 q 253 1065 258 1114 l 157 1065 z "},"ǎ":{"ha":772,"x_min":43,"x_max":761,"o":"m 43 0 m 275 -17 q 115 27 186 -17 q 43 189 43 71 q 163 386 43 329 q 501 443 282 443 l 501 504 q 474 586 501 557 q 376 615 447 615 q 272 592 303 615 q 242 533 242 568 l 242 514 l 81 514 q 79 544 79 522 q 160 693 79 639 q 376 747 242 747 q 595 688 522 747 q 668 517 668 628 l 668 168 q 682 131 668 143 q 717 119 696 119 l 761 119 l 761 6 q 657 -15 717 -15 q 567 11 603 -15 q 518 83 531 38 l 508 83 q 275 -17 426 -17 m 325 117 q 454 164 407 117 q 501 292 501 211 l 501 325 q 290 299 367 325 q 214 206 214 274 q 325 117 214 117 m 311 817 l 164 1004 l 307 1004 l 386 904 l 464 1004 l 607 1004 l 461 817 l 311 817 z "},"â":{"ha":772,"x_min":43,"x_max":761,"o":"m 43 0 m 275 -17 q 115 27 186 -17 q 43 189 43 71 q 163 386 43 329 q 501 443 282 443 l 501 504 q 474 586 501 557 q 376 615 447 615 q 272 592 303 615 q 242 533 242 568 l 242 514 l 81 514 q 79 544 79 522 q 160 693 79 639 q 376 747 242 747 q 595 688 522 747 q 668 517 668 628 l 668 168 q 682 131 668 143 q 717 119 696 119 l 761 119 l 761 6 q 657 -15 717 -15 q 567 11 603 -15 q 518 83 531 38 l 508 83 q 275 -17 426 -17 m 325 117 q 454 164 407 117 q 501 292 501 211 l 501 325 q 290 299 367 325 q 214 206 214 274 q 325 117 214 117 m 164 817 l 311 1004 l 461 1004 l 607 817 l 464 817 l 386 917 l 307 817 l 164 817 z "},"ấ":{"ha":772,"x_min":43,"x_max":799,"o":"m 43 0 m 275 -17 q 115 27 186 -17 q 43 189 43 71 q 163 386 43 329 q 501 443 282 443 l 501 504 q 474 586 501 557 q 376 615 447 615 q 272 592 303 615 q 242 533 242 568 l 242 514 l 81 514 q 79 544 79 522 q 160 693 79 639 q 376 747 242 747 q 595 688 522 747 q 668 517 668 628 l 668 168 q 682 131 668 143 q 717 119 696 119 l 761 119 l 761 6 q 657 -15 717 -15 q 567 11 603 -15 q 518 83 531 38 l 508 83 q 275 -17 426 -17 m 325 117 q 454 164 407 117 q 501 292 501 211 l 501 325 q 290 299 367 325 q 214 206 214 274 q 325 117 214 117 m 164 817 l 311 1004 l 461 1004 l 607 817 l 464 817 l 386 917 l 307 817 l 164 817 m 517 953 l 629 1136 l 797 1136 l 799 1132 l 649 953 l 517 953 z "},"ậ":{"ha":772,"x_min":43,"x_max":761,"o":"m 43 0 m 275 -17 q 115 27 186 -17 q 43 189 43 71 q 163 386 43 329 q 501 443 282 443 l 501 504 q 474 586 501 557 q 376 615 447 615 q 272 592 303 615 q 242 533 242 568 l 242 514 l 81 514 q 79 544 79 522 q 160 693 79 639 q 376 747 242 747 q 595 688 522 747 q 668 517 668 628 l 668 168 q 682 131 668 143 q 717 119 696 119 l 761 119 l 761 6 q 657 -15 717 -15 q 567 11 603 -15 q 518 83 531 38 l 508 83 q 275 -17 426 -17 m 325 117 q 454 164 407 117 q 501 292 501 211 l 501 325 q 290 299 367 325 q 214 206 214 274 q 325 117 214 117 m 164 817 l 311 1004 l 461 1004 l 607 817 l 464 817 l 386 917 l 307 817 l 164 817 m 303 -240 l 303 -76 l 467 -76 l 467 -240 l 303 -240 z "},"ầ":{"ha":772,"x_min":43,"x_max":761,"o":"m 43 0 m 275 -17 q 115 27 186 -17 q 43 189 43 71 q 163 386 43 329 q 501 443 282 443 l 501 504 q 474 586 501 557 q 376 615 447 615 q 272 592 303 615 q 242 533 242 568 l 242 514 l 81 514 q 79 544 79 522 q 160 693 79 639 q 376 747 242 747 q 595 688 522 747 q 668 517 668 628 l 668 168 q 682 131 668 143 q 717 119 696 119 l 761 119 l 761 6 q 657 -15 717 -15 q 567 11 603 -15 q 518 83 531 38 l 508 83 q 275 -17 426 -17 m 325 117 q 454 164 407 117 q 501 292 501 211 l 501 325 q 290 299 367 325 q 214 206 214 274 q 325 117 214 117 m 164 817 l 311 1004 l 461 1004 l 607 817 l 464 817 l 386 917 l 307 817 l 164 817 m 572 953 l 422 1132 l 424 1136 l 590 1136 l 704 953 l 572 953 z "},"ẩ":{"ha":772,"x_min":43,"x_max":761,"o":"m 43 0 m 275 -17 q 115 27 186 -17 q 43 189 43 71 q 163 386 43 329 q 501 443 282 443 l 501 504 q 474 586 501 557 q 376 615 447 615 q 272 592 303 615 q 242 533 242 568 l 242 514 l 81 514 q 79 544 79 522 q 160 693 79 639 q 376 747 242 747 q 595 688 522 747 q 668 517 668 628 l 668 168 q 682 131 668 143 q 717 119 696 119 l 761 119 l 761 6 q 657 -15 717 -15 q 567 11 603 -15 q 518 83 531 38 l 508 83 q 275 -17 426 -17 m 325 117 q 454 164 407 117 q 501 292 501 211 l 501 325 q 290 299 367 325 q 214 206 214 274 q 325 117 214 117 m 164 817 l 311 1004 l 461 1004 l 607 817 l 464 817 l 386 917 l 307 817 l 164 817 m 539 1031 l 558 1031 q 592 1037 582 1031 q 601 1057 601 1043 q 590 1078 601 1072 q 554 1083 578 1083 l 474 1083 l 474 1142 q 583 1153 525 1153 q 688 1134 643 1153 q 733 1068 733 1115 q 703 1011 733 1031 q 628 989 674 992 l 628 953 l 539 953 l 539 1031 z "},"ẫ":{"ha":772,"x_min":43,"x_max":761,"o":"m 43 0 m 275 -17 q 115 27 186 -17 q 43 189 43 71 q 163 386 43 329 q 501 443 282 443 l 501 504 q 474 586 501 557 q 376 615 447 615 q 272 592 303 615 q 242 533 242 568 l 242 514 l 81 514 q 79 544 79 522 q 160 693 79 639 q 376 747 242 747 q 595 688 522 747 q 668 517 668 628 l 668 168 q 682 131 668 143 q 717 119 696 119 l 761 119 l 761 6 q 657 -15 717 -15 q 567 11 603 -15 q 518 83 531 38 l 508 83 q 275 -17 426 -17 m 325 117 q 454 164 407 117 q 501 292 501 211 l 501 325 q 290 299 367 325 q 214 206 214 274 q 325 117 214 117 m 164 817 l 311 1004 l 461 1004 l 607 817 l 464 817 l 386 917 l 307 817 l 164 817 m 157 1065 q 190 1181 157 1136 q 288 1226 222 1226 q 335 1220 311 1226 q 389 1201 358 1214 q 479 1178 444 1178 q 525 1226 519 1178 l 619 1226 q 587 1110 619 1156 q 489 1065 554 1065 q 443 1072 465 1065 q 389 1090 421 1078 q 340 1108 360 1101 q 297 1114 319 1114 q 253 1065 258 1114 l 157 1065 z "},"ȁ":{"ha":772,"x_min":43,"x_max":761,"o":"m 43 0 m 275 -17 q 115 27 186 -17 q 43 189 43 71 q 163 386 43 329 q 501 443 282 443 l 501 504 q 474 586 501 557 q 376 615 447 615 q 272 592 303 615 q 242 533 242 568 l 242 514 l 81 514 q 79 544 79 522 q 160 693 79 639 q 376 747 242 747 q 595 688 522 747 q 668 517 668 628 l 668 168 q 682 131 668 143 q 717 119 696 119 l 761 119 l 761 6 q 657 -15 717 -15 q 567 11 603 -15 q 518 83 531 38 l 508 83 q 275 -17 426 -17 m 325 117 q 454 164 407 117 q 501 292 501 211 l 501 325 q 290 299 367 325 q 214 206 214 274 q 325 117 214 117 m 233 821 l 94 1000 l 96 1004 l 263 1004 l 365 821 l 233 821 m 458 821 l 319 1000 l 321 1004 l 489 1004 l 590 821 l 458 821 z "},"ä":{"ha":772,"x_min":43,"x_max":761,"o":"m 43 0 m 275 -17 q 115 27 186 -17 q 43 189 43 71 q 163 386 43 329 q 501 443 282 443 l 501 504 q 474 586 501 557 q 376 615 447 615 q 272 592 303 615 q 242 533 242 568 l 242 514 l 81 514 q 79 544 79 522 q 160 693 79 639 q 376 747 242 747 q 595 688 522 747 q 668 517 668 628 l 668 168 q 682 131 668 143 q 717 119 696 119 l 761 119 l 761 6 q 657 -15 717 -15 q 567 11 603 -15 q 518 83 531 38 l 508 83 q 275 -17 426 -17 m 325 117 q 454 164 407 117 q 501 292 501 211 l 501 325 q 290 299 367 325 q 214 206 214 274 q 325 117 214 117 m 172 851 l 172 1004 l 321 1004 l 321 851 l 172 851 m 453 851 l 453 1004 l 603 1004 l 603 851 l 453 851 z "},"ạ":{"ha":772,"x_min":43,"x_max":761,"o":"m 43 0 m 275 -17 q 115 27 186 -17 q 43 189 43 71 q 163 386 43 329 q 501 443 282 443 l 501 504 q 474 586 501 557 q 376 615 447 615 q 272 592 303 615 q 242 533 242 568 l 242 514 l 81 514 q 79 544 79 522 q 160 693 79 639 q 376 747 242 747 q 595 688 522 747 q 668 517 668 628 l 668 168 q 682 131 668 143 q 717 119 696 119 l 761 119 l 761 6 q 657 -15 717 -15 q 567 11 603 -15 q 518 83 531 38 l 508 83 q 275 -17 426 -17 m 325 117 q 454 164 407 117 q 501 292 501 211 l 501 325 q 290 299 367 325 q 214 206 214 274 q 325 117 214 117 m 303 -240 l 303 -76 l 467 -76 l 467 -240 l 303 -240 z "},"à":{"ha":772,"x_min":43,"x_max":761,"o":"m 43 0 m 275 -17 q 115 27 186 -17 q 43 189 43 71 q 163 386 43 329 q 501 443 282 443 l 501 504 q 474 586 501 557 q 376 615 447 615 q 272 592 303 615 q 242 533 242 568 l 242 514 l 81 514 q 79 544 79 522 q 160 693 79 639 q 376 747 242 747 q 595 688 522 747 q 668 517 668 628 l 668 168 q 682 131 668 143 q 717 119 696 119 l 761 119 l 761 6 q 657 -15 717 -15 q 567 11 603 -15 q 518 83 531 38 l 508 83 q 275 -17 426 -17 m 325 117 q 454 164 407 117 q 501 292 501 211 l 501 325 q 290 299 367 325 q 214 206 214 274 q 325 117 214 117 m 319 821 l 169 1000 l 171 1004 l 338 1004 l 451 821 l 319 821 z "},"ả":{"ha":772,"x_min":43,"x_max":761,"o":"m 43 0 m 275 -17 q 115 27 186 -17 q 43 189 43 71 q 163 386 43 329 q 501 443 282 443 l 501 504 q 474 586 501 557 q 376 615 447 615 q 272 592 303 615 q 242 533 242 568 l 242 514 l 81 514 q 79 544 79 522 q 160 693 79 639 q 376 747 242 747 q 595 688 522 747 q 668 517 668 628 l 668 168 q 682 131 668 143 q 717 119 696 119 l 761 119 l 761 6 q 657 -15 717 -15 q 567 11 603 -15 q 518 83 531 38 l 508 83 q 275 -17 426 -17 m 325 117 q 454 164 407 117 q 501 292 501 211 l 501 325 q 290 299 367 325 q 214 206 214 274 q 325 117 214 117 m 342 899 l 361 899 q 394 905 385 899 q 404 925 404 911 q 392 946 404 940 q 357 951 381 951 l 276 951 l 276 1010 q 386 1021 328 1021 q 491 1002 446 1021 q 536 936 536 983 q 506 879 536 899 q 431 857 476 860 l 431 821 l 342 821 l 342 899 z "},"ȃ":{"ha":772,"x_min":43,"x_max":761,"o":"m 43 0 m 275 -17 q 115 27 186 -17 q 43 189 43 71 q 163 386 43 329 q 501 443 282 443 l 501 504 q 474 586 501 557 q 376 615 447 615 q 272 592 303 615 q 242 533 242 568 l 242 514 l 81 514 q 79 544 79 522 q 160 693 79 639 q 376 747 242 747 q 595 688 522 747 q 668 517 668 628 l 668 168 q 682 131 668 143 q 717 119 696 119 l 761 119 l 761 6 q 657 -15 717 -15 q 567 11 603 -15 q 518 83 531 38 l 508 83 q 275 -17 426 -17 m 325 117 q 454 164 407 117 q 501 292 501 211 l 501 325 q 290 299 367 325 q 214 206 214 274 q 325 117 214 117 m 169 824 q 222 951 169 897 q 385 1004 275 1004 q 548 951 494 1004 q 601 824 601 897 l 492 824 q 461 872 488 850 q 385 893 435 893 q 310 872 335 893 q 279 824 285 851 l 169 824 z "},"ā":{"ha":772,"x_min":43,"x_max":761,"o":"m 43 0 m 275 -17 q 115 27 186 -17 q 43 189 43 71 q 163 386 43 329 q 501 443 282 443 l 501 504 q 474 586 501 557 q 376 615 447 615 q 272 592 303 615 q 242 533 242 568 l 242 514 l 81 514 q 79 544 79 522 q 160 693 79 639 q 376 747 242 747 q 595 688 522 747 q 668 517 668 628 l 668 168 q 682 131 668 143 q 717 119 696 119 l 761 119 l 761 6 q 657 -15 717 -15 q 567 11 603 -15 q 518 83 531 38 l 508 83 q 275 -17 426 -17 m 325 117 q 454 164 407 117 q 501 292 501 211 l 501 325 q 290 299 367 325 q 214 206 214 274 q 325 117 214 117 m 174 857 l 174 971 l 597 971 l 597 857 l 174 857 z "},"ą":{"ha":772,"x_min":43,"x_max":761,"o":"m 663 -253 q 563 -226 603 -253 q 522 -139 522 -199 q 543 -64 522 -96 q 601 -6 564 -32 q 548 28 569 4 q 518 83 526 51 l 508 83 q 275 -17 426 -17 q 115 27 186 -17 q 43 189 43 71 q 163 386 43 329 q 501 443 282 443 l 501 504 q 474 586 501 557 q 376 615 447 615 q 272 592 303 615 q 242 533 242 568 l 242 514 l 81 514 q 79 544 79 522 q 160 693 79 639 q 376 747 242 747 q 595 688 522 747 q 668 517 668 628 l 668 168 q 682 131 668 143 q 717 119 696 119 l 761 119 l 761 6 q 685 -36 715 -12 q 654 -97 654 -60 q 671 -141 654 -124 q 724 -158 688 -158 l 761 -158 l 761 -233 q 663 -253 703 -253 m 325 117 q 454 164 407 117 q 501 292 501 211 l 501 325 q 290 299 367 325 q 214 206 214 274 q 325 117 214 117 z "},"å":{"ha":772,"x_min":43,"x_max":761,"o":"m 43 0 m 275 -17 q 115 27 186 -17 q 43 189 43 71 q 163 386 43 329 q 501 443 282 443 l 501 504 q 474 586 501 557 q 376 615 447 615 q 272 592 303 615 q 242 533 242 568 l 242 514 l 81 514 q 79 544 79 522 q 160 693 79 639 q 376 747 242 747 q 595 688 522 747 q 668 517 668 628 l 668 168 q 682 131 668 143 q 717 119 696 119 l 761 119 l 761 6 q 657 -15 717 -15 q 567 11 603 -15 q 518 83 531 38 l 508 83 q 275 -17 426 -17 m 325 117 q 454 164 407 117 q 501 292 501 211 l 501 325 q 290 299 367 325 q 214 206 214 274 q 325 117 214 117 m 386 776 q 286 816 324 776 q 249 915 249 856 q 286 1014 249 975 q 386 1053 324 1053 q 486 1014 449 1053 q 524 915 524 975 q 486 816 524 856 q 386 776 449 776 m 386 850 q 432 869 414 850 q 450 915 450 888 q 432 961 450 943 q 386 979 414 979 q 340 961 357 979 q 322 915 322 943 q 340 869 322 888 q 386 850 357 850 z "},"ǻ":{"ha":772,"x_min":43,"x_max":761,"o":"m 43 0 m 275 -17 q 115 27 186 -17 q 43 189 43 71 q 163 386 43 329 q 501 443 282 443 l 501 504 q 474 586 501 557 q 376 615 447 615 q 272 592 303 615 q 242 533 242 568 l 242 514 l 81 514 q 79 544 79 522 q 160 693 79 639 q 376 747 242 747 q 595 688 522 747 q 668 517 668 628 l 668 168 q 682 131 668 143 q 717 119 696 119 l 761 119 l 761 6 q 657 -15 717 -15 q 567 11 603 -15 q 518 83 531 38 l 508 83 q 275 -17 426 -17 m 325 117 q 454 164 407 117 q 501 292 501 211 l 501 325 q 290 299 367 325 q 214 206 214 274 q 325 117 214 117 m 386 776 q 286 816 324 776 q 249 915 249 856 q 286 1014 249 975 q 386 1053 324 1053 q 486 1014 449 1053 q 524 915 524 975 q 486 816 524 856 q 386 776 449 776 m 386 850 q 432 869 414 850 q 450 915 450 888 q 432 961 450 943 q 386 979 414 979 q 340 961 357 979 q 322 915 322 943 q 340 869 322 888 q 386 850 357 850 m 319 1082 l 432 1265 l 600 1265 l 601 1261 l 451 1082 l 319 1082 z "},"ã":{"ha":772,"x_min":43,"x_max":761,"o":"m 43 0 m 275 -17 q 115 27 186 -17 q 43 189 43 71 q 163 386 43 329 q 501 443 282 443 l 501 504 q 474 586 501 557 q 376 615 447 615 q 272 592 303 615 q 242 533 242 568 l 242 514 l 81 514 q 79 544 79 522 q 160 693 79 639 q 376 747 242 747 q 595 688 522 747 q 668 517 668 628 l 668 168 q 682 131 668 143 q 717 119 696 119 l 761 119 l 761 6 q 657 -15 717 -15 q 567 11 603 -15 q 518 83 531 38 l 508 83 q 275 -17 426 -17 m 325 117 q 454 164 407 117 q 501 292 501 211 l 501 325 q 290 299 367 325 q 214 206 214 274 q 325 117 214 117 m 154 843 q 187 959 154 914 q 285 1004 219 1004 q 332 998 308 1004 q 386 979 356 992 q 476 956 442 956 q 522 1004 517 956 l 617 1004 q 584 888 617 933 q 486 843 551 843 q 440 849 463 843 q 386 868 418 856 q 337 885 357 879 q 294 892 317 892 q 250 843 256 892 l 154 843 z "},"æ":{"ha":1235,"x_min":43,"x_max":1185,"o":"m 317 -17 q 128 27 213 -17 q 43 189 43 71 q 168 386 43 329 q 524 443 293 443 l 524 504 q 494 586 524 557 q 385 615 465 615 q 275 592 308 615 q 242 533 242 568 l 242 514 l 81 514 q 79 544 79 522 q 163 693 79 639 q 385 747 247 747 q 628 665 550 747 q 867 747 714 747 q 1105 657 1025 747 q 1185 375 1185 567 l 1185 325 l 690 325 q 736 166 694 217 q 868 115 778 115 q 978 151 936 115 q 1021 256 1021 186 l 1185 256 q 1097 53 1185 122 q 867 -17 1008 -17 q 599 88 681 -17 q 317 -17 497 -17 m 1011 443 q 867 615 1011 615 q 744 574 785 615 q 693 443 703 532 l 1011 443 m 335 117 q 474 163 424 117 q 524 292 524 210 l 524 325 q 297 299 379 325 q 214 206 214 272 q 335 117 214 117 z "},"ǽ":{"ha":1235,"x_min":43,"x_max":1185,"o":"m 43 0 m 317 -17 q 128 27 213 -17 q 43 189 43 71 q 168 386 43 329 q 524 443 293 443 l 524 504 q 494 586 524 557 q 385 615 465 615 q 275 592 308 615 q 242 533 242 568 l 242 514 l 81 514 q 79 544 79 522 q 163 693 79 639 q 385 747 247 747 q 628 665 550 747 q 867 747 714 747 q 1105 657 1025 747 q 1185 375 1185 567 l 1185 325 l 690 325 q 736 166 694 217 q 868 115 778 115 q 978 151 936 115 q 1021 256 1021 186 l 1185 256 q 1097 53 1185 122 q 867 -17 1008 -17 q 599 88 681 -17 q 317 -17 497 -17 m 1011 443 q 867 615 1011 615 q 744 574 785 615 q 693 443 703 532 l 1011 443 m 335 117 q 474 163 424 117 q 524 292 524 210 l 524 325 q 297 299 379 325 q 214 206 214 272 q 335 117 214 117 m 551 821 l 664 1004 l 832 1004 l 833 1000 l 683 821 l 551 821 z "},"b":{"ha":822,"x_min":97,"x_max":772,"o":"m 481 -17 q 351 13 410 -17 q 257 97 293 42 l 249 97 l 235 0 l 97 0 l 97 1004 l 264 1004 l 264 646 l 272 646 q 492 747 339 747 q 696 651 619 747 q 772 367 772 556 q 696 78 772 172 q 481 -17 619 -17 m 431 126 q 561 181 522 126 q 600 356 600 236 l 600 374 q 561 549 600 494 q 431 604 522 604 q 264 372 264 604 l 264 356 q 304 184 264 242 q 431 126 344 126 z "},"c":{"ha":746,"x_min":51,"x_max":700,"o":"m 390 -17 q 135 76 218 -17 q 51 365 51 169 q 135 654 51 561 q 390 747 219 747 q 619 674 539 747 q 700 457 700 600 l 531 457 q 496 574 531 535 q 388 613 461 613 q 261 553 301 613 q 221 372 221 494 l 221 356 q 262 176 221 233 q 394 118 303 118 q 502 158 465 118 q 539 274 539 199 l 700 274 q 619 60 700 136 q 390 -17 538 -17 z "},"ć":{"ha":746,"x_min":51,"x_max":700,"o":"m 51 0 m 390 -17 q 135 76 218 -17 q 51 365 51 169 q 135 654 51 561 q 390 747 219 747 q 619 674 539 747 q 700 457 700 600 l 531 457 q 496 574 531 535 q 388 613 461 613 q 261 553 301 613 q 221 372 221 494 l 221 356 q 262 176 221 233 q 394 118 303 118 q 502 158 465 118 q 539 274 539 199 l 700 274 q 619 60 700 136 q 390 -17 538 -17 m 306 821 l 418 1004 l 586 1004 l 588 1000 l 438 821 l 306 821 z "},"č":{"ha":746,"x_min":51,"x_max":700,"o":"m 51 0 m 390 -17 q 135 76 218 -17 q 51 365 51 169 q 135 654 51 561 q 390 747 219 747 q 619 674 539 747 q 700 457 700 600 l 531 457 q 496 574 531 535 q 388 613 461 613 q 261 553 301 613 q 221 372 221 494 l 221 356 q 262 176 221 233 q 394 118 303 118 q 502 158 465 118 q 539 274 539 199 l 700 274 q 619 60 700 136 q 390 -17 538 -17 m 297 817 l 150 1004 l 293 1004 l 372 904 l 450 1004 l 593 1004 l 447 817 l 297 817 z "},"ç":{"ha":746,"x_min":51,"x_max":700,"o":"m 394 118 q 502 158 465 118 q 539 274 539 199 l 700 274 q 627 68 700 144 q 421 -15 554 -8 l 415 -47 q 512 -73 475 -50 q 549 -140 549 -96 q 494 -228 549 -203 q 368 -253 439 -253 q 228 -242 292 -253 l 228 -174 l 357 -174 q 402 -167 388 -174 q 417 -140 417 -160 q 404 -115 417 -122 q 360 -107 392 -107 l 299 -107 l 314 -11 q 116 101 181 8 q 51 365 51 193 q 135 654 51 561 q 390 747 219 747 q 619 674 539 747 q 700 457 700 600 l 531 457 q 496 574 531 535 q 388 613 461 613 q 261 553 301 613 q 221 372 221 494 l 221 356 q 262 176 221 233 q 394 118 303 118 z "},"ĉ":{"ha":746,"x_min":51,"x_max":700,"o":"m 51 0 m 390 -17 q 135 76 218 -17 q 51 365 51 169 q 135 654 51 561 q 390 747 219 747 q 619 674 539 747 q 700 457 700 600 l 531 457 q 496 574 531 535 q 388 613 461 613 q 261 553 301 613 q 221 372 221 494 l 221 356 q 262 176 221 233 q 394 118 303 118 q 502 158 465 118 q 539 274 539 199 l 700 274 q 619 60 700 136 q 390 -17 538 -17 m 150 817 l 297 1004 l 447 1004 l 593 817 l 450 817 l 372 917 l 293 817 l 150 817 z "},"ċ":{"ha":746,"x_min":51,"x_max":700,"o":"m 51 0 m 390 -17 q 135 76 218 -17 q 51 365 51 169 q 135 654 51 561 q 390 747 219 747 q 619 674 539 747 q 700 457 700 600 l 531 457 q 496 574 531 535 q 388 613 461 613 q 261 553 301 613 q 221 372 221 494 l 221 356 q 262 176 221 233 q 394 118 303 118 q 502 158 465 118 q 539 274 539 199 l 700 274 q 619 60 700 136 q 390 -17 538 -17 m 289 842 l 289 1006 l 453 1006 l 453 842 l 289 842 z "},"d":{"ha":822,"x_min":50,"x_max":725,"o":"m 342 -17 q 126 78 203 -17 q 50 367 50 172 q 126 651 50 556 q 331 747 203 747 q 550 646 483 747 l 558 646 l 558 1004 l 725 1004 l 725 0 l 588 0 l 574 97 l 565 97 q 471 13 529 42 q 342 -17 413 -17 m 392 126 q 518 184 478 126 q 558 356 558 242 l 558 372 q 392 604 558 604 q 261 549 300 604 q 222 374 222 494 l 222 356 q 261 181 222 236 q 392 126 300 126 z "},"ð":{"ha":822,"x_min":51,"x_max":771,"o":"m 411 -17 q 141 76 231 -17 q 51 361 51 168 q 132 640 51 542 q 358 738 213 738 q 478 715 419 738 l 482 719 q 393 835 446 775 l 169 818 l 169 913 l 308 924 q 218 997 283 946 l 222 1004 l 415 1004 q 497 936 458 972 l 715 953 l 715 857 l 588 849 q 725 624 679 743 q 771 361 771 504 q 681 76 771 168 q 411 -17 592 -17 m 411 119 q 554 177 510 119 q 599 354 599 235 l 599 367 q 554 544 599 488 q 411 601 510 601 q 267 545 311 601 q 224 371 224 489 l 224 354 q 268 177 224 235 q 411 119 313 119 z "},"ď":{"ha":953,"x_min":50,"x_max":967,"o":"m 342 -17 q 126 78 203 -17 q 50 367 50 172 q 126 651 50 556 q 331 747 203 747 q 550 646 483 747 l 558 646 l 558 1004 l 725 1004 l 725 0 l 588 0 l 574 97 l 565 97 q 471 13 529 42 q 342 -17 413 -17 m 800 638 l 867 793 l 800 793 l 800 953 l 967 953 l 967 808 l 888 638 l 800 638 m 392 126 q 518 184 478 126 q 558 356 558 242 l 558 372 q 392 604 558 604 q 261 549 300 604 q 222 374 222 494 l 222 356 q 261 181 222 236 q 392 126 300 126 z "},"đ":{"ha":822,"x_min":50,"x_max":810,"o":"m 810 819 l 725 819 l 725 0 l 588 0 l 574 97 l 565 97 q 471 13 529 42 q 342 -17 413 -17 q 126 78 203 -17 q 50 367 50 172 q 126 651 50 556 q 331 747 203 747 q 550 646 483 747 l 558 646 l 558 819 l 351 819 l 351 914 l 558 914 l 558 1004 l 725 1004 l 725 914 l 810 914 l 810 819 m 558 372 q 392 604 558 604 q 261 549 300 604 q 222 374 222 494 l 222 356 q 261 181 222 236 q 392 126 300 126 q 518 184 478 126 q 558 356 558 242 l 558 372 z "},"ḍ":{"ha":822,"x_min":50,"x_max":725,"o":"m 50 0 m 342 -17 q 126 78 203 -17 q 50 367 50 172 q 126 651 50 556 q 331 747 203 747 q 550 646 483 747 l 558 646 l 558 1004 l 725 1004 l 725 0 l 588 0 l 574 97 l 565 97 q 471 13 529 42 q 342 -17 413 -17 m 392 126 q 518 184 478 126 q 558 356 558 242 l 558 372 q 392 604 558 604 q 261 549 300 604 q 222 374 222 494 l 222 356 q 261 181 222 236 q 392 126 300 126 m 328 -240 l 328 -76 l 492 -76 l 492 -240 l 328 -240 z "},"ǳ":{"ha":1517,"x_min":50,"x_max":1485,"o":"m 50 0 m 342 -17 q 126 78 203 -17 q 50 367 50 172 q 126 651 50 556 q 331 747 203 747 q 550 646 483 747 l 558 646 l 558 1004 l 725 1004 l 725 0 l 588 0 l 574 97 l 565 97 q 471 13 529 42 q 342 -17 413 -17 m 392 126 q 518 184 478 126 q 558 356 558 242 l 558 372 q 392 604 558 604 q 261 549 300 604 q 222 374 222 494 l 222 356 q 261 181 222 236 q 392 126 300 126 m 853 0 l 853 78 l 1225 594 l 876 594 l 876 731 l 1468 731 l 1468 654 l 1094 136 l 1485 136 l 1485 0 l 853 0 z "},"ǆ":{"ha":1517,"x_min":50,"x_max":1485,"o":"m 50 0 m 342 -17 q 126 78 203 -17 q 50 367 50 172 q 126 651 50 556 q 331 747 203 747 q 550 646 483 747 l 558 646 l 558 1004 l 725 1004 l 725 0 l 588 0 l 574 97 l 565 97 q 471 13 529 42 q 342 -17 413 -17 m 392 126 q 518 184 478 126 q 558 356 558 242 l 558 372 q 392 604 558 604 q 261 549 300 604 q 222 374 222 494 l 222 356 q 261 181 222 236 q 392 126 300 126 m 853 0 l 853 78 l 1225 594 l 876 594 l 876 731 l 1468 731 l 1468 654 l 1094 136 l 1485 136 l 1485 0 l 853 0 m 1094 817 l 947 1004 l 1090 1004 l 1169 904 l 1247 1004 l 1390 1004 l 1244 817 l 1094 817 z "},"e":{"ha":772,"x_min":51,"x_max":722,"o":"m 401 -17 q 138 76 224 -17 q 51 365 51 169 q 138 654 51 561 q 401 747 225 747 q 642 657 563 747 q 722 375 722 567 l 722 325 l 221 325 q 267 166 225 217 q 403 115 310 115 q 515 151 472 115 q 558 256 558 186 l 722 256 q 633 52 722 121 q 401 -17 544 -17 m 549 443 q 401 615 549 615 q 276 573 318 615 q 224 443 233 531 l 549 443 z "},"é":{"ha":772,"x_min":51,"x_max":722,"o":"m 51 0 m 401 -17 q 138 76 224 -17 q 51 365 51 169 q 138 654 51 561 q 401 747 225 747 q 642 657 563 747 q 722 375 722 567 l 722 325 l 221 325 q 267 166 225 217 q 403 115 310 115 q 515 151 472 115 q 558 256 558 186 l 722 256 q 633 52 722 121 q 401 -17 544 -17 m 549 443 q 401 615 549 615 q 276 573 318 615 q 224 443 233 531 l 549 443 m 319 821 l 432 1004 l 600 1004 l 601 1000 l 451 821 l 319 821 z "},"ĕ":{"ha":772,"x_min":51,"x_max":722,"o":"m 51 0 m 401 -17 q 138 76 224 -17 q 51 365 51 169 q 138 654 51 561 q 401 747 225 747 q 642 657 563 747 q 722 375 722 567 l 722 325 l 221 325 q 267 166 225 217 q 403 115 310 115 q 515 151 472 115 q 558 256 558 186 l 722 256 q 633 52 722 121 q 401 -17 544 -17 m 549 443 q 401 615 549 615 q 276 573 318 615 q 224 443 233 531 l 549 443 m 385 824 q 222 877 275 824 q 169 1004 169 931 l 279 1004 q 310 956 285 976 q 385 935 335 935 q 461 956 435 935 q 492 1004 488 978 l 601 1004 q 548 877 601 931 q 385 824 494 824 z "},"ě":{"ha":772,"x_min":51,"x_max":722,"o":"m 51 0 m 401 -17 q 138 76 224 -17 q 51 365 51 169 q 138 654 51 561 q 401 747 225 747 q 642 657 563 747 q 722 375 722 567 l 722 325 l 221 325 q 267 166 225 217 q 403 115 310 115 q 515 151 472 115 q 558 256 558 186 l 722 256 q 633 52 722 121 q 401 -17 544 -17 m 549 443 q 401 615 549 615 q 276 573 318 615 q 224 443 233 531 l 549 443 m 311 817 l 164 1004 l 307 1004 l 386 904 l 464 1004 l 607 1004 l 461 817 l 311 817 z "},"ê":{"ha":772,"x_min":51,"x_max":722,"o":"m 51 0 m 401 -17 q 138 76 224 -17 q 51 365 51 169 q 138 654 51 561 q 401 747 225 747 q 642 657 563 747 q 722 375 722 567 l 722 325 l 221 325 q 267 166 225 217 q 403 115 310 115 q 515 151 472 115 q 558 256 558 186 l 722 256 q 633 52 722 121 q 401 -17 544 -17 m 549 443 q 401 615 549 615 q 276 573 318 615 q 224 443 233 531 l 549 443 m 164 817 l 311 1004 l 461 1004 l 607 817 l 464 817 l 386 917 l 307 817 l 164 817 z "},"ế":{"ha":772,"x_min":51,"x_max":799,"o":"m 51 0 m 401 -17 q 138 76 224 -17 q 51 365 51 169 q 138 654 51 561 q 401 747 225 747 q 642 657 563 747 q 722 375 722 567 l 722 325 l 221 325 q 267 166 225 217 q 403 115 310 115 q 515 151 472 115 q 558 256 558 186 l 722 256 q 633 52 722 121 q 401 -17 544 -17 m 549 443 q 401 615 549 615 q 276 573 318 615 q 224 443 233 531 l 549 443 m 164 817 l 311 1004 l 461 1004 l 607 817 l 464 817 l 386 917 l 307 817 l 164 817 m 517 953 l 629 1136 l 797 1136 l 799 1132 l 649 953 l 517 953 z "},"ệ":{"ha":772,"x_min":51,"x_max":722,"o":"m 51 0 m 401 -17 q 138 76 224 -17 q 51 365 51 169 q 138 654 51 561 q 401 747 225 747 q 642 657 563 747 q 722 375 722 567 l 722 325 l 221 325 q 267 166 225 217 q 403 115 310 115 q 515 151 472 115 q 558 256 558 186 l 722 256 q 633 52 722 121 q 401 -17 544 -17 m 549 443 q 401 615 549 615 q 276 573 318 615 q 224 443 233 531 l 549 443 m 164 817 l 311 1004 l 461 1004 l 607 817 l 464 817 l 386 917 l 307 817 l 164 817 m 303 -240 l 303 -76 l 467 -76 l 467 -240 l 303 -240 z "},"ề":{"ha":772,"x_min":51,"x_max":722,"o":"m 51 0 m 401 -17 q 138 76 224 -17 q 51 365 51 169 q 138 654 51 561 q 401 747 225 747 q 642 657 563 747 q 722 375 722 567 l 722 325 l 221 325 q 267 166 225 217 q 403 115 310 115 q 515 151 472 115 q 558 256 558 186 l 722 256 q 633 52 722 121 q 401 -17 544 -17 m 549 443 q 401 615 549 615 q 276 573 318 615 q 224 443 233 531 l 549 443 m 164 817 l 311 1004 l 461 1004 l 607 817 l 464 817 l 386 917 l 307 817 l 164 817 m 572 953 l 422 1132 l 424 1136 l 590 1136 l 704 953 l 572 953 z "},"ể":{"ha":772,"x_min":51,"x_max":733,"o":"m 51 0 m 401 -17 q 138 76 224 -17 q 51 365 51 169 q 138 654 51 561 q 401 747 225 747 q 642 657 563 747 q 722 375 722 567 l 722 325 l 221 325 q 267 166 225 217 q 403 115 310 115 q 515 151 472 115 q 558 256 558 186 l 722 256 q 633 52 722 121 q 401 -17 544 -17 m 549 443 q 401 615 549 615 q 276 573 318 615 q 224 443 233 531 l 549 443 m 164 817 l 311 1004 l 461 1004 l 607 817 l 464 817 l 386 917 l 307 817 l 164 817 m 539 1031 l 558 1031 q 592 1037 582 1031 q 601 1057 601 1043 q 590 1078 601 1072 q 554 1083 578 1083 l 474 1083 l 474 1142 q 583 1153 525 1153 q 688 1134 643 1153 q 733 1068 733 1115 q 703 1011 733 1031 q 628 989 674 992 l 628 953 l 539 953 l 539 1031 z "},"ễ":{"ha":772,"x_min":51,"x_max":722,"o":"m 51 0 m 401 -17 q 138 76 224 -17 q 51 365 51 169 q 138 654 51 561 q 401 747 225 747 q 642 657 563 747 q 722 375 722 567 l 722 325 l 221 325 q 267 166 225 217 q 403 115 310 115 q 515 151 472 115 q 558 256 558 186 l 722 256 q 633 52 722 121 q 401 -17 544 -17 m 549 443 q 401 615 549 615 q 276 573 318 615 q 224 443 233 531 l 549 443 m 164 817 l 311 1004 l 461 1004 l 607 817 l 464 817 l 386 917 l 307 817 l 164 817 m 157 1065 q 190 1181 157 1136 q 288 1226 222 1226 q 335 1220 311 1226 q 389 1201 358 1214 q 479 1178 444 1178 q 525 1226 519 1178 l 619 1226 q 587 1110 619 1156 q 489 1065 554 1065 q 443 1072 465 1065 q 389 1090 421 1078 q 340 1108 360 1101 q 297 1114 319 1114 q 253 1065 258 1114 l 157 1065 z "},"ȅ":{"ha":772,"x_min":51,"x_max":722,"o":"m 51 0 m 401 -17 q 138 76 224 -17 q 51 365 51 169 q 138 654 51 561 q 401 747 225 747 q 642 657 563 747 q 722 375 722 567 l 722 325 l 221 325 q 267 166 225 217 q 403 115 310 115 q 515 151 472 115 q 558 256 558 186 l 722 256 q 633 52 722 121 q 401 -17 544 -17 m 549 443 q 401 615 549 615 q 276 573 318 615 q 224 443 233 531 l 549 443 m 233 821 l 94 1000 l 96 1004 l 263 1004 l 365 821 l 233 821 m 458 821 l 319 1000 l 321 1004 l 489 1004 l 590 821 l 458 821 z "},"ë":{"ha":772,"x_min":51,"x_max":722,"o":"m 51 0 m 401 -17 q 138 76 224 -17 q 51 365 51 169 q 138 654 51 561 q 401 747 225 747 q 642 657 563 747 q 722 375 722 567 l 722 325 l 221 325 q 267 166 225 217 q 403 115 310 115 q 515 151 472 115 q 558 256 558 186 l 722 256 q 633 52 722 121 q 401 -17 544 -17 m 549 443 q 401 615 549 615 q 276 573 318 615 q 224 443 233 531 l 549 443 m 172 851 l 172 1004 l 321 1004 l 321 851 l 172 851 m 453 851 l 453 1004 l 603 1004 l 603 851 l 453 851 z "},"ė":{"ha":772,"x_min":51,"x_max":722,"o":"m 51 0 m 401 -17 q 138 76 224 -17 q 51 365 51 169 q 138 654 51 561 q 401 747 225 747 q 642 657 563 747 q 722 375 722 567 l 722 325 l 221 325 q 267 166 225 217 q 403 115 310 115 q 515 151 472 115 q 558 256 558 186 l 722 256 q 633 52 722 121 q 401 -17 544 -17 m 549 443 q 401 615 549 615 q 276 573 318 615 q 224 443 233 531 l 549 443 m 303 842 l 303 1006 l 467 1006 l 467 842 l 303 842 z "},"ẹ":{"ha":772,"x_min":51,"x_max":722,"o":"m 51 0 m 401 -17 q 138 76 224 -17 q 51 365 51 169 q 138 654 51 561 q 401 747 225 747 q 642 657 563 747 q 722 375 722 567 l 722 325 l 221 325 q 267 166 225 217 q 403 115 310 115 q 515 151 472 115 q 558 256 558 186 l 722 256 q 633 52 722 121 q 401 -17 544 -17 m 549 443 q 401 615 549 615 q 276 573 318 615 q 224 443 233 531 l 549 443 m 303 -240 l 303 -76 l 467 -76 l 467 -240 l 303 -240 z "},"è":{"ha":772,"x_min":51,"x_max":722,"o":"m 51 0 m 401 -17 q 138 76 224 -17 q 51 365 51 169 q 138 654 51 561 q 401 747 225 747 q 642 657 563 747 q 722 375 722 567 l 722 325 l 221 325 q 267 166 225 217 q 403 115 310 115 q 515 151 472 115 q 558 256 558 186 l 722 256 q 633 52 722 121 q 401 -17 544 -17 m 549 443 q 401 615 549 615 q 276 573 318 615 q 224 443 233 531 l 549 443 m 319 821 l 169 1000 l 171 1004 l 338 1004 l 451 821 l 319 821 z "},"ẻ":{"ha":772,"x_min":51,"x_max":722,"o":"m 51 0 m 401 -17 q 138 76 224 -17 q 51 365 51 169 q 138 654 51 561 q 401 747 225 747 q 642 657 563 747 q 722 375 722 567 l 722 325 l 221 325 q 267 166 225 217 q 403 115 310 115 q 515 151 472 115 q 558 256 558 186 l 722 256 q 633 52 722 121 q 401 -17 544 -17 m 549 443 q 401 615 549 615 q 276 573 318 615 q 224 443 233 531 l 549 443 m 342 899 l 361 899 q 394 905 385 899 q 404 925 404 911 q 392 946 404 940 q 357 951 381 951 l 276 951 l 276 1010 q 386 1021 328 1021 q 491 1002 446 1021 q 536 936 536 983 q 506 879 536 899 q 431 857 476 860 l 431 821 l 342 821 l 342 899 z "},"ȇ":{"ha":772,"x_min":51,"x_max":722,"o":"m 51 0 m 401 -17 q 138 76 224 -17 q 51 365 51 169 q 138 654 51 561 q 401 747 225 747 q 642 657 563 747 q 722 375 722 567 l 722 325 l 221 325 q 267 166 225 217 q 403 115 310 115 q 515 151 472 115 q 558 256 558 186 l 722 256 q 633 52 722 121 q 401 -17 544 -17 m 549 443 q 401 615 549 615 q 276 573 318 615 q 224 443 233 531 l 549 443 m 169 824 q 222 951 169 897 q 385 1004 275 1004 q 548 951 494 1004 q 601 824 601 897 l 492 824 q 461 872 488 850 q 385 893 435 893 q 310 872 335 893 q 279 824 285 851 l 169 824 z "},"ē":{"ha":772,"x_min":51,"x_max":722,"o":"m 51 0 m 401 -17 q 138 76 224 -17 q 51 365 51 169 q 138 654 51 561 q 401 747 225 747 q 642 657 563 747 q 722 375 722 567 l 722 325 l 221 325 q 267 166 225 217 q 403 115 310 115 q 515 151 472 115 q 558 256 558 186 l 722 256 q 633 52 722 121 q 401 -17 544 -17 m 549 443 q 401 615 549 615 q 276 573 318 615 q 224 443 233 531 l 549 443 m 174 857 l 174 971 l 597 971 l 597 857 l 174 857 z "},"ę":{"ha":772,"x_min":51,"x_max":722,"o":"m 625 -253 q 519 -221 561 -253 q 476 -117 476 -189 q 504 0 476 -53 q 396 -17 454 -17 q 137 76 222 -17 q 51 365 51 169 q 138 654 51 561 q 401 747 225 747 q 642 657 563 747 q 722 375 722 567 l 722 325 l 221 325 q 267 166 225 217 q 403 115 310 115 q 515 151 472 115 q 558 256 558 186 l 722 256 q 654 72 721 140 q 623 16 636 50 q 610 -57 610 -18 q 629 -131 610 -104 q 690 -158 649 -158 l 721 -158 l 721 -233 q 625 -253 669 -253 m 549 443 q 401 615 549 615 q 276 573 318 615 q 224 443 233 531 l 549 443 z "},"ẽ":{"ha":772,"x_min":51,"x_max":722,"o":"m 51 0 m 401 -17 q 138 76 224 -17 q 51 365 51 169 q 138 654 51 561 q 401 747 225 747 q 642 657 563 747 q 722 375 722 567 l 722 325 l 221 325 q 267 166 225 217 q 403 115 310 115 q 515 151 472 115 q 558 256 558 186 l 722 256 q 633 52 722 121 q 401 -17 544 -17 m 549 443 q 401 615 549 615 q 276 573 318 615 q 224 443 233 531 l 549 443 m 154 843 q 187 959 154 914 q 285 1004 219 1004 q 332 998 308 1004 q 386 979 356 992 q 476 956 442 956 q 522 1004 517 956 l 617 1004 q 584 888 617 933 q 486 843 551 843 q 440 849 463 843 q 386 868 418 856 q 337 885 357 879 q 294 892 317 892 q 250 843 256 892 l 154 843 z "},"f":{"ha":436,"x_min":13,"x_max":417,"o":"m 118 594 l 13 594 l 13 731 l 118 731 l 118 825 q 160 961 118 907 q 301 1015 203 1015 q 363 1009 331 1015 q 417 994 396 1003 l 417 879 l 347 879 q 285 817 285 879 l 285 731 l 417 731 l 417 594 l 285 594 l 285 0 l 118 0 l 118 594 z "},"g":{"ha":822,"x_min":31,"x_max":804,"o":"m 218 -253 q 85 -208 140 -253 q 31 -82 31 -162 q 144 69 31 18 q 92 115 111 88 q 72 181 72 143 q 109 261 72 229 q 199 306 146 293 q 122 388 149 338 q 94 500 94 438 q 177 681 94 615 q 408 747 260 747 q 553 725 492 747 q 618 785 597 751 q 642 851 639 819 l 803 851 q 763 732 803 779 q 651 669 722 685 q 724 500 724 601 q 643 318 724 385 q 417 251 563 251 l 303 251 q 257 239 274 251 q 240 204 240 226 q 256 170 240 183 q 297 157 271 157 l 617 157 q 751 103 699 157 q 804 -32 804 50 q 772 -144 804 -93 q 681 -224 740 -194 q 546 -253 622 -253 l 218 -253 m 410 369 q 521 403 483 369 q 558 500 558 438 q 521 597 558 563 q 410 631 483 631 q 299 597 336 631 q 261 500 261 563 q 299 403 261 436 q 410 369 336 369 m 546 -132 q 611 -112 585 -132 q 638 -58 638 -92 q 615 -4 638 -24 q 557 15 593 15 l 276 15 q 220 -6 242 15 q 199 -58 199 -26 q 220 -112 199 -92 q 276 -132 242 -132 l 546 -132 z "},"ǵ":{"ha":822,"x_min":31,"x_max":804,"o":"m 31 0 m 218 -253 q 85 -208 140 -253 q 31 -82 31 -162 q 144 69 31 18 q 92 115 111 88 q 72 181 72 143 q 109 261 72 229 q 199 306 146 293 q 122 388 149 338 q 94 500 94 438 q 177 681 94 615 q 408 747 260 747 q 553 725 492 747 q 618 785 597 751 q 642 851 639 819 l 803 851 q 763 732 803 779 q 651 669 722 685 q 724 500 724 601 q 643 318 724 385 q 417 251 563 251 l 303 251 q 257 239 274 251 q 240 204 240 226 q 256 170 240 183 q 297 157 271 157 l 617 157 q 751 103 699 157 q 804 -32 804 50 q 772 -144 804 -93 q 681 -224 740 -194 q 546 -253 622 -253 l 218 -253 m 410 369 q 521 403 483 369 q 558 500 558 438 q 521 597 558 563 q 410 631 483 631 q 299 597 336 631 q 261 500 261 563 q 299 403 261 436 q 410 369 336 369 m 546 -132 q 611 -112 585 -132 q 638 -58 638 -92 q 615 -4 638 -24 q 557 15 593 15 l 276 15 q 220 -6 242 15 q 199 -58 199 -26 q 220 -112 199 -92 q 276 -132 242 -132 l 546 -132 m 344 821 l 457 1004 l 625 1004 l 626 1000 l 476 821 l 344 821 z "},"ğ":{"ha":822,"x_min":31,"x_max":804,"o":"m 31 0 m 218 -253 q 85 -208 140 -253 q 31 -82 31 -162 q 144 69 31 18 q 92 115 111 88 q 72 181 72 143 q 109 261 72 229 q 199 306 146 293 q 122 388 149 338 q 94 500 94 438 q 177 681 94 615 q 408 747 260 747 q 553 725 492 747 q 618 785 597 751 q 642 851 639 819 l 803 851 q 763 732 803 779 q 651 669 722 685 q 724 500 724 601 q 643 318 724 385 q 417 251 563 251 l 303 251 q 257 239 274 251 q 240 204 240 226 q 256 170 240 183 q 297 157 271 157 l 617 157 q 751 103 699 157 q 804 -32 804 50 q 772 -144 804 -93 q 681 -224 740 -194 q 546 -253 622 -253 l 218 -253 m 410 369 q 521 403 483 369 q 558 500 558 438 q 521 597 558 563 q 410 631 483 631 q 299 597 336 631 q 261 500 261 563 q 299 403 261 436 q 410 369 336 369 m 546 -132 q 611 -112 585 -132 q 638 -58 638 -92 q 615 -4 638 -24 q 557 15 593 15 l 276 15 q 220 -6 242 15 q 199 -58 199 -26 q 220 -112 199 -92 q 276 -132 242 -132 l 546 -132 m 410 824 q 247 877 300 824 q 194 1004 194 931 l 304 1004 q 335 956 310 976 q 410 935 360 935 q 486 956 460 935 q 517 1004 513 978 l 626 1004 q 573 877 626 931 q 410 824 519 824 z "},"ǧ":{"ha":822,"x_min":31,"x_max":804,"o":"m 31 0 m 218 -253 q 85 -208 140 -253 q 31 -82 31 -162 q 144 69 31 18 q 92 115 111 88 q 72 181 72 143 q 109 261 72 229 q 199 306 146 293 q 122 388 149 338 q 94 500 94 438 q 177 681 94 615 q 408 747 260 747 q 553 725 492 747 q 618 785 597 751 q 642 851 639 819 l 803 851 q 763 732 803 779 q 651 669 722 685 q 724 500 724 601 q 643 318 724 385 q 417 251 563 251 l 303 251 q 257 239 274 251 q 240 204 240 226 q 256 170 240 183 q 297 157 271 157 l 617 157 q 751 103 699 157 q 804 -32 804 50 q 772 -144 804 -93 q 681 -224 740 -194 q 546 -253 622 -253 l 218 -253 m 410 369 q 521 403 483 369 q 558 500 558 438 q 521 597 558 563 q 410 631 483 631 q 299 597 336 631 q 261 500 261 563 q 299 403 261 436 q 410 369 336 369 m 546 -132 q 611 -112 585 -132 q 638 -58 638 -92 q 615 -4 638 -24 q 557 15 593 15 l 276 15 q 220 -6 242 15 q 199 -58 199 -26 q 220 -112 199 -92 q 276 -132 242 -132 l 546 -132 m 336 817 l 189 1004 l 332 1004 l 411 904 l 489 1004 l 632 1004 l 486 817 l 336 817 z "},"ĝ":{"ha":822,"x_min":31,"x_max":804,"o":"m 194 817 l 338 1004 l 489 1004 l 631 817 l 488 817 l 414 917 l 339 817 l 194 817 m 218 -253 q 85 -208 140 -253 q 31 -82 31 -162 q 144 69 31 18 q 92 115 111 88 q 72 181 72 143 q 109 261 72 229 q 199 306 146 293 q 122 388 149 338 q 94 500 94 438 q 177 681 94 615 q 408 747 260 747 q 553 725 492 747 q 638 779 611 742 q 668 851 665 817 l 803 851 q 763 732 803 779 q 651 669 722 685 q 724 500 724 601 q 643 318 724 385 q 417 251 563 251 l 303 251 q 257 239 274 251 q 240 204 240 226 q 256 170 240 183 q 297 157 271 157 l 617 157 q 751 103 699 157 q 804 -32 804 50 q 772 -144 804 -93 q 681 -224 740 -194 q 546 -253 622 -253 l 218 -253 m 410 369 q 521 403 483 369 q 558 500 558 438 q 521 597 558 563 q 410 631 483 631 q 299 597 336 631 q 261 500 261 563 q 299 403 261 436 q 410 369 336 369 m 546 -132 q 611 -112 585 -132 q 638 -58 638 -92 q 615 -4 638 -24 q 557 15 593 15 l 276 15 q 220 -6 242 15 q 199 -58 199 -26 q 220 -112 199 -92 q 276 -132 242 -132 l 546 -132 z "},"ģ":{"ha":822,"x_min":31,"x_max":804,"o":"m 329 824 l 329 942 l 410 1083 l 497 1083 l 429 957 l 497 957 l 497 824 l 329 824 m 218 -253 q 85 -208 140 -253 q 31 -82 31 -162 q 144 69 31 18 q 92 115 111 88 q 72 181 72 143 q 109 261 72 229 q 199 306 146 293 q 122 388 149 338 q 94 500 94 438 q 177 681 94 615 q 408 747 260 747 q 553 725 492 747 q 618 785 597 751 q 642 851 639 819 l 803 851 q 763 732 803 779 q 651 669 722 685 q 724 500 724 601 q 643 318 724 385 q 417 251 563 251 l 303 251 q 257 239 274 251 q 240 204 240 226 q 256 170 240 183 q 297 157 271 157 l 617 157 q 751 103 699 157 q 804 -32 804 50 q 772 -144 804 -93 q 681 -224 740 -194 q 546 -253 622 -253 l 218 -253 m 410 369 q 521 403 483 369 q 558 500 558 438 q 521 597 558 563 q 410 631 483 631 q 299 597 336 631 q 261 500 261 563 q 299 403 261 436 q 410 369 336 369 m 546 -132 q 611 -112 585 -132 q 638 -58 638 -92 q 615 -4 638 -24 q 557 15 593 15 l 276 15 q 220 -6 242 15 q 199 -58 199 -26 q 220 -112 199 -92 q 276 -132 242 -132 l 546 -132 z "},"ġ":{"ha":822,"x_min":31,"x_max":804,"o":"m 31 0 m 218 -253 q 85 -208 140 -253 q 31 -82 31 -162 q 144 69 31 18 q 92 115 111 88 q 72 181 72 143 q 109 261 72 229 q 199 306 146 293 q 122 388 149 338 q 94 500 94 438 q 177 681 94 615 q 408 747 260 747 q 553 725 492 747 q 618 785 597 751 q 642 851 639 819 l 803 851 q 763 732 803 779 q 651 669 722 685 q 724 500 724 601 q 643 318 724 385 q 417 251 563 251 l 303 251 q 257 239 274 251 q 240 204 240 226 q 256 170 240 183 q 297 157 271 157 l 617 157 q 751 103 699 157 q 804 -32 804 50 q 772 -144 804 -93 q 681 -224 740 -194 q 546 -253 622 -253 l 218 -253 m 410 369 q 521 403 483 369 q 558 500 558 438 q 521 597 558 563 q 410 631 483 631 q 299 597 336 631 q 261 500 261 563 q 299 403 261 436 q 410 369 336 369 m 546 -132 q 611 -112 585 -132 q 638 -58 638 -92 q 615 -4 638 -24 q 557 15 593 15 l 276 15 q 220 -6 242 15 q 199 -58 199 -26 q 220 -112 199 -92 q 276 -132 242 -132 l 546 -132 m 328 842 l 328 1006 l 492 1006 l 492 842 l 328 842 z "},"h":{"ha":822,"x_min":97,"x_max":729,"o":"m 97 1004 l 264 1004 l 264 647 l 274 647 q 365 720 310 693 q 493 747 421 747 q 667 687 604 747 q 729 493 729 626 l 729 0 l 563 0 l 563 464 q 528 571 563 539 q 428 603 494 603 q 311 553 358 603 q 264 425 264 503 l 264 0 l 97 0 l 97 1004 z "},"ħ":{"ha":822,"x_min":13,"x_max":729,"o":"m 97 819 l 13 819 l 13 914 l 97 914 l 97 1004 l 264 1004 l 264 914 l 471 914 l 471 819 l 264 819 l 264 647 l 274 647 q 365 720 310 693 q 493 747 421 747 q 667 687 604 747 q 729 493 729 626 l 729 0 l 563 0 l 563 464 q 528 571 563 539 q 428 603 494 603 q 311 553 358 603 q 264 425 264 503 l 264 0 l 97 0 l 97 819 z "},"ĥ":{"ha":822,"x_min":-42,"x_max":729,"o":"m 0 0 m 97 1004 l 264 1004 l 264 647 l 274 647 q 365 720 310 693 q 493 747 421 747 q 667 687 604 747 q 729 493 729 626 l 729 0 l 563 0 l 563 464 q 528 571 563 539 q 428 603 494 603 q 311 553 358 603 q 264 425 264 503 l 264 0 l 97 0 l 97 1004 m -42 1039 l 106 1226 l 256 1226 l 401 1039 l 258 1039 l 181 1139 l 101 1039 l -42 1039 z "},"ḥ":{"ha":822,"x_min":97,"x_max":729,"o":"m 97 0 m 97 1004 l 264 1004 l 264 647 l 274 647 q 365 720 310 693 q 493 747 421 747 q 667 687 604 747 q 729 493 729 626 l 729 0 l 563 0 l 563 464 q 528 571 563 539 q 428 603 494 603 q 311 553 358 603 q 264 425 264 503 l 264 0 l 97 0 l 97 1004 m 328 -240 l 328 -76 l 492 -76 l 492 -240 l 328 -240 z "},"i":{"ha":360,"x_min":97,"x_max":264,"o":"m 97 844 l 97 1004 l 264 1004 l 264 844 l 97 844 m 97 0 l 97 731 l 264 731 l 264 0 l 97 0 z "},"ı":{"ha":386,"x_min":110,"x_max":276,"o":"m 110 0 l 110 731 l 276 731 l 276 0 l 110 0 z "},"í":{"ha":386,"x_min":106,"x_max":386,"o":"m 106 821 l 218 1004 l 385 1004 l 386 1000 l 236 821 l 106 821 m 110 0 l 110 731 l 276 731 l 276 0 l 110 0 z "},"ĭ":{"ha":386,"x_min":-21,"x_max":413,"o":"m 194 824 q 32 877 85 824 q -21 1004 -21 931 l 90 1004 q 119 956 94 978 q 194 935 144 935 q 271 956 244 935 q 301 1004 297 978 l 413 1004 q 359 878 413 932 q 194 824 306 824 m 110 0 l 110 731 l 276 731 l 276 0 l 110 0 z "},"ǐ":{"ha":386,"x_min":-29,"x_max":414,"o":"m 0 0 m 110 0 l 110 731 l 276 731 l 276 0 l 110 0 m 118 817 l -29 1004 l 114 1004 l 193 904 l 271 1004 l 414 1004 l 268 817 l 118 817 z "},"î":{"ha":386,"x_min":-28,"x_max":415,"o":"m -28 817 l 119 1004 l 269 1004 l 415 817 l 272 817 l 194 917 l 115 817 l -28 817 m 110 0 l 110 731 l 276 731 l 276 0 l 110 0 z "},"ȉ":{"ha":386,"x_min":-99,"x_max":397,"o":"m 0 0 m 110 0 l 110 731 l 276 731 l 276 0 l 110 0 m 40 821 l -99 1000 l -97 1004 l 69 1004 l 172 821 l 40 821 m 265 821 l 126 1000 l 128 1004 l 296 1004 l 397 821 l 265 821 z "},"ï":{"ha":386,"x_min":-22,"x_max":408,"o":"m -22 851 l -22 1004 l 128 1004 l 128 851 l -22 851 m 258 851 l 258 1004 l 408 1004 l 408 851 l 258 851 m 110 0 l 110 731 l 276 731 l 276 0 l 110 0 z "},"ị":{"ha":360,"x_min":97,"x_max":264,"o":"m 97 0 m 97 844 l 97 1004 l 264 1004 l 264 844 l 97 844 m 97 0 l 97 731 l 264 731 l 264 0 l 97 0 m 97 -240 l 97 -76 l 261 -76 l 261 -240 l 97 -240 z "},"ì":{"ha":386,"x_min":3,"x_max":285,"o":"m 153 821 l 3 1000 l 4 1004 l 172 1004 l 285 821 l 153 821 m 110 0 l 110 731 l 276 731 l 276 0 l 110 0 z "},"ỉ":{"ha":386,"x_min":83,"x_max":343,"o":"m 83 0 m 110 0 l 110 731 l 276 731 l 276 0 l 110 0 m 149 899 l 168 899 q 201 905 192 899 q 211 925 211 911 q 199 946 211 940 q 164 951 188 951 l 83 951 l 83 1010 q 193 1021 135 1021 q 298 1002 253 1021 q 343 936 343 983 q 313 879 343 899 q 238 857 283 860 l 238 821 l 149 821 l 149 899 z "},"ȋ":{"ha":386,"x_min":-24,"x_max":408,"o":"m 0 0 m 110 0 l 110 731 l 276 731 l 276 0 l 110 0 m -24 824 q 29 951 -24 897 q 192 1004 82 1004 q 355 951 301 1004 q 408 824 408 897 l 299 824 q 268 872 294 850 q 192 893 242 893 q 117 872 142 893 q 86 824 92 851 l -24 824 z "},"ĳ":{"ha":719,"x_min":97,"x_max":624,"o":"m 97 0 m 97 844 l 97 1004 l 264 1004 l 264 844 l 97 844 m 97 0 l 97 731 l 264 731 l 264 0 l 97 0 m 457 844 l 457 1004 l 624 1004 l 624 844 l 457 844 m 444 -253 q 381 -247 415 -253 q 326 -232 347 -240 l 326 -118 l 394 -118 q 441 -102 425 -118 q 457 -56 457 -86 l 457 731 l 624 731 l 624 -67 q 582 -199 624 -146 q 444 -253 540 -253 z "},"ī":{"ha":386,"x_min":-6,"x_max":393,"o":"m -6 888 l -6 1001 l 393 1001 l 393 888 l -6 888 m 110 0 l 110 731 l 276 731 l 276 0 l 110 0 z "},"į":{"ha":386,"x_min":38,"x_max":276,"o":"m 274 1006 l 274 842 l 110 842 l 110 1006 l 274 1006 m 217 0 q 184 -45 199 -19 q 169 -97 169 -71 q 187 -149 169 -128 q 239 -169 204 -169 l 276 -169 l 276 -244 q 182 -264 225 -264 q 80 -235 122 -264 q 38 -140 38 -206 q 56 -61 38 -94 q 110 4 75 -28 l 110 731 l 276 731 l 276 0 l 217 0 z "},"ĩ":{"ha":386,"x_min":-37,"x_max":425,"o":"m -37 843 q -6 958 -37 913 q 92 1004 26 1004 q 139 998 117 1004 q 193 979 161 992 q 242 962 222 968 q 285 956 263 956 q 329 1004 324 956 l 425 1004 q 392 888 425 933 q 293 843 360 843 q 247 849 269 843 q 194 868 224 856 q 145 885 165 879 q 103 892 125 892 q 57 843 63 892 l -37 843 m 110 0 l 110 731 l 276 731 l 276 0 l 110 0 z "},"j":{"ha":360,"x_min":-33,"x_max":264,"o":"m 97 844 l 97 1004 l 264 1004 l 264 844 l 97 844 m 85 -253 q 22 -247 56 -253 q -33 -232 -12 -240 l -33 -118 l 35 -118 q 81 -102 65 -118 q 97 -56 97 -86 l 97 731 l 264 731 l 264 -67 q 222 -199 264 -146 q 85 -253 181 -253 z "},"ȷ":{"ha":360,"x_min":-33,"x_max":264,"o":"m 85 -253 q 22 -247 56 -253 q -33 -232 -12 -240 l -33 -118 l 35 -118 q 81 -102 65 -118 q 97 -56 97 -86 l 97 731 l 264 731 l 264 -67 q 222 -199 264 -146 q 85 -253 181 -253 z "},"ĵ":{"ha":360,"x_min":-42,"x_max":403,"o":"m -42 817 l 106 1004 l 257 1004 l 403 817 l 258 817 l 181 917 l 103 817 l -42 817 m 85 -253 q 22 -247 56 -253 q -33 -232 -12 -240 l -33 -118 l 35 -118 q 81 -102 65 -118 q 97 -56 97 -86 l 97 731 l 264 731 l 264 -67 q 222 -199 264 -146 q 85 -253 181 -253 z "},"k":{"ha":746,"x_min":97,"x_max":739,"o":"m 97 0 l 97 1004 l 264 1004 l 264 417 l 529 731 l 725 731 l 479 447 l 739 0 l 547 0 l 374 325 l 264 219 l 264 0 l 97 0 z "},"ķ":{"ha":746,"x_min":97,"x_max":739,"o":"m 97 0 m 97 0 l 97 1004 l 264 1004 l 264 417 l 529 731 l 725 731 l 479 447 l 739 0 l 547 0 l 374 325 l 264 219 l 264 0 l 97 0 m 325 -319 l 389 -197 l 322 -197 l 322 -64 l 489 -64 l 489 -183 l 411 -319 l 325 -319 z "},"ĸ":{"ha":746,"x_min":97,"x_max":739,"o":"m 97 0 l 97 731 l 264 731 l 264 417 l 529 731 l 725 731 l 479 447 l 739 0 l 547 0 l 374 325 l 264 219 l 264 0 l 97 0 z "},"l":{"ha":360,"x_min":97,"x_max":264,"o":"m 97 0 l 97 1004 l 264 1004 l 264 0 l 97 0 z "},"ĺ":{"ha":360,"x_min":97,"x_max":394,"o":"m 97 0 m 97 0 l 97 1004 l 264 1004 l 264 0 l 97 0 m 113 1043 l 225 1226 l 393 1226 l 394 1222 l 244 1043 l 113 1043 z "},"ľ":{"ha":490,"x_min":97,"x_max":503,"o":"m 97 0 l 97 1004 l 264 1004 l 264 0 l 97 0 m 336 638 l 403 793 l 336 793 l 336 953 l 503 953 l 503 808 l 424 638 l 336 638 z "},"ļ":{"ha":360,"x_min":96,"x_max":264,"o":"m 96 0 m 97 0 l 97 1004 l 264 1004 l 264 0 l 97 0 m 99 -319 l 163 -197 l 96 -197 l 96 -64 l 263 -64 l 263 -183 l 185 -319 l 99 -319 z "},"ŀ":{"ha":471,"x_min":97,"x_max":506,"o":"m 97 0 m 97 0 l 97 1004 l 264 1004 l 264 0 l 97 0 m 332 408 l 332 585 l 506 585 l 506 408 l 332 408 z "},"ǉ":{"ha":719,"x_min":97,"x_max":624,"o":"m 97 0 m 97 0 l 97 1004 l 264 1004 l 264 0 l 97 0 m 457 844 l 457 1004 l 624 1004 l 624 844 l 457 844 m 444 -253 q 381 -247 415 -253 q 326 -232 347 -240 l 326 -118 l 394 -118 q 441 -102 425 -118 q 457 -56 457 -86 l 457 731 l 624 731 l 624 -67 q 582 -199 624 -146 q 444 -253 540 -253 z "},"ł":{"ha":360,"x_min":0,"x_max":358,"o":"m 97 0 l 97 363 l 0 293 l 0 422 l 97 493 l 97 1004 l 264 1004 l 264 613 l 358 683 l 358 554 l 264 483 l 264 0 l 97 0 z "},"m":{"ha":1208,"x_min":97,"x_max":1115,"o":"m 97 731 l 235 731 l 249 633 l 258 633 q 348 717 294 686 q 471 747 401 747 q 661 633 611 747 l 672 633 q 765 716 708 685 q 892 747 822 747 q 1056 689 996 747 q 1115 503 1115 631 l 1115 0 l 949 0 l 949 469 q 833 603 949 603 q 731 553 772 603 q 690 425 690 503 l 690 0 l 524 0 l 524 469 q 408 603 524 603 q 306 553 347 603 q 264 425 264 503 l 264 0 l 97 0 l 97 731 z "},"n":{"ha":822,"x_min":97,"x_max":729,"o":"m 97 731 l 235 731 l 249 633 l 258 633 q 358 717 299 688 q 493 747 417 747 q 667 687 604 747 q 729 493 729 626 l 729 0 l 563 0 l 563 464 q 528 571 563 539 q 428 603 494 603 q 311 553 358 603 q 264 425 264 503 l 264 0 l 97 0 l 97 731 z "},"ń":{"ha":822,"x_min":97,"x_max":729,"o":"m 97 0 m 97 731 l 235 731 l 249 633 l 258 633 q 358 717 299 688 q 493 747 417 747 q 667 687 604 747 q 729 493 729 626 l 729 0 l 563 0 l 563 464 q 528 571 563 539 q 428 603 494 603 q 311 553 358 603 q 264 425 264 503 l 264 0 l 97 0 l 97 731 m 344 821 l 457 1004 l 625 1004 l 626 1000 l 476 821 l 344 821 z "},"ŉ":{"ha":933,"x_min":-3,"x_max":840,"o":"m -3 638 l 64 793 l -3 793 l -3 953 l 164 953 l 164 808 l 83 638 l -3 638 m 208 731 l 346 731 l 360 633 l 369 633 q 469 717 410 688 q 604 747 528 747 q 778 687 715 747 q 840 493 840 626 l 840 0 l 674 0 l 674 464 q 640 571 674 539 q 539 603 606 603 q 422 553 469 603 q 375 425 375 503 l 375 0 l 208 0 l 208 731 z "},"ň":{"ha":822,"x_min":97,"x_max":729,"o":"m 97 0 m 97 731 l 235 731 l 249 633 l 258 633 q 358 717 299 688 q 493 747 417 747 q 667 687 604 747 q 729 493 729 626 l 729 0 l 563 0 l 563 464 q 528 571 563 539 q 428 603 494 603 q 311 553 358 603 q 264 425 264 503 l 264 0 l 97 0 l 97 731 m 336 817 l 189 1004 l 332 1004 l 411 904 l 489 1004 l 632 1004 l 486 817 l 336 817 z "},"ņ":{"ha":822,"x_min":97,"x_max":729,"o":"m 97 0 m 97 731 l 235 731 l 249 633 l 258 633 q 358 717 299 688 q 493 747 417 747 q 667 687 604 747 q 729 493 729 626 l 729 0 l 563 0 l 563 464 q 528 571 563 539 q 428 603 494 603 q 311 553 358 603 q 264 425 264 503 l 264 0 l 97 0 l 97 731 m 331 -319 l 394 -197 l 328 -197 l 328 -64 l 494 -64 l 494 -183 l 417 -319 l 331 -319 z "},"ṅ":{"ha":822,"x_min":97,"x_max":729,"o":"m 97 0 m 97 731 l 235 731 l 249 633 l 258 633 q 358 717 299 688 q 493 747 417 747 q 667 687 604 747 q 729 493 729 626 l 729 0 l 563 0 l 563 464 q 528 571 563 539 q 428 603 494 603 q 311 553 358 603 q 264 425 264 503 l 264 0 l 97 0 l 97 731 m 328 842 l 328 1006 l 492 1006 l 492 842 l 328 842 z "},"ŋ":{"ha":822,"x_min":97,"x_max":729,"o":"m 551 -253 q 489 -247 522 -253 q 433 -232 456 -240 l 433 -118 l 501 -118 q 563 -56 563 -118 l 563 464 q 528 571 563 539 q 428 603 494 603 q 311 553 358 603 q 264 425 264 503 l 264 0 l 97 0 l 97 731 l 235 731 l 249 633 l 258 633 q 358 717 299 688 q 493 747 417 747 q 667 687 604 747 q 729 493 729 626 l 729 -67 q 688 -199 729 -146 q 551 -253 646 -253 z "},"ɲ":{"ha":822,"x_min":-33,"x_max":729,"o":"m 85 -253 q 22 -247 56 -253 q -33 -232 -12 -240 l -33 -118 l 35 -118 q 81 -102 65 -118 q 97 -56 97 -86 l 97 731 l 235 731 l 249 633 l 258 633 q 358 717 299 688 q 493 747 417 747 q 667 687 604 747 q 729 493 729 626 l 729 0 l 563 0 l 563 464 q 528 571 563 539 q 428 603 494 603 q 311 553 358 603 q 264 425 264 503 l 264 -67 q 222 -199 264 -146 q 85 -253 181 -253 z "},"ǌ":{"ha":1182,"x_min":97,"x_max":1086,"o":"m 97 0 m 97 731 l 235 731 l 249 633 l 258 633 q 358 717 299 688 q 493 747 417 747 q 667 687 604 747 q 729 493 729 626 l 729 0 l 563 0 l 563 464 q 528 571 563 539 q 428 603 494 603 q 311 553 358 603 q 264 425 264 503 l 264 0 l 97 0 l 97 731 m 919 844 l 919 1004 l 1086 1004 l 1086 844 l 919 844 m 907 -253 q 844 -247 878 -253 q 789 -232 810 -240 l 789 -118 l 857 -118 q 903 -102 888 -118 q 919 -56 919 -86 l 919 731 l 1086 731 l 1086 -67 q 1044 -199 1086 -146 q 907 -253 1003 -253 z "},"ñ":{"ha":822,"x_min":97,"x_max":729,"o":"m 97 0 m 97 731 l 235 731 l 249 633 l 258 633 q 358 717 299 688 q 493 747 417 747 q 667 687 604 747 q 729 493 729 626 l 729 0 l 563 0 l 563 464 q 528 571 563 539 q 428 603 494 603 q 311 553 358 603 q 264 425 264 503 l 264 0 l 97 0 l 97 731 m 179 843 q 212 959 179 914 q 310 1004 244 1004 q 357 998 333 1004 q 411 979 381 992 q 501 956 467 956 q 547 1004 542 956 l 642 1004 q 609 888 642 933 q 511 843 576 843 q 465 849 488 843 q 411 868 443 856 q 362 885 382 879 q 319 892 342 892 q 275 843 281 892 l 179 843 z "},"o":{"ha":822,"x_min":51,"x_max":771,"o":"m 411 -17 q 141 76 231 -17 q 51 365 51 169 q 141 654 51 561 q 411 747 231 747 q 681 654 592 747 q 771 365 771 561 q 681 76 771 169 q 411 -17 592 -17 m 411 119 q 554 177 510 119 q 599 356 599 235 l 599 375 q 554 553 599 496 q 411 611 510 611 q 267 553 311 611 q 224 375 224 496 l 224 356 q 267 177 224 235 q 411 119 311 119 z "},"ó":{"ha":822,"x_min":51,"x_max":771,"o":"m 51 0 m 411 -17 q 141 76 231 -17 q 51 365 51 169 q 141 654 51 561 q 411 747 231 747 q 681 654 592 747 q 771 365 771 561 q 681 76 771 169 q 411 -17 592 -17 m 411 119 q 554 177 510 119 q 599 356 599 235 l 599 375 q 554 553 599 496 q 411 611 510 611 q 267 553 311 611 q 224 375 224 496 l 224 356 q 267 177 224 235 q 411 119 311 119 m 344 821 l 457 1004 l 625 1004 l 626 1000 l 476 821 l 344 821 z "},"ŏ":{"ha":822,"x_min":51,"x_max":771,"o":"m 51 0 m 411 -17 q 141 76 231 -17 q 51 365 51 169 q 141 654 51 561 q 411 747 231 747 q 681 654 592 747 q 771 365 771 561 q 681 76 771 169 q 411 -17 592 -17 m 411 119 q 554 177 510 119 q 599 356 599 235 l 599 375 q 554 553 599 496 q 411 611 510 611 q 267 553 311 611 q 224 375 224 496 l 224 356 q 267 177 224 235 q 411 119 311 119 m 410 824 q 247 877 300 824 q 194 1004 194 931 l 304 1004 q 335 956 310 976 q 410 935 360 935 q 486 956 460 935 q 517 1004 513 978 l 626 1004 q 573 877 626 931 q 410 824 519 824 z "},"ǒ":{"ha":822,"x_min":51,"x_max":771,"o":"m 51 0 m 411 -17 q 141 76 231 -17 q 51 365 51 169 q 141 654 51 561 q 411 747 231 747 q 681 654 592 747 q 771 365 771 561 q 681 76 771 169 q 411 -17 592 -17 m 411 119 q 554 177 510 119 q 599 356 599 235 l 599 375 q 554 553 599 496 q 411 611 510 611 q 267 553 311 611 q 224 375 224 496 l 224 356 q 267 177 224 235 q 411 119 311 119 m 336 817 l 189 1004 l 332 1004 l 411 904 l 489 1004 l 632 1004 l 486 817 l 336 817 z "},"ô":{"ha":822,"x_min":51,"x_max":771,"o":"m 51 0 m 411 -17 q 141 76 231 -17 q 51 365 51 169 q 141 654 51 561 q 411 747 231 747 q 681 654 592 747 q 771 365 771 561 q 681 76 771 169 q 411 -17 592 -17 m 411 119 q 554 177 510 119 q 599 356 599 235 l 599 375 q 554 553 599 496 q 411 611 510 611 q 267 553 311 611 q 224 375 224 496 l 224 356 q 267 177 224 235 q 411 119 311 119 m 189 817 l 336 1004 l 486 1004 l 632 817 l 489 817 l 411 917 l 332 817 l 189 817 z "},"ố":{"ha":822,"x_min":51,"x_max":824,"o":"m 51 0 m 411 -17 q 141 76 231 -17 q 51 365 51 169 q 141 654 51 561 q 411 747 231 747 q 681 654 592 747 q 771 365 771 561 q 681 76 771 169 q 411 -17 592 -17 m 411 119 q 554 177 510 119 q 599 356 599 235 l 599 375 q 554 553 599 496 q 411 611 510 611 q 267 553 311 611 q 224 375 224 496 l 224 356 q 267 177 224 235 q 411 119 311 119 m 189 817 l 336 1004 l 486 1004 l 632 817 l 489 817 l 411 917 l 332 817 l 189 817 m 542 953 l 654 1136 l 822 1136 l 824 1132 l 674 953 l 542 953 z "},"ộ":{"ha":822,"x_min":51,"x_max":771,"o":"m 51 0 m 411 -17 q 141 76 231 -17 q 51 365 51 169 q 141 654 51 561 q 411 747 231 747 q 681 654 592 747 q 771 365 771 561 q 681 76 771 169 q 411 -17 592 -17 m 411 119 q 554 177 510 119 q 599 356 599 235 l 599 375 q 554 553 599 496 q 411 611 510 611 q 267 553 311 611 q 224 375 224 496 l 224 356 q 267 177 224 235 q 411 119 311 119 m 189 817 l 336 1004 l 486 1004 l 632 817 l 489 817 l 411 917 l 332 817 l 189 817 m 328 -240 l 328 -76 l 492 -76 l 492 -240 l 328 -240 z "},"ồ":{"ha":822,"x_min":51,"x_max":771,"o":"m 51 0 m 411 -17 q 141 76 231 -17 q 51 365 51 169 q 141 654 51 561 q 411 747 231 747 q 681 654 592 747 q 771 365 771 561 q 681 76 771 169 q 411 -17 592 -17 m 411 119 q 554 177 510 119 q 599 356 599 235 l 599 375 q 554 553 599 496 q 411 611 510 611 q 267 553 311 611 q 224 375 224 496 l 224 356 q 267 177 224 235 q 411 119 311 119 m 189 817 l 336 1004 l 486 1004 l 632 817 l 489 817 l 411 917 l 332 817 l 189 817 m 597 953 l 447 1132 l 449 1136 l 615 1136 l 729 953 l 597 953 z "},"ổ":{"ha":822,"x_min":51,"x_max":771,"o":"m 51 0 m 411 -17 q 141 76 231 -17 q 51 365 51 169 q 141 654 51 561 q 411 747 231 747 q 681 654 592 747 q 771 365 771 561 q 681 76 771 169 q 411 -17 592 -17 m 411 119 q 554 177 510 119 q 599 356 599 235 l 599 375 q 554 553 599 496 q 411 611 510 611 q 267 553 311 611 q 224 375 224 496 l 224 356 q 267 177 224 235 q 411 119 311 119 m 189 817 l 336 1004 l 486 1004 l 632 817 l 489 817 l 411 917 l 332 817 l 189 817 m 564 1031 l 583 1031 q 617 1037 607 1031 q 626 1057 626 1043 q 615 1078 626 1072 q 579 1083 603 1083 l 499 1083 l 499 1142 q 608 1153 550 1153 q 713 1134 668 1153 q 758 1068 758 1115 q 728 1011 758 1031 q 653 989 699 992 l 653 953 l 564 953 l 564 1031 z "},"ỗ":{"ha":822,"x_min":51,"x_max":771,"o":"m 51 0 m 411 -17 q 141 76 231 -17 q 51 365 51 169 q 141 654 51 561 q 411 747 231 747 q 681 654 592 747 q 771 365 771 561 q 681 76 771 169 q 411 -17 592 -17 m 411 119 q 554 177 510 119 q 599 356 599 235 l 599 375 q 554 553 599 496 q 411 611 510 611 q 267 553 311 611 q 224 375 224 496 l 224 356 q 267 177 224 235 q 411 119 311 119 m 189 817 l 336 1004 l 486 1004 l 632 817 l 489 817 l 411 917 l 332 817 l 189 817 m 182 1065 q 215 1181 182 1136 q 313 1226 247 1226 q 360 1220 336 1226 q 414 1201 383 1214 q 504 1178 469 1178 q 550 1226 544 1178 l 644 1226 q 612 1110 644 1156 q 514 1065 579 1065 q 468 1072 490 1065 q 414 1090 446 1078 q 365 1108 385 1101 q 322 1114 344 1114 q 278 1065 283 1114 l 182 1065 z "},"ȍ":{"ha":822,"x_min":51,"x_max":771,"o":"m 51 0 m 411 -17 q 141 76 231 -17 q 51 365 51 169 q 141 654 51 561 q 411 747 231 747 q 681 654 592 747 q 771 365 771 561 q 681 76 771 169 q 411 -17 592 -17 m 411 119 q 554 177 510 119 q 599 356 599 235 l 599 375 q 554 553 599 496 q 411 611 510 611 q 267 553 311 611 q 224 375 224 496 l 224 356 q 267 177 224 235 q 411 119 311 119 m 258 821 l 119 1000 l 121 1004 l 288 1004 l 390 821 l 258 821 m 483 821 l 344 1000 l 346 1004 l 514 1004 l 615 821 l 483 821 z "},"ö":{"ha":822,"x_min":51,"x_max":771,"o":"m 51 0 m 411 -17 q 141 76 231 -17 q 51 365 51 169 q 141 654 51 561 q 411 747 231 747 q 681 654 592 747 q 771 365 771 561 q 681 76 771 169 q 411 -17 592 -17 m 411 119 q 554 177 510 119 q 599 356 599 235 l 599 375 q 554 553 599 496 q 411 611 510 611 q 267 553 311 611 q 224 375 224 496 l 224 356 q 267 177 224 235 q 411 119 311 119 m 197 851 l 197 1004 l 346 1004 l 346 851 l 197 851 m 478 851 l 478 1004 l 628 1004 l 628 851 l 478 851 z "},"ọ":{"ha":822,"x_min":51,"x_max":771,"o":"m 51 0 m 411 -17 q 141 76 231 -17 q 51 365 51 169 q 141 654 51 561 q 411 747 231 747 q 681 654 592 747 q 771 365 771 561 q 681 76 771 169 q 411 -17 592 -17 m 411 119 q 554 177 510 119 q 599 356 599 235 l 599 375 q 554 553 599 496 q 411 611 510 611 q 267 553 311 611 q 224 375 224 496 l 224 356 q 267 177 224 235 q 411 119 311 119 m 328 -240 l 328 -76 l 492 -76 l 492 -240 l 328 -240 z "},"ò":{"ha":822,"x_min":51,"x_max":771,"o":"m 51 0 m 411 -17 q 141 76 231 -17 q 51 365 51 169 q 141 654 51 561 q 411 747 231 747 q 681 654 592 747 q 771 365 771 561 q 681 76 771 169 q 411 -17 592 -17 m 411 119 q 554 177 510 119 q 599 356 599 235 l 599 375 q 554 553 599 496 q 411 611 510 611 q 267 553 311 611 q 224 375 224 496 l 224 356 q 267 177 224 235 q 411 119 311 119 m 344 821 l 194 1000 l 196 1004 l 363 1004 l 476 821 l 344 821 z "},"ỏ":{"ha":822,"x_min":51,"x_max":771,"o":"m 51 0 m 411 -17 q 141 76 231 -17 q 51 365 51 169 q 141 654 51 561 q 411 747 231 747 q 681 654 592 747 q 771 365 771 561 q 681 76 771 169 q 411 -17 592 -17 m 411 119 q 554 177 510 119 q 599 356 599 235 l 599 375 q 554 553 599 496 q 411 611 510 611 q 267 553 311 611 q 224 375 224 496 l 224 356 q 267 177 224 235 q 411 119 311 119 m 367 899 l 386 899 q 419 905 410 899 q 429 925 429 911 q 417 946 429 940 q 382 951 406 951 l 301 951 l 301 1010 q 411 1021 353 1021 q 516 1002 471 1021 q 561 936 561 983 q 531 879 561 899 q 456 857 501 860 l 456 821 l 367 821 l 367 899 z "},"ơ":{"ha":822,"x_min":51,"x_max":908,"o":"m 908 953 l 908 878 q 863 699 908 767 q 721 600 817 632 q 771 365 771 511 q 681 76 771 169 q 411 -17 592 -17 q 141 76 231 -17 q 51 365 51 169 q 141 654 51 561 q 411 747 231 747 q 660 674 574 747 q 748 711 714 686 q 796 776 782 736 l 707 776 l 707 953 l 908 953 m 599 375 q 554 553 599 496 q 411 611 510 611 q 267 553 311 611 q 224 375 224 496 l 224 356 q 267 177 224 235 q 411 119 311 119 q 554 177 510 119 q 599 356 599 235 l 599 375 z "},"ớ":{"ha":822,"x_min":51,"x_max":908,"o":"m 51 0 m 908 953 l 908 878 q 863 699 908 767 q 721 600 817 632 q 771 365 771 511 q 681 76 771 169 q 411 -17 592 -17 q 141 76 231 -17 q 51 365 51 169 q 141 654 51 561 q 411 747 231 747 q 660 674 574 747 q 748 711 714 686 q 796 776 782 736 l 707 776 l 707 953 l 908 953 m 599 375 q 554 553 599 496 q 411 611 510 611 q 267 553 311 611 q 224 375 224 496 l 224 356 q 267 177 224 235 q 411 119 311 119 q 554 177 510 119 q 599 356 599 235 l 599 375 m 344 821 l 457 1004 l 625 1004 l 626 1000 l 476 821 l 344 821 z "},"ợ":{"ha":822,"x_min":51,"x_max":908,"o":"m 51 0 m 908 953 l 908 878 q 863 699 908 767 q 721 600 817 632 q 771 365 771 511 q 681 76 771 169 q 411 -17 592 -17 q 141 76 231 -17 q 51 365 51 169 q 141 654 51 561 q 411 747 231 747 q 660 674 574 747 q 748 711 714 686 q 796 776 782 736 l 707 776 l 707 953 l 908 953 m 599 375 q 554 553 599 496 q 411 611 510 611 q 267 553 311 611 q 224 375 224 496 l 224 356 q 267 177 224 235 q 411 119 311 119 q 554 177 510 119 q 599 356 599 235 l 599 375 m 328 -240 l 328 -76 l 492 -76 l 492 -240 l 328 -240 z "},"ờ":{"ha":822,"x_min":51,"x_max":908,"o":"m 51 0 m 908 953 l 908 878 q 863 699 908 767 q 721 600 817 632 q 771 365 771 511 q 681 76 771 169 q 411 -17 592 -17 q 141 76 231 -17 q 51 365 51 169 q 141 654 51 561 q 411 747 231 747 q 660 674 574 747 q 748 711 714 686 q 796 776 782 736 l 707 776 l 707 953 l 908 953 m 599 375 q 554 553 599 496 q 411 611 510 611 q 267 553 311 611 q 224 375 224 496 l 224 356 q 267 177 224 235 q 411 119 311 119 q 554 177 510 119 q 599 356 599 235 l 599 375 m 344 821 l 194 1000 l 196 1004 l 363 1004 l 476 821 l 344 821 z "},"ở":{"ha":822,"x_min":51,"x_max":908,"o":"m 51 0 m 908 953 l 908 878 q 863 699 908 767 q 721 600 817 632 q 771 365 771 511 q 681 76 771 169 q 411 -17 592 -17 q 141 76 231 -17 q 51 365 51 169 q 141 654 51 561 q 411 747 231 747 q 660 674 574 747 q 748 711 714 686 q 796 776 782 736 l 707 776 l 707 953 l 908 953 m 599 375 q 554 553 599 496 q 411 611 510 611 q 267 553 311 611 q 224 375 224 496 l 224 356 q 267 177 224 235 q 411 119 311 119 q 554 177 510 119 q 599 356 599 235 l 599 375 m 367 899 l 386 899 q 419 905 410 899 q 429 925 429 911 q 417 946 429 940 q 382 951 406 951 l 301 951 l 301 1010 q 411 1021 353 1021 q 516 1002 471 1021 q 561 936 561 983 q 531 879 561 899 q 456 857 501 860 l 456 821 l 367 821 l 367 899 z "},"ỡ":{"ha":822,"x_min":51,"x_max":908,"o":"m 51 0 m 908 953 l 908 878 q 863 699 908 767 q 721 600 817 632 q 771 365 771 511 q 681 76 771 169 q 411 -17 592 -17 q 141 76 231 -17 q 51 365 51 169 q 141 654 51 561 q 411 747 231 747 q 660 674 574 747 q 748 711 714 686 q 796 776 782 736 l 707 776 l 707 953 l 908 953 m 599 375 q 554 553 599 496 q 411 611 510 611 q 267 553 311 611 q 224 375 224 496 l 224 356 q 267 177 224 235 q 411 119 311 119 q 554 177 510 119 q 599 356 599 235 l 599 375 m 179 843 q 212 959 179 914 q 310 1004 244 1004 q 357 998 333 1004 q 411 979 381 992 q 501 956 467 956 q 547 1004 542 956 l 642 1004 q 609 888 642 933 q 511 843 576 843 q 465 849 488 843 q 411 868 443 856 q 362 885 382 879 q 319 892 342 892 q 275 843 281 892 l 179 843 z "},"ő":{"ha":822,"x_min":51,"x_max":771,"o":"m 51 0 m 411 -17 q 141 76 231 -17 q 51 365 51 169 q 141 654 51 561 q 411 747 231 747 q 681 654 592 747 q 771 365 771 561 q 681 76 771 169 q 411 -17 592 -17 m 411 119 q 554 177 510 119 q 599 356 599 235 l 599 375 q 554 553 599 496 q 411 611 510 611 q 267 553 311 611 q 224 375 224 496 l 224 356 q 267 177 224 235 q 411 119 311 119 m 232 821 l 333 1004 l 501 1004 l 503 1000 l 364 821 l 232 821 m 457 821 l 560 1004 l 726 1004 l 728 1000 l 589 821 l 457 821 z "},"ȏ":{"ha":822,"x_min":51,"x_max":771,"o":"m 51 0 m 411 -17 q 141 76 231 -17 q 51 365 51 169 q 141 654 51 561 q 411 747 231 747 q 681 654 592 747 q 771 365 771 561 q 681 76 771 169 q 411 -17 592 -17 m 411 119 q 554 177 510 119 q 599 356 599 235 l 599 375 q 554 553 599 496 q 411 611 510 611 q 267 553 311 611 q 224 375 224 496 l 224 356 q 267 177 224 235 q 411 119 311 119 m 194 824 q 247 951 194 897 q 410 1004 300 1004 q 573 951 519 1004 q 626 824 626 897 l 517 824 q 486 872 513 850 q 410 893 460 893 q 335 872 360 893 q 304 824 310 851 l 194 824 z "},"ō":{"ha":822,"x_min":51,"x_max":771,"o":"m 51 0 m 411 -17 q 141 76 231 -17 q 51 365 51 169 q 141 654 51 561 q 411 747 231 747 q 681 654 592 747 q 771 365 771 561 q 681 76 771 169 q 411 -17 592 -17 m 411 119 q 554 177 510 119 q 599 356 599 235 l 599 375 q 554 553 599 496 q 411 611 510 611 q 267 553 311 611 q 224 375 224 496 l 224 356 q 267 177 224 235 q 411 119 311 119 m 199 857 l 199 971 l 622 971 l 622 857 l 199 857 z "},"ǫ":{"ha":822,"x_min":51,"x_max":771,"o":"m 771 365 q 578 10 771 83 q 546 -35 560 -10 q 532 -86 532 -61 q 549 -137 532 -117 q 601 -158 567 -158 l 639 -158 l 639 -233 q 544 -253 588 -253 q 442 -224 485 -253 q 400 -129 400 -194 q 442 -15 400 -69 q 411 -17 432 -17 q 141 76 231 -17 q 51 365 51 169 q 141 654 51 561 q 411 747 231 747 q 681 654 592 747 q 771 365 771 561 m 224 356 q 267 177 224 235 q 411 119 311 119 q 554 177 510 119 q 599 356 599 235 l 599 375 q 554 553 599 496 q 411 611 510 611 q 267 553 311 611 q 224 375 224 496 l 224 356 z "},"ø":{"ha":849,"x_min":63,"x_max":786,"o":"m 160 69 q 64 365 64 165 q 153 653 64 560 q 424 747 243 747 q 613 711 533 747 l 674 799 l 786 799 l 688 658 q 783 365 783 565 q 694 76 783 169 q 424 -17 604 -17 q 236 18 317 -17 l 176 -68 l 63 -68 l 160 69 m 525 588 q 424 611 481 611 q 281 553 325 611 q 236 375 236 496 l 236 358 q 260 213 236 268 l 525 588 m 424 119 q 568 177 524 119 q 613 356 613 235 l 613 372 q 588 517 613 463 l 324 142 q 424 119 365 119 z "},"ǿ":{"ha":849,"x_min":63,"x_max":786,"o":"m 63 0 m 160 69 q 64 365 64 165 q 153 653 64 560 q 424 747 243 747 q 613 711 533 747 l 674 799 l 786 799 l 688 658 q 783 365 783 565 q 694 76 783 169 q 424 -17 604 -17 q 236 18 317 -17 l 176 -68 l 63 -68 l 160 69 m 525 588 q 424 611 481 611 q 281 553 325 611 q 236 375 236 496 l 236 358 q 260 213 236 268 l 525 588 m 424 119 q 568 177 524 119 q 613 356 613 235 l 613 372 q 588 517 613 463 l 324 142 q 424 119 365 119 m 358 821 l 471 1004 l 639 1004 l 640 1000 l 490 821 l 358 821 z "},"õ":{"ha":822,"x_min":51,"x_max":771,"o":"m 51 0 m 411 -17 q 141 76 231 -17 q 51 365 51 169 q 141 654 51 561 q 411 747 231 747 q 681 654 592 747 q 771 365 771 561 q 681 76 771 169 q 411 -17 592 -17 m 411 119 q 554 177 510 119 q 599 356 599 235 l 599 375 q 554 553 599 496 q 411 611 510 611 q 267 553 311 611 q 224 375 224 496 l 224 356 q 267 177 224 235 q 411 119 311 119 m 179 843 q 212 959 179 914 q 310 1004 244 1004 q 357 998 333 1004 q 411 979 381 992 q 501 956 467 956 q 547 1004 542 956 l 642 1004 q 609 888 642 933 q 511 843 576 843 q 465 849 488 843 q 411 868 443 856 q 362 885 382 879 q 319 892 342 892 q 275 843 281 892 l 179 843 z "},"œ":{"ha":1311,"x_min":51,"x_max":1263,"o":"m 407 -17 q 140 77 229 -17 q 51 365 51 171 q 140 653 51 560 q 407 747 229 747 q 676 638 588 747 q 942 747 761 747 q 1183 657 1103 747 q 1263 375 1263 567 l 1263 325 l 761 325 q 808 166 765 217 q 943 115 850 115 q 1056 151 1013 115 q 1099 256 1099 186 l 1263 256 q 1174 52 1263 121 q 942 -17 1085 -17 q 676 92 763 -17 q 407 -17 588 -17 m 1089 443 q 942 615 1089 615 q 816 573 858 615 q 764 443 774 531 l 1089 443 m 407 119 q 548 178 504 119 q 592 358 592 236 l 592 369 q 548 552 592 493 q 407 611 504 611 q 267 553 311 611 q 224 375 224 496 l 224 358 q 267 178 224 236 q 407 119 310 119 z "},"p":{"ha":822,"x_min":97,"x_max":772,"o":"m 97 731 l 235 731 l 249 633 l 257 633 q 351 718 293 689 q 481 747 410 747 q 696 653 619 747 q 772 364 772 558 q 696 79 772 175 q 492 -17 619 -17 q 272 85 339 -17 l 264 85 l 264 -240 l 97 -240 l 97 731 m 431 126 q 561 181 522 126 q 600 356 600 236 l 600 374 q 561 549 600 494 q 431 604 522 604 q 304 546 344 604 q 264 374 264 488 l 264 357 q 304 185 264 243 q 431 126 344 126 z "},"þ":{"ha":822,"x_min":97,"x_max":772,"o":"m 97 1017 l 264 1017 l 264 646 l 272 646 q 492 747 339 747 q 697 651 622 747 q 772 364 772 556 q 696 79 772 175 q 492 -17 619 -17 q 272 85 339 -17 l 264 85 l 264 -240 l 97 -240 l 97 1017 m 431 126 q 561 181 522 126 q 600 356 600 236 l 600 374 q 561 549 600 494 q 431 604 522 604 q 304 546 344 604 q 264 374 264 488 l 264 357 q 304 185 264 243 q 431 126 344 126 z "},"q":{"ha":822,"x_min":50,"x_max":725,"o":"m 558 85 l 550 85 q 331 -17 483 -17 q 126 79 203 -17 q 50 364 50 175 q 126 653 50 558 q 342 747 203 747 q 471 718 413 747 q 565 633 529 689 l 574 633 l 588 731 l 725 731 l 725 -240 l 558 -240 l 558 85 m 392 126 q 518 185 478 126 q 558 357 558 243 l 558 374 q 518 546 558 488 q 392 604 478 604 q 261 549 300 604 q 222 374 222 494 l 222 356 q 261 181 222 236 q 392 126 300 126 z "},"r":{"ha":514,"x_min":97,"x_max":493,"o":"m 97 731 l 235 731 l 250 615 l 260 615 q 424 747 310 747 q 468 742 449 747 q 493 735 488 738 l 493 578 l 440 578 q 264 381 264 578 l 264 0 l 97 0 l 97 731 z "},"ŕ":{"ha":514,"x_min":97,"x_max":493,"o":"m 97 0 m 97 731 l 235 731 l 250 615 l 260 615 q 424 747 310 747 q 468 742 449 747 q 493 735 488 738 l 493 578 l 440 578 q 264 381 264 578 l 264 0 l 97 0 l 97 731 m 190 821 l 303 1004 l 471 1004 l 472 1000 l 322 821 l 190 821 z "},"ř":{"ha":514,"x_min":35,"x_max":493,"o":"m 35 0 m 97 731 l 235 731 l 250 615 l 260 615 q 424 747 310 747 q 468 742 449 747 q 493 735 488 738 l 493 578 l 440 578 q 264 381 264 578 l 264 0 l 97 0 l 97 731 m 182 817 l 35 1004 l 178 1004 l 257 904 l 335 1004 l 478 1004 l 332 817 l 182 817 z "},"ŗ":{"ha":514,"x_min":97,"x_max":493,"o":"m 97 0 m 97 731 l 235 731 l 250 615 l 260 615 q 424 747 310 747 q 468 742 449 747 q 493 735 488 738 l 493 578 l 440 578 q 264 381 264 578 l 264 0 l 97 0 l 97 731 m 100 -319 l 164 -197 l 97 -197 l 97 -64 l 264 -64 l 264 -183 l 186 -319 l 100 -319 z "},"ȑ":{"ha":514,"x_min":-35,"x_max":493,"o":"m 0 0 m 97 731 l 235 731 l 250 615 l 260 615 q 424 747 310 747 q 468 742 449 747 q 493 735 488 738 l 493 578 l 440 578 q 264 381 264 578 l 264 0 l 97 0 l 97 731 m 104 821 l -35 1000 l -33 1004 l 133 1004 l 236 821 l 104 821 m 329 821 l 190 1000 l 192 1004 l 360 1004 l 461 821 l 329 821 z "},"ṛ":{"ha":514,"x_min":97,"x_max":493,"o":"m 97 0 m 97 731 l 235 731 l 250 615 l 260 615 q 424 747 310 747 q 468 742 449 747 q 493 735 488 738 l 493 578 l 440 578 q 264 381 264 578 l 264 0 l 97 0 l 97 731 m 97 -240 l 97 -76 l 261 -76 l 261 -240 l 97 -240 z "},"ȓ":{"ha":514,"x_min":40,"x_max":493,"o":"m 40 0 m 97 731 l 235 731 l 250 615 l 260 615 q 424 747 310 747 q 468 742 449 747 q 493 735 488 738 l 493 578 l 440 578 q 264 381 264 578 l 264 0 l 97 0 l 97 731 m 40 824 q 93 951 40 897 q 256 1004 146 1004 q 419 951 365 1004 q 472 824 472 897 l 363 824 q 332 872 358 850 q 256 893 306 893 q 181 872 206 893 q 150 824 156 851 l 40 824 z "},"s":{"ha":746,"x_min":57,"x_max":696,"o":"m 374 -17 q 140 46 222 -17 q 57 208 57 108 q 58 225 57 221 q 58 231 58 229 l 221 231 l 221 219 q 267 140 222 165 q 381 114 313 114 q 485 134 442 114 q 528 194 528 154 q 504 247 528 226 q 446 278 481 267 q 347 306 411 290 q 206 347 261 326 q 113 413 151 368 q 74 529 74 457 q 160 690 74 633 q 383 747 246 747 q 535 722 468 747 q 638 652 601 697 q 675 549 675 607 l 674 518 l 511 518 l 511 524 q 476 591 511 567 q 374 615 440 615 q 275 595 308 615 q 242 543 242 575 q 283 485 242 504 q 408 449 324 467 q 556 406 500 428 q 654 339 613 385 q 696 215 696 293 q 609 39 696 94 q 374 -17 522 -17 z "},"ś":{"ha":746,"x_min":57,"x_max":696,"o":"m 57 0 m 374 -17 q 140 46 222 -17 q 57 208 57 108 q 58 225 57 221 q 58 231 58 229 l 221 231 l 221 219 q 267 140 222 165 q 381 114 313 114 q 485 134 442 114 q 528 194 528 154 q 504 247 528 226 q 446 278 481 267 q 347 306 411 290 q 206 347 261 326 q 113 413 151 368 q 74 529 74 457 q 160 690 74 633 q 383 747 246 747 q 535 722 468 747 q 638 652 601 697 q 675 549 675 607 l 674 518 l 511 518 l 511 524 q 476 591 511 567 q 374 615 440 615 q 275 595 308 615 q 242 543 242 575 q 283 485 242 504 q 408 449 324 467 q 556 406 500 428 q 654 339 613 385 q 696 215 696 293 q 609 39 696 94 q 374 -17 522 -17 m 306 821 l 418 1004 l 586 1004 l 588 1000 l 438 821 l 306 821 z "},"ꞌ":{"ha":254,"x_min":67,"x_max":226,"o":"m 67 399 l 67 1004 l 226 1004 l 226 839 l 168 399 l 67 399 z "},"š":{"ha":746,"x_min":57,"x_max":696,"o":"m 57 0 m 374 -17 q 140 46 222 -17 q 57 208 57 108 q 58 225 57 221 q 58 231 58 229 l 221 231 l 221 219 q 267 140 222 165 q 381 114 313 114 q 485 134 442 114 q 528 194 528 154 q 504 247 528 226 q 446 278 481 267 q 347 306 411 290 q 206 347 261 326 q 113 413 151 368 q 74 529 74 457 q 160 690 74 633 q 383 747 246 747 q 535 722 468 747 q 638 652 601 697 q 675 549 675 607 l 674 518 l 511 518 l 511 524 q 476 591 511 567 q 374 615 440 615 q 275 595 308 615 q 242 543 242 575 q 283 485 242 504 q 408 449 324 467 q 556 406 500 428 q 654 339 613 385 q 696 215 696 293 q 609 39 696 94 q 374 -17 522 -17 m 297 817 l 150 1004 l 293 1004 l 372 904 l 450 1004 l 593 1004 l 447 817 l 297 817 z "},"ş":{"ha":746,"x_min":57,"x_max":696,"o":"m 696 215 q 622 49 696 104 q 421 -15 549 -7 l 415 -47 q 512 -73 475 -50 q 549 -140 549 -96 q 494 -228 549 -203 q 368 -253 439 -253 q 228 -242 292 -253 l 228 -174 l 357 -174 q 402 -167 388 -174 q 417 -140 417 -160 q 404 -115 417 -122 q 360 -107 392 -107 l 299 -107 l 314 -14 q 123 59 189 -1 q 57 208 57 119 q 58 225 57 221 q 58 231 58 229 l 221 231 l 221 219 q 267 140 222 165 q 381 114 313 114 q 485 134 442 114 q 528 194 528 154 q 504 247 528 226 q 446 278 481 267 q 347 306 411 290 q 206 347 261 326 q 113 413 151 368 q 74 529 74 457 q 160 690 74 633 q 383 747 246 747 q 535 722 468 747 q 638 652 601 697 q 675 549 675 607 l 674 518 l 511 518 l 511 524 q 476 591 511 567 q 374 615 440 615 q 275 595 308 615 q 242 543 242 575 q 283 485 242 504 q 408 449 324 467 q 556 406 500 428 q 654 339 613 385 q 696 215 696 293 z "},"ŝ":{"ha":746,"x_min":57,"x_max":696,"o":"m 57 0 m 374 -17 q 140 46 222 -17 q 57 208 57 108 q 58 225 57 221 q 58 231 58 229 l 221 231 l 221 219 q 267 140 222 165 q 381 114 313 114 q 485 134 442 114 q 528 194 528 154 q 504 247 528 226 q 446 278 481 267 q 347 306 411 290 q 206 347 261 326 q 113 413 151 368 q 74 529 74 457 q 160 690 74 633 q 383 747 246 747 q 535 722 468 747 q 638 652 601 697 q 675 549 675 607 l 674 518 l 511 518 l 511 524 q 476 591 511 567 q 374 615 440 615 q 275 595 308 615 q 242 543 242 575 q 283 485 242 504 q 408 449 324 467 q 556 406 500 428 q 654 339 613 385 q 696 215 696 293 q 609 39 696 94 q 374 -17 522 -17 m 150 817 l 297 1004 l 447 1004 l 593 817 l 450 817 l 372 917 l 293 817 l 150 817 z "},"ș":{"ha":746,"x_min":57,"x_max":696,"o":"m 57 0 m 374 -17 q 140 46 222 -17 q 57 208 57 108 q 58 225 57 221 q 58 231 58 229 l 221 231 l 221 219 q 267 140 222 165 q 381 114 313 114 q 485 134 442 114 q 528 194 528 154 q 504 247 528 226 q 446 278 481 267 q 347 306 411 290 q 206 347 261 326 q 113 413 151 368 q 74 529 74 457 q 160 690 74 633 q 383 747 246 747 q 535 722 468 747 q 638 652 601 697 q 675 549 675 607 l 674 518 l 511 518 l 511 524 q 476 591 511 567 q 374 615 440 615 q 275 595 308 615 q 242 543 242 575 q 283 485 242 504 q 408 449 324 467 q 556 406 500 428 q 654 339 613 385 q 696 215 696 293 q 609 39 696 94 q 374 -17 522 -17 m 292 -319 l 356 -197 l 289 -197 l 289 -64 l 456 -64 l 456 -183 l 378 -319 l 292 -319 z "},"ṣ":{"ha":746,"x_min":57,"x_max":696,"o":"m 57 0 m 374 -17 q 140 46 222 -17 q 57 208 57 108 q 58 225 57 221 q 58 231 58 229 l 221 231 l 221 219 q 267 140 222 165 q 381 114 313 114 q 485 134 442 114 q 528 194 528 154 q 504 247 528 226 q 446 278 481 267 q 347 306 411 290 q 206 347 261 326 q 113 413 151 368 q 74 529 74 457 q 160 690 74 633 q 383 747 246 747 q 535 722 468 747 q 638 652 601 697 q 675 549 675 607 l 674 518 l 511 518 l 511 524 q 476 591 511 567 q 374 615 440 615 q 275 595 308 615 q 242 543 242 575 q 283 485 242 504 q 408 449 324 467 q 556 406 500 428 q 654 339 613 385 q 696 215 696 293 q 609 39 696 94 q 374 -17 522 -17 m 289 -240 l 289 -76 l 453 -76 l 453 -240 l 289 -240 z "},"ß":{"ha":849,"x_min":90,"x_max":797,"o":"m 90 713 q 186 945 90 869 q 438 1021 282 1021 q 613 990 539 1021 q 725 901 686 958 q 764 771 764 844 q 720 633 764 692 q 606 550 676 575 l 606 544 q 747 449 696 518 q 797 288 797 381 q 759 140 797 206 q 651 38 721 75 q 490 0 581 0 l 351 0 l 351 136 l 474 136 q 586 183 543 136 q 629 299 629 231 q 585 414 629 368 q 468 460 540 460 l 351 460 l 351 604 l 461 604 q 557 646 519 604 q 594 747 594 688 q 553 848 594 810 q 433 886 511 886 q 304 843 351 886 q 257 721 257 800 l 257 0 l 90 0 l 90 713 z "},"ſ":{"ha":386,"x_min":13,"x_max":417,"o":"m 118 594 l 13 594 l 13 731 l 118 731 l 118 825 q 160 961 118 907 q 301 1015 203 1015 q 363 1009 331 1015 q 417 994 396 1003 l 417 879 l 347 879 q 285 817 285 879 l 285 0 l 118 0 l 118 594 z "},"ə":{"ha":772,"x_min":51,"x_max":722,"o":"m 378 -17 q 132 72 213 -17 q 51 356 51 161 l 51 406 l 551 406 q 506 563 549 511 q 375 615 463 615 q 258 581 301 615 q 215 475 215 546 l 51 475 q 140 678 51 610 q 378 747 229 747 q 636 653 550 747 q 722 365 722 558 q 636 78 722 172 q 378 -17 550 -17 m 378 115 q 549 288 532 115 l 225 288 q 264 156 225 196 q 378 115 303 115 z "},"t":{"ha":436,"x_min":18,"x_max":399,"o":"m 282 -17 q 148 35 189 -17 q 107 165 107 88 l 107 594 l 18 594 l 18 731 l 110 731 l 140 935 l 274 935 l 274 731 l 399 731 l 399 594 l 274 594 l 274 182 q 333 119 274 119 l 399 119 l 399 6 q 343 -10 376 -3 q 282 -17 310 -17 z "},"ŧ":{"ha":436,"x_min":18,"x_max":399,"o":"m 282 -17 q 148 35 189 -17 q 107 165 107 88 l 107 357 l 18 357 l 18 451 l 107 451 l 107 594 l 18 594 l 18 731 l 110 731 l 140 935 l 274 935 l 274 731 l 399 731 l 399 594 l 274 594 l 274 451 l 399 451 l 399 357 l 274 357 l 274 182 q 333 119 274 119 l 399 119 l 399 6 q 343 -10 376 -3 q 282 -17 310 -17 z "},"ť":{"ha":615,"x_min":18,"x_max":621,"o":"m 454 654 l 521 811 l 454 811 l 454 971 l 621 971 l 621 826 l 542 654 l 454 654 m 282 -17 q 148 35 189 -17 q 107 165 107 88 l 107 594 l 18 594 l 18 731 l 110 731 l 140 935 l 274 935 l 274 731 l 399 731 l 399 594 l 274 594 l 274 182 q 333 119 274 119 l 399 119 l 399 6 q 343 -10 376 -3 q 282 -17 310 -17 z "},"ţ":{"ha":436,"x_min":18,"x_max":410,"o":"m 276 -47 q 373 -73 336 -50 q 410 -140 410 -96 q 355 -228 410 -203 q 229 -253 300 -253 q 89 -242 153 -253 l 89 -174 l 218 -174 q 263 -167 249 -174 q 278 -140 278 -160 q 265 -115 278 -122 q 221 -107 253 -107 l 160 -107 l 178 10 q 124 74 140 33 q 107 165 107 115 l 107 594 l 18 594 l 18 731 l 110 731 l 140 935 l 274 935 l 274 731 l 399 731 l 399 594 l 274 594 l 274 182 q 333 119 274 119 l 399 119 l 399 6 q 343 -10 376 -3 q 282 -17 310 -17 l 281 -17 l 276 -47 z "},"ț":{"ha":436,"x_min":18,"x_max":399,"o":"m 18 0 m 282 -17 q 148 35 189 -17 q 107 165 107 88 l 107 594 l 18 594 l 18 731 l 110 731 l 140 935 l 274 935 l 274 731 l 399 731 l 399 594 l 274 594 l 274 182 q 333 119 274 119 l 399 119 l 399 6 q 343 -10 376 -3 q 282 -17 310 -17 m 153 -319 l 217 -197 l 150 -197 l 150 -64 l 317 -64 l 317 -183 l 239 -319 l 153 -319 z "},"ṭ":{"ha":436,"x_min":18,"x_max":399,"o":"m 18 0 m 282 -17 q 148 35 189 -17 q 107 165 107 88 l 107 594 l 18 594 l 18 731 l 110 731 l 140 935 l 274 935 l 274 731 l 399 731 l 399 594 l 274 594 l 274 182 q 333 119 274 119 l 399 119 l 399 6 q 343 -10 376 -3 q 282 -17 310 -17 m 150 -240 l 150 -76 l 314 -76 l 314 -240 l 150 -240 z "},"u":{"ha":822,"x_min":93,"x_max":725,"o":"m 329 -17 q 93 238 93 -17 l 93 731 l 260 731 l 260 267 q 294 160 260 192 q 394 128 328 128 q 511 178 464 128 q 558 306 558 228 l 558 731 l 725 731 l 725 0 l 588 0 l 574 97 l 564 97 q 465 13 524 43 q 329 -17 406 -17 z "},"ú":{"ha":822,"x_min":93,"x_max":725,"o":"m 93 0 m 329 -17 q 93 238 93 -17 l 93 731 l 260 731 l 260 267 q 294 160 260 192 q 394 128 328 128 q 511 178 464 128 q 558 306 558 228 l 558 731 l 725 731 l 725 0 l 588 0 l 574 97 l 564 97 q 465 13 524 43 q 329 -17 406 -17 m 343 821 l 456 1004 l 624 1004 l 625 1000 l 475 821 l 343 821 z "},"ŭ":{"ha":822,"x_min":93,"x_max":725,"o":"m 93 0 m 329 -17 q 93 238 93 -17 l 93 731 l 260 731 l 260 267 q 294 160 260 192 q 394 128 328 128 q 511 178 464 128 q 558 306 558 228 l 558 731 l 725 731 l 725 0 l 588 0 l 574 97 l 564 97 q 465 13 524 43 q 329 -17 406 -17 m 408 824 q 246 877 299 824 q 193 1004 193 931 l 303 1004 q 333 956 308 976 q 408 935 358 935 q 485 956 458 935 q 515 1004 511 978 l 625 1004 q 572 877 625 931 q 408 824 518 824 z "},"ǔ":{"ha":822,"x_min":93,"x_max":725,"o":"m 93 0 m 329 -17 q 93 238 93 -17 l 93 731 l 260 731 l 260 267 q 294 160 260 192 q 394 128 328 128 q 511 178 464 128 q 558 306 558 228 l 558 731 l 725 731 l 725 0 l 588 0 l 574 97 l 564 97 q 465 13 524 43 q 329 -17 406 -17 m 335 817 l 188 1004 l 331 1004 l 410 904 l 488 1004 l 631 1004 l 485 817 l 335 817 z "},"û":{"ha":822,"x_min":93,"x_max":725,"o":"m 93 0 m 329 -17 q 93 238 93 -17 l 93 731 l 260 731 l 260 267 q 294 160 260 192 q 394 128 328 128 q 511 178 464 128 q 558 306 558 228 l 558 731 l 725 731 l 725 0 l 588 0 l 574 97 l 564 97 q 465 13 524 43 q 329 -17 406 -17 m 188 817 l 335 1004 l 485 1004 l 631 817 l 488 817 l 410 917 l 331 817 l 188 817 z "},"ȕ":{"ha":822,"x_min":93,"x_max":725,"o":"m 93 0 m 329 -17 q 93 238 93 -17 l 93 731 l 260 731 l 260 267 q 294 160 260 192 q 394 128 328 128 q 511 178 464 128 q 558 306 558 228 l 558 731 l 725 731 l 725 0 l 588 0 l 574 97 l 564 97 q 465 13 524 43 q 329 -17 406 -17 m 257 821 l 118 1000 l 119 1004 l 286 1004 l 389 821 l 257 821 m 482 821 l 343 1000 l 344 1004 l 513 1004 l 614 821 l 482 821 z "},"ü":{"ha":822,"x_min":93,"x_max":725,"o":"m 93 0 m 329 -17 q 93 238 93 -17 l 93 731 l 260 731 l 260 267 q 294 160 260 192 q 394 128 328 128 q 511 178 464 128 q 558 306 558 228 l 558 731 l 725 731 l 725 0 l 588 0 l 574 97 l 564 97 q 465 13 524 43 q 329 -17 406 -17 m 196 851 l 196 1004 l 344 1004 l 344 851 l 196 851 m 476 851 l 476 1004 l 626 1004 l 626 851 l 476 851 z "},"ǘ":{"ha":822,"x_min":93,"x_max":725,"o":"m 93 0 m 329 -17 q 93 238 93 -17 l 93 731 l 260 731 l 260 267 q 294 160 260 192 q 394 128 328 128 q 511 178 464 128 q 558 306 558 228 l 558 731 l 725 731 l 725 0 l 588 0 l 574 97 l 564 97 q 465 13 524 43 q 329 -17 406 -17 m 196 851 l 196 1004 l 344 1004 l 344 851 l 196 851 m 476 851 l 476 1004 l 626 1004 l 626 851 l 476 851 m 343 1053 l 456 1236 l 624 1236 l 625 1232 l 475 1053 l 343 1053 z "},"ǚ":{"ha":822,"x_min":93,"x_max":725,"o":"m 93 0 m 329 -17 q 93 238 93 -17 l 93 731 l 260 731 l 260 267 q 294 160 260 192 q 394 128 328 128 q 511 178 464 128 q 558 306 558 228 l 558 731 l 725 731 l 725 0 l 588 0 l 574 97 l 564 97 q 465 13 524 43 q 329 -17 406 -17 m 196 851 l 196 1004 l 344 1004 l 344 851 l 196 851 m 476 851 l 476 1004 l 626 1004 l 626 851 l 476 851 m 335 1049 l 188 1236 l 331 1236 l 410 1136 l 488 1236 l 631 1236 l 485 1049 l 335 1049 z "},"ǜ":{"ha":822,"x_min":93,"x_max":725,"o":"m 93 0 m 329 -17 q 93 238 93 -17 l 93 731 l 260 731 l 260 267 q 294 160 260 192 q 394 128 328 128 q 511 178 464 128 q 558 306 558 228 l 558 731 l 725 731 l 725 0 l 588 0 l 574 97 l 564 97 q 465 13 524 43 q 329 -17 406 -17 m 196 851 l 196 1004 l 344 1004 l 344 851 l 196 851 m 476 851 l 476 1004 l 626 1004 l 626 851 l 476 851 m 343 1053 l 193 1232 l 194 1236 l 361 1236 l 475 1053 l 343 1053 z "},"ǖ":{"ha":822,"x_min":93,"x_max":725,"o":"m 93 0 m 329 -17 q 93 238 93 -17 l 93 731 l 260 731 l 260 267 q 294 160 260 192 q 394 128 328 128 q 511 178 464 128 q 558 306 558 228 l 558 731 l 725 731 l 725 0 l 588 0 l 574 97 l 564 97 q 465 13 524 43 q 329 -17 406 -17 m 196 851 l 196 1004 l 344 1004 l 344 851 l 196 851 m 476 851 l 476 1004 l 626 1004 l 626 851 l 476 851 m 197 1089 l 197 1203 l 621 1203 l 621 1089 l 197 1089 z "},"ụ":{"ha":822,"x_min":93,"x_max":725,"o":"m 93 0 m 329 -17 q 93 238 93 -17 l 93 731 l 260 731 l 260 267 q 294 160 260 192 q 394 128 328 128 q 511 178 464 128 q 558 306 558 228 l 558 731 l 725 731 l 725 0 l 588 0 l 574 97 l 564 97 q 465 13 524 43 q 329 -17 406 -17 m 328 -240 l 328 -76 l 492 -76 l 492 -240 l 328 -240 z "},"ù":{"ha":822,"x_min":93,"x_max":725,"o":"m 93 0 m 329 -17 q 93 238 93 -17 l 93 731 l 260 731 l 260 267 q 294 160 260 192 q 394 128 328 128 q 511 178 464 128 q 558 306 558 228 l 558 731 l 725 731 l 725 0 l 588 0 l 574 97 l 564 97 q 465 13 524 43 q 329 -17 406 -17 m 343 821 l 193 1000 l 194 1004 l 361 1004 l 475 821 l 343 821 z "},"ủ":{"ha":822,"x_min":93,"x_max":725,"o":"m 93 0 m 329 -17 q 93 238 93 -17 l 93 731 l 260 731 l 260 267 q 294 160 260 192 q 394 128 328 128 q 511 178 464 128 q 558 306 558 228 l 558 731 l 725 731 l 725 0 l 588 0 l 574 97 l 564 97 q 465 13 524 43 q 329 -17 406 -17 m 365 899 l 385 899 q 418 905 408 899 q 428 925 428 911 q 416 946 428 940 q 381 951 404 951 l 300 951 l 300 1010 q 410 1021 351 1021 q 515 1002 469 1021 q 560 936 560 983 q 530 879 560 899 q 454 857 500 860 l 454 821 l 365 821 l 365 899 z "},"ư":{"ha":822,"x_min":93,"x_max":890,"o":"m 890 1004 l 890 929 q 849 759 890 825 q 725 660 808 693 l 725 0 l 588 0 l 574 97 l 564 97 q 465 13 524 43 q 329 -17 406 -17 q 93 238 93 -17 l 93 731 l 260 731 l 260 267 q 294 160 260 192 q 394 128 328 128 q 511 178 464 128 q 558 306 558 228 l 558 731 l 663 731 q 778 828 754 758 l 689 828 l 689 1004 l 890 1004 z "},"ứ":{"ha":822,"x_min":93,"x_max":890,"o":"m 93 0 m 890 1004 l 890 929 q 849 759 890 825 q 725 660 808 693 l 725 0 l 588 0 l 574 97 l 564 97 q 465 13 524 43 q 329 -17 406 -17 q 93 238 93 -17 l 93 731 l 260 731 l 260 267 q 294 160 260 192 q 394 128 328 128 q 511 178 464 128 q 558 306 558 228 l 558 731 l 663 731 q 778 828 754 758 l 689 828 l 689 1004 l 890 1004 m 343 821 l 456 1004 l 624 1004 l 625 1000 l 475 821 l 343 821 z "},"ự":{"ha":822,"x_min":93,"x_max":890,"o":"m 93 0 m 890 1004 l 890 929 q 849 759 890 825 q 725 660 808 693 l 725 0 l 588 0 l 574 97 l 564 97 q 465 13 524 43 q 329 -17 406 -17 q 93 238 93 -17 l 93 731 l 260 731 l 260 267 q 294 160 260 192 q 394 128 328 128 q 511 178 464 128 q 558 306 558 228 l 558 731 l 663 731 q 778 828 754 758 l 689 828 l 689 1004 l 890 1004 m 328 -240 l 328 -76 l 492 -76 l 492 -240 l 328 -240 z "},"ừ":{"ha":822,"x_min":93,"x_max":890,"o":"m 93 0 m 890 1004 l 890 929 q 849 759 890 825 q 725 660 808 693 l 725 0 l 588 0 l 574 97 l 564 97 q 465 13 524 43 q 329 -17 406 -17 q 93 238 93 -17 l 93 731 l 260 731 l 260 267 q 294 160 260 192 q 394 128 328 128 q 511 178 464 128 q 558 306 558 228 l 558 731 l 663 731 q 778 828 754 758 l 689 828 l 689 1004 l 890 1004 m 343 821 l 193 1000 l 194 1004 l 361 1004 l 475 821 l 343 821 z "},"ử":{"ha":822,"x_min":93,"x_max":890,"o":"m 93 0 m 890 1004 l 890 929 q 849 759 890 825 q 725 660 808 693 l 725 0 l 588 0 l 574 97 l 564 97 q 465 13 524 43 q 329 -17 406 -17 q 93 238 93 -17 l 93 731 l 260 731 l 260 267 q 294 160 260 192 q 394 128 328 128 q 511 178 464 128 q 558 306 558 228 l 558 731 l 663 731 q 778 828 754 758 l 689 828 l 689 1004 l 890 1004 m 365 899 l 385 899 q 418 905 408 899 q 428 925 428 911 q 416 946 428 940 q 381 951 404 951 l 300 951 l 300 1010 q 410 1021 351 1021 q 515 1002 469 1021 q 560 936 560 983 q 530 879 560 899 q 454 857 500 860 l 454 821 l 365 821 l 365 899 z "},"ữ":{"ha":822,"x_min":93,"x_max":890,"o":"m 93 0 m 890 1004 l 890 929 q 849 759 890 825 q 725 660 808 693 l 725 0 l 588 0 l 574 97 l 564 97 q 465 13 524 43 q 329 -17 406 -17 q 93 238 93 -17 l 93 731 l 260 731 l 260 267 q 294 160 260 192 q 394 128 328 128 q 511 178 464 128 q 558 306 558 228 l 558 731 l 663 731 q 778 828 754 758 l 689 828 l 689 1004 l 890 1004 m 178 843 q 210 959 178 914 q 308 1004 243 1004 q 356 998 332 1004 q 410 979 379 992 q 500 956 465 956 q 546 1004 540 956 l 640 1004 q 608 888 640 933 q 510 843 575 843 q 464 849 486 843 q 410 868 442 856 q 360 885 381 879 q 318 892 340 892 q 274 843 279 892 l 178 843 z "},"ű":{"ha":822,"x_min":93,"x_max":726,"o":"m 93 0 m 329 -17 q 93 238 93 -17 l 93 731 l 260 731 l 260 267 q 294 160 260 192 q 394 128 328 128 q 511 178 464 128 q 558 306 558 228 l 558 731 l 725 731 l 725 0 l 588 0 l 574 97 l 564 97 q 465 13 524 43 q 329 -17 406 -17 m 231 821 l 332 1004 l 500 1004 l 501 1000 l 363 821 l 231 821 m 456 821 l 558 1004 l 725 1004 l 726 1000 l 588 821 l 456 821 z "},"ȗ":{"ha":822,"x_min":93,"x_max":725,"o":"m 93 0 m 329 -17 q 93 238 93 -17 l 93 731 l 260 731 l 260 267 q 294 160 260 192 q 394 128 328 128 q 511 178 464 128 q 558 306 558 228 l 558 731 l 725 731 l 725 0 l 588 0 l 574 97 l 564 97 q 465 13 524 43 q 329 -17 406 -17 m 193 824 q 246 951 193 897 q 408 1004 299 1004 q 572 951 518 1004 q 625 824 625 897 l 515 824 q 485 872 511 850 q 408 893 458 893 q 333 872 358 893 q 303 824 308 851 l 193 824 z "},"ū":{"ha":822,"x_min":93,"x_max":725,"o":"m 93 0 m 329 -17 q 93 238 93 -17 l 93 731 l 260 731 l 260 267 q 294 160 260 192 q 394 128 328 128 q 511 178 464 128 q 558 306 558 228 l 558 731 l 725 731 l 725 0 l 588 0 l 574 97 l 564 97 q 465 13 524 43 q 329 -17 406 -17 m 197 857 l 197 971 l 621 971 l 621 857 l 197 857 z "},"ų":{"ha":822,"x_min":93,"x_max":725,"o":"m 632 -253 q 529 -224 572 -253 q 486 -133 486 -196 q 586 3 486 -43 l 574 97 l 564 97 q 465 13 524 43 q 329 -17 406 -17 q 93 238 93 -17 l 93 731 l 260 731 l 260 267 q 294 160 260 192 q 394 128 328 128 q 511 178 464 128 q 558 306 558 228 l 558 731 l 725 731 l 725 0 q 647 -39 675 -14 q 619 -97 619 -64 q 637 -141 619 -124 q 689 -158 654 -158 l 725 -158 l 725 -233 q 632 -253 675 -253 z "},"ů":{"ha":822,"x_min":93,"x_max":725,"o":"m 93 0 m 329 -17 q 93 238 93 -17 l 93 731 l 260 731 l 260 267 q 294 160 260 192 q 394 128 328 128 q 511 178 464 128 q 558 306 558 228 l 558 731 l 725 731 l 725 0 l 588 0 l 574 97 l 564 97 q 465 13 524 43 q 329 -17 406 -17 m 410 776 q 310 816 347 776 q 272 915 272 856 q 310 1014 272 975 q 410 1053 347 1053 q 510 1014 472 1053 q 547 915 547 975 q 510 816 547 856 q 410 776 472 776 m 410 850 q 456 869 438 850 q 474 915 474 888 q 456 961 474 943 q 410 979 438 979 q 363 961 381 979 q 346 915 346 943 q 363 869 346 888 q 410 850 381 850 z "},"ũ":{"ha":822,"x_min":93,"x_max":725,"o":"m 93 0 m 329 -17 q 93 238 93 -17 l 93 731 l 260 731 l 260 267 q 294 160 260 192 q 394 128 328 128 q 511 178 464 128 q 558 306 558 228 l 558 731 l 725 731 l 725 0 l 588 0 l 574 97 l 564 97 q 465 13 524 43 q 329 -17 406 -17 m 178 843 q 210 959 178 914 q 308 1004 243 1004 q 356 998 332 1004 q 410 979 379 992 q 500 956 465 956 q 546 1004 540 956 l 640 1004 q 608 888 640 933 q 510 843 575 843 q 464 849 486 843 q 410 868 442 856 q 360 885 381 879 q 318 892 340 892 q 274 843 279 892 l 178 843 z "},"v":{"ha":746,"x_min":14,"x_max":731,"o":"m 14 731 l 189 731 l 308 399 q 345 281 324 358 q 374 176 367 203 l 381 176 q 407 277 386 201 q 444 399 428 353 l 563 731 l 731 731 l 460 0 l 285 0 l 14 731 z "},"w":{"ha":1054,"x_min":6,"x_max":1047,"o":"m 6 731 l 178 731 l 268 392 q 292 290 276 363 q 311 194 307 218 l 318 194 q 335 278 322 218 q 360 390 347 338 l 442 731 l 621 731 l 708 389 q 733 276 721 335 q 750 194 746 217 l 757 194 q 774 273 761 215 q 800 389 786 331 l 888 731 l 1047 731 l 829 0 l 654 0 l 564 379 q 544 468 554 417 q 531 536 533 519 l 524 536 q 512 469 521 521 q 493 381 503 418 l 400 0 l 225 0 l 6 731 z "},"ẃ":{"ha":1054,"x_min":6,"x_max":1047,"o":"m 6 0 m 6 731 l 178 731 l 268 392 q 292 290 276 363 q 311 194 307 218 l 318 194 q 335 278 322 218 q 360 390 347 338 l 442 731 l 621 731 l 708 389 q 733 276 721 335 q 750 194 746 217 l 757 194 q 774 273 761 215 q 800 389 786 331 l 888 731 l 1047 731 l 829 0 l 654 0 l 564 379 q 544 468 554 417 q 531 536 533 519 l 524 536 q 512 469 521 521 q 493 381 503 418 l 400 0 l 225 0 l 6 731 m 460 821 l 572 1004 l 740 1004 l 742 1000 l 592 821 l 460 821 z "},"ŵ":{"ha":1054,"x_min":6,"x_max":1047,"o":"m 6 0 m 6 731 l 178 731 l 268 392 q 292 290 276 363 q 311 194 307 218 l 318 194 q 335 278 322 218 q 360 390 347 338 l 442 731 l 621 731 l 708 389 q 733 276 721 335 q 750 194 746 217 l 757 194 q 774 273 761 215 q 800 389 786 331 l 888 731 l 1047 731 l 829 0 l 654 0 l 564 379 q 544 468 554 417 q 531 536 533 519 l 524 536 q 512 469 521 521 q 493 381 503 418 l 400 0 l 225 0 l 6 731 m 304 817 l 451 1004 l 601 1004 l 747 817 l 604 817 l 526 917 l 447 817 l 304 817 z "},"ẅ":{"ha":1054,"x_min":6,"x_max":1047,"o":"m 6 0 m 6 731 l 178 731 l 268 392 q 292 290 276 363 q 311 194 307 218 l 318 194 q 335 278 322 218 q 360 390 347 338 l 442 731 l 621 731 l 708 389 q 733 276 721 335 q 750 194 746 217 l 757 194 q 774 273 761 215 q 800 389 786 331 l 888 731 l 1047 731 l 829 0 l 654 0 l 564 379 q 544 468 554 417 q 531 536 533 519 l 524 536 q 512 469 521 521 q 493 381 503 418 l 400 0 l 225 0 l 6 731 m 313 851 l 313 1004 l 461 1004 l 461 851 l 313 851 m 593 851 l 593 1004 l 743 1004 l 743 851 l 593 851 z "},"ẁ":{"ha":1054,"x_min":6,"x_max":1047,"o":"m 6 0 m 6 731 l 178 731 l 268 392 q 292 290 276 363 q 311 194 307 218 l 318 194 q 335 278 322 218 q 360 390 347 338 l 442 731 l 621 731 l 708 389 q 733 276 721 335 q 750 194 746 217 l 757 194 q 774 273 761 215 q 800 389 786 331 l 888 731 l 1047 731 l 829 0 l 654 0 l 564 379 q 544 468 554 417 q 531 536 533 519 l 524 536 q 512 469 521 521 q 493 381 503 418 l 400 0 l 225 0 l 6 731 m 460 821 l 310 1000 l 311 1004 l 478 1004 l 592 821 l 460 821 z "},"x":{"ha":746,"x_min":8,"x_max":736,"o":"m 8 0 l 271 376 l 26 731 l 228 731 l 375 501 l 383 501 l 532 731 l 722 731 l 475 381 l 736 0 l 536 0 l 372 256 l 364 256 l 197 0 l 8 0 z "},"y":{"ha":746,"x_min":14,"x_max":731,"o":"m 193 -253 q 106 -245 135 -253 q 75 -237 76 -237 l 75 -122 l 150 -122 q 241 -94 204 -122 q 299 0 278 -65 l 14 731 l 189 731 l 326 379 q 362 269 342 339 q 388 176 382 199 l 394 176 q 418 265 400 197 q 451 379 436 333 l 563 731 l 731 731 l 488 38 q 372 -178 438 -103 q 193 -253 307 -253 z "},"ý":{"ha":746,"x_min":14,"x_max":731,"o":"m 14 0 m 193 -253 q 106 -245 135 -253 q 75 -237 76 -237 l 75 -122 l 150 -122 q 241 -94 204 -122 q 299 0 278 -65 l 14 731 l 189 731 l 326 379 q 362 269 342 339 q 388 176 382 199 l 394 176 q 418 265 400 197 q 451 379 436 333 l 563 731 l 731 731 l 488 38 q 372 -178 438 -103 q 193 -253 307 -253 m 306 821 l 418 1004 l 586 1004 l 588 1000 l 438 821 l 306 821 z "},"ŷ":{"ha":746,"x_min":14,"x_max":731,"o":"m 14 0 m 193 -253 q 106 -245 135 -253 q 75 -237 76 -237 l 75 -122 l 150 -122 q 241 -94 204 -122 q 299 0 278 -65 l 14 731 l 189 731 l 326 379 q 362 269 342 339 q 388 176 382 199 l 394 176 q 418 265 400 197 q 451 379 436 333 l 563 731 l 731 731 l 488 38 q 372 -178 438 -103 q 193 -253 307 -253 m 150 817 l 297 1004 l 447 1004 l 593 817 l 450 817 l 372 917 l 293 817 l 150 817 z "},"ÿ":{"ha":746,"x_min":14,"x_max":731,"o":"m 14 0 m 193 -253 q 106 -245 135 -253 q 75 -237 76 -237 l 75 -122 l 150 -122 q 241 -94 204 -122 q 299 0 278 -65 l 14 731 l 189 731 l 326 379 q 362 269 342 339 q 388 176 382 199 l 394 176 q 418 265 400 197 q 451 379 436 333 l 563 731 l 731 731 l 488 38 q 372 -178 438 -103 q 193 -253 307 -253 m 158 851 l 158 1004 l 307 1004 l 307 851 l 158 851 m 439 851 l 439 1004 l 589 1004 l 589 851 l 439 851 z "},"ỵ":{"ha":746,"x_min":14,"x_max":731,"o":"m 14 0 m 193 -253 q 106 -245 135 -253 q 75 -237 76 -237 l 75 -122 l 150 -122 q 241 -94 204 -122 q 299 0 278 -65 l 14 731 l 189 731 l 326 379 q 362 269 342 339 q 388 176 382 199 l 394 176 q 418 265 400 197 q 451 379 436 333 l 563 731 l 731 731 l 488 38 q 372 -178 438 -103 q 193 -253 307 -253 m 496 -240 l 496 -76 l 660 -76 l 660 -240 l 496 -240 z "},"ỳ":{"ha":746,"x_min":14,"x_max":731,"o":"m 14 0 m 193 -253 q 106 -245 135 -253 q 75 -237 76 -237 l 75 -122 l 150 -122 q 241 -94 204 -122 q 299 0 278 -65 l 14 731 l 189 731 l 326 379 q 362 269 342 339 q 388 176 382 199 l 394 176 q 418 265 400 197 q 451 379 436 333 l 563 731 l 731 731 l 488 38 q 372 -178 438 -103 q 193 -253 307 -253 m 306 821 l 156 1000 l 157 1004 l 324 1004 l 438 821 l 306 821 z "},"ỷ":{"ha":746,"x_min":14,"x_max":731,"o":"m 14 0 m 193 -253 q 106 -245 135 -253 q 75 -237 76 -237 l 75 -122 l 150 -122 q 241 -94 204 -122 q 299 0 278 -65 l 14 731 l 189 731 l 326 379 q 362 269 342 339 q 388 176 382 199 l 394 176 q 418 265 400 197 q 451 379 436 333 l 563 731 l 731 731 l 488 38 q 372 -178 438 -103 q 193 -253 307 -253 m 328 899 l 347 899 q 381 905 371 899 q 390 925 390 911 q 378 946 390 940 q 343 951 367 951 l 263 951 l 263 1010 q 372 1021 314 1021 q 477 1002 432 1021 q 522 936 522 983 q 492 879 522 899 q 417 857 463 860 l 417 821 l 328 821 l 328 899 z "},"ȳ":{"ha":746,"x_min":14,"x_max":731,"o":"m 14 0 m 193 -253 q 106 -245 135 -253 q 75 -237 76 -237 l 75 -122 l 150 -122 q 241 -94 204 -122 q 299 0 278 -65 l 14 731 l 189 731 l 326 379 q 362 269 342 339 q 388 176 382 199 l 394 176 q 418 265 400 197 q 451 379 436 333 l 563 731 l 731 731 l 488 38 q 372 -178 438 -103 q 193 -253 307 -253 m 160 857 l 160 971 l 583 971 l 583 857 l 160 857 z "},"ỹ":{"ha":746,"x_min":14,"x_max":731,"o":"m 14 0 m 193 -253 q 106 -245 135 -253 q 75 -237 76 -237 l 75 -122 l 150 -122 q 241 -94 204 -122 q 299 0 278 -65 l 14 731 l 189 731 l 326 379 q 362 269 342 339 q 388 176 382 199 l 394 176 q 418 265 400 197 q 451 379 436 333 l 563 731 l 731 731 l 488 38 q 372 -178 438 -103 q 193 -253 307 -253 m 140 843 q 173 959 140 914 q 271 1004 206 1004 q 318 998 294 1004 q 372 979 342 992 q 463 956 428 956 q 508 1004 503 956 l 603 1004 q 570 888 603 933 q 472 843 538 843 q 426 849 449 843 q 372 868 404 856 q 323 885 343 879 q 281 892 303 892 q 236 843 242 892 l 140 843 z "},"z":{"ha":694,"x_min":31,"x_max":663,"o":"m 31 0 l 31 78 l 403 594 l 54 594 l 54 731 l 646 731 l 646 654 l 272 136 l 663 136 l 663 0 l 31 0 z "},"ź":{"ha":694,"x_min":31,"x_max":663,"o":"m 31 0 m 31 0 l 31 78 l 403 594 l 54 594 l 54 731 l 646 731 l 646 654 l 272 136 l 663 136 l 663 0 l 31 0 m 281 821 l 393 1004 l 561 1004 l 563 1000 l 413 821 l 281 821 z "},"ž":{"ha":694,"x_min":31,"x_max":663,"o":"m 31 0 m 31 0 l 31 78 l 403 594 l 54 594 l 54 731 l 646 731 l 646 654 l 272 136 l 663 136 l 663 0 l 31 0 m 272 817 l 125 1004 l 268 1004 l 347 904 l 425 1004 l 568 1004 l 422 817 l 272 817 z "},"ż":{"ha":694,"x_min":31,"x_max":663,"o":"m 31 0 m 31 0 l 31 78 l 403 594 l 54 594 l 54 731 l 646 731 l 646 654 l 272 136 l 663 136 l 663 0 l 31 0 m 264 842 l 264 1006 l 428 1006 l 428 842 l 264 842 z "},"ẓ":{"ha":694,"x_min":31,"x_max":663,"o":"m 31 0 m 31 0 l 31 78 l 403 594 l 54 594 l 54 731 l 646 731 l 646 654 l 272 136 l 663 136 l 663 0 l 31 0 m 264 -240 l 264 -76 l 428 -76 l 428 -240 l 264 -240 z "},"ﬁ":{"ha":796,"x_min":13,"x_max":700,"o":"m 13 0 m 118 594 l 13 594 l 13 731 l 118 731 l 118 825 q 160 961 118 907 q 301 1015 203 1015 q 363 1009 331 1015 q 417 994 396 1003 l 417 879 l 347 879 q 285 817 285 879 l 285 731 l 417 731 l 417 594 l 285 594 l 285 0 l 118 0 l 118 594 m 533 844 l 533 1004 l 700 1004 l 700 844 l 533 844 m 533 0 l 533 731 l 700 731 l 700 0 l 533 0 z "},"ﬂ":{"ha":796,"x_min":13,"x_max":700,"o":"m 13 0 m 118 594 l 13 594 l 13 731 l 118 731 l 118 825 q 160 961 118 907 q 301 1015 203 1015 q 363 1009 331 1015 q 417 994 396 1003 l 417 879 l 347 879 q 285 817 285 879 l 285 731 l 417 731 l 417 594 l 285 594 l 285 0 l 118 0 l 118 594 m 533 0 l 533 1004 l 700 1004 l 700 0 l 533 0 z "},"ª":{"ha":514,"x_min":39,"x_max":492,"o":"m 492 628 l 492 554 q 425 542 467 542 q 367 557 390 542 q 335 600 343 572 l 329 600 q 186 540 279 540 q 84 568 129 540 q 39 671 39 596 q 113 796 39 760 q 325 832 188 832 l 325 872 q 308 922 325 904 q 249 939 292 939 q 187 924 206 939 q 168 888 168 908 l 168 874 l 63 874 q 61 893 61 881 q 113 988 61 954 q 249 1022 164 1022 q 386 986 340 1022 q 432 881 432 950 l 432 658 q 441 635 432 643 q 463 628 450 628 l 492 628 m 325 756 q 197 740 243 756 q 150 681 150 724 q 167 640 150 654 q 217 625 183 625 q 296 655 267 625 q 325 732 325 685 l 325 756 z "},"º":{"ha":507,"x_min":29,"x_max":479,"o":"m 254 540 q 85 600 142 540 q 29 782 29 660 q 85 963 29 904 q 254 1022 142 1022 q 424 964 368 1022 q 479 782 479 906 q 424 599 479 658 q 254 540 368 540 m 254 628 q 340 665 314 628 q 367 778 367 701 l 367 783 q 340 899 367 861 q 254 936 314 936 q 168 899 194 936 q 142 788 142 863 l 142 778 q 168 665 142 701 q 254 628 194 628 z "},"ⁿ":{"ha":535,"x_min":72,"x_max":468,"o":"m 72 1013 l 164 1013 l 172 951 l 178 951 q 319 1022 228 1022 q 468 864 468 1022 l 468 554 l 360 554 l 360 846 q 340 913 360 893 q 279 932 319 932 q 209 901 238 932 q 181 821 181 869 l 181 554 l 72 554 l 72 1013 z "},"Δ":{"ha":974,"x_min":4,"x_max":971,"o":"m 4 0 l 375 953 l 599 953 l 971 0 l 4 0 m 725 151 q 714 179 725 151 q 672 283 692 231 l 544 619 l 507 733 l 485 797 l 478 797 l 461 747 q 418 619 435 661 l 294 282 q 260 199 278 239 q 240 151 243 160 l 725 151 z "},"Ω":{"ha":1088,"x_min":47,"x_max":1040,"o":"m 47 151 l 114 151 q 175 146 125 151 q 247 138 238 138 q 117 287 163 197 q 71 494 71 376 q 196 846 71 722 q 544 969 321 969 q 892 846 767 969 q 1017 494 1017 722 q 969 287 1017 376 q 838 138 922 197 q 907 144 864 139 q 975 151 951 151 l 1040 151 l 1040 0 l 590 0 l 590 133 q 774 233 713 157 q 835 451 835 310 l 835 479 q 761 736 835 653 q 544 819 688 819 q 253 483 253 819 l 253 451 q 315 234 253 310 q 497 135 376 158 l 497 0 l 47 0 l 47 151 z "},"μ":{"ha":800,"x_min":85,"x_max":717,"o":"m 85 731 l 251 731 l 251 267 q 285 160 251 192 q 386 128 319 128 q 503 178 456 128 q 550 306 550 228 l 550 731 l 717 731 l 717 0 l 579 0 l 565 97 l 556 97 q 364 -17 492 -17 q 243 24 289 -17 q 251 -93 251 -60 l 251 -240 l 85 -240 l 85 731 z "},"π":{"ha":1028,"x_min":42,"x_max":986,"o":"m 138 0 q 213 281 179 101 q 250 594 246 461 q 134 590 175 594 q 63 576 93 586 l 42 689 q 311 731 110 731 l 986 731 l 972 594 l 831 594 l 831 217 q 853 0 831 67 l 690 0 q 671 70 678 17 q 664 204 664 124 l 664 594 l 417 594 q 374 263 406 444 q 304 0 342 81 l 138 0 z "},"¹":{"ha":463,"x_min":75,"x_max":403,"o":"m 75 553 l 192 553 l 192 829 l 75 829 l 75 897 q 160 917 111 901 q 243 953 210 933 l 297 953 l 297 553 l 403 553 l 403 457 l 75 457 l 75 553 z "},"²":{"ha":463,"x_min":57,"x_max":411,"o":"m 57 494 q 76 569 57 536 q 120 626 94 603 q 192 685 146 650 q 219 706 197 689 q 258 738 242 724 q 283 767 274 753 q 303 825 303 793 q 287 864 303 847 q 239 881 271 881 q 168 814 168 881 l 168 786 l 65 786 q 63 799 64 789 q 61 824 61 808 q 113 933 61 896 q 243 969 164 969 q 369 924 331 969 q 408 821 408 878 q 386 735 408 772 q 333 672 364 697 q 254 613 303 646 q 188 554 200 574 l 411 554 l 411 460 l 57 460 l 57 494 z "},"³":{"ha":463,"x_min":51,"x_max":411,"o":"m 233 453 q 99 494 147 453 q 51 607 51 535 l 51 619 l 157 619 l 157 604 q 176 558 157 574 q 231 542 194 542 q 285 558 265 542 q 304 606 304 574 q 225 671 304 671 l 182 671 l 182 760 l 228 760 q 276 776 257 760 q 294 822 294 792 q 278 867 294 853 q 232 882 261 882 q 185 866 203 882 q 167 822 167 850 l 167 808 l 61 808 l 61 828 q 109 931 61 892 q 231 969 157 969 q 355 933 308 969 q 401 828 401 896 q 328 722 401 760 l 328 717 q 411 599 411 685 q 362 492 411 532 q 233 453 313 453 z "},"⁄":{"ha":232,"x_min":-321,"x_max":551,"o":"m -321 -17 l 438 969 l 551 969 l -207 -17 l -321 -17 z "},"½":{"ha":1158,"x_min":67,"x_max":1086,"o":"m 143 -17 l 901 969 l 1015 969 l 257 -17 l 143 -17 m 67 551 l 183 551 l 183 829 l 67 829 l 67 897 q 152 917 103 901 q 235 953 201 933 l 289 953 l 289 551 l 394 551 l 394 457 l 67 457 l 67 551 m 732 35 q 751 110 732 76 q 795 167 769 143 q 867 225 821 190 q 927 272 907 256 q 961 310 947 289 q 978 365 978 332 q 962 404 978 388 q 914 421 946 421 q 843 354 843 421 l 843 326 l 740 326 q 738 363 738 349 q 788 473 738 436 q 918 510 839 510 q 1044 464 1006 510 q 1083 361 1083 418 q 1043 249 1083 294 q 931 151 1003 203 q 863 94 876 114 l 1086 94 l 1086 0 l 732 0 l 732 35 z "}}}
